<ttFont>
          <CharString index="0">
            -53 callgsubr
            281.410003662 133.809997559 hlineto
            -67 callgsubr
            168.240005493 hlineto
            59.9799957275 -2.5 37.8300018311 -39.3300018311 -0.119995117188 -60.1900024414 rrcurveto
            -11.75 vlineto
            10.1000061035 -0.149993896484 rlineto
            174.839996338 vlineto
            -18.5899963379 -75 callsubr
            return
          </CharString>
          <CharString index="1">
            rmoveto
            33.1900024414 26.8999938965 26.8999938965 33.1900024414 33.1900024414 -26.8999938965 26.8999938965 -33.1900024414 -33.1900024414 -26.8999938965 -26.8999938965 -33.1900024414 -33.1900024414 26.8999938965 -26.8999938965 33.1900024414 hvcurveto
            233.440002441 hmoveto
            33.1900024414 26.8999938965 26.8999938965 33.1900024414 33.1900024414 -26.8999938965 26.8999938965 -33.1900024414 -33.1900024414 -26.8999938965 -26.8999938965 -33.1900024414 -33.1900024414 26.8999938965 -26.8999938965 33.1900024414 hvcurveto
            return
          </CharString>
          <CharString index="2">
            rmoveto
            -0.259994506836 -137.61000061 -86.0200042725 -80.4499969482 -117.710006714 0.300003051758 -120.220001221 -0.300003051758 -80.7200012207 88.5500030518 0.0500030517578 142.410003662 rrcurveto
            382.009994507 vlineto
            1.10000610352 25.9900054932 21.6499938965 21.7200012207 29.9700012207 0.00999450683594 rrcurveto
            16.3000030518 10 -288.11000061 -10 16.1199951172 hlineto
            29.0700073242 0.00999450683594 23.4400024414 -20.7599945068 0.539993286133 -28.7599945068 rrcurveto
            -388.830001831 vlineto
            -160.520004272 -1.94000244141 123.720001221 -105.149993896 200.759994507 hhcurveto
            192.25 109.13999939 99.3500061035 168.059997559 1.80999755859 hvcurveto
            356.940002441 vlineto
            0.0399932861328 170.61000061 73.6999969482 101.080001831 130.229995728 9.80999755859 rrcurveto
            10 vlineto
            -167.380004883 14.1100006104 -107.5 -130.11000061 -0.0299987792969 -176.020004272 rrcurveto
            return
          </CharString>
          <CharString index="3">
            hlineto
            -21 callgsubr
            12.6499938965 hlineto
            33.9199981689 27.7200012207 -26.3500061035 -33.3399963379 2.27000427246 hvcurveto
            -557.529998779 vlineto
            -34.8300018311 -0.660003662109 -100 callsubr
            return
          </CharString>
          <CharString index="4">
            rmoveto
            -11 callgsubr
            vlineto
            28.4199981689 24.3999938965 -20.1000061035 -28.0399932861 hvcurveto
            -394.479995728 vlineto
            -134.300003052 -0.279998779297 -76.1799926758 -83.4600067139 -122.13999939 hhcurveto
            -119.63999939 -74.4900054932 88.3999938965 142.259994507 hvcurveto
            381.710006714 vlineto
            27.9799957275 1.2200012207 23.1199951172 20.0399932861 28.3800048828 hhcurveto
            16.3000030518 10 -288.11000061 -11 callgsubr
            hlineto
            28.8899993896 23.4400024414 -20.7599945068 -28.7599945068 0.539993286133 hvcurveto
            -388.830001831 vlineto
            -163.199996948 111.759994507 -102.470001221 214.160003662 179.919998169 107.839996338 103.080001831 164.330001831 vhcurveto
            389.380004883 vlineto
            27.5599975586 24.6900024414 19.6699981689 28.1100006104 vhcurveto
            16.3000030518 10 hlineto
            endchar
          </CharString>
          <CharString index="5">
            vlineto
            34.5399932861 0.979995727539 28.2700042725 27.7200012207 34.7899932861 -80 callsubr
            12.6499938965 hlineto
            34.8600006104 28.3099975586 -27.8300018311 -34.6399993896 0.869995117188 hvcurveto
            -554.740005493 vlineto
            -34.8300018311 -0.660003662109 -100 callsubr
            return
          </CharString>
          <CharString index="6">
            rmoveto
            -10.0399932861 12.2799987793 vlineto
            34.8899993896 -13 callgsubr
            -41 callsubr
            -27.8899993896 0.660003662109 -34.8300018311 rrcurveto
            -554.779998779 vlineto
            -35.4100036621 -0.960006713867 -28.9299926758 -27.0200042725 -34.0700073242 hhcurveto
            -12.7599945068 -10 304.020004272 -1 callsubr
            -12.3399963379 hlineto
            -35.9799957275 -0.00999450683594 -27.8500061035 28.8200073242 -0.539993286133 34.0599975586 rrcurveto
            583.130004883 75.7899932861 vlineto
            72.2899932861 -44 callsubr
            60.25 -50 3.61000061035 -89.8600006104 1 -23.3200073242 -2.78999328613 -15.3600006104 -1.7799987793 -9.7799987793 -17.7200012207 -92 -78.9299926758 -22.1900024414 -47.8200073242 -1.33999633789 -12.2899932861 -0.789993286133 -14.4799957275 0.630004882812 -3.86999511719 -0.119995117188 rrcurveto
            -9.38000488281 vlineto
            18.3099975586 -4.77000427246 17.6000061035 -24.2700042725 19.3300018311 -30.8300018311 39.0399932861 -55.5599975586 90.2700042725 -138.13999939 51.6600036621 -74.9499969482 172.570007324 -260.820007324 241.289993286 13 129.63999939 64 rrcurveto
            10 vlineto
            -179.63999939 2 -113.13999939 96 -109.679992676 141.710006714 -87.5 108.679992676 -52.6799926758 85.9299926758 -90.8099975586 48.2799987793 rrcurveto
            103.020004272 -7.07000732422 89.3899993896 80.6799926758 117.320007324 vvcurveto
            142.38999939 -136.5 44.1699981689 -119.380004883 vhcurveto
            return
          </CharString>
          <CharString index="7">
            -28.3999938965 -28.0500030518 -35 -95 callsubr
            return
          </CharString>
          <CharString index="8">
            rmoveto
            -33.7799987793 58.3200073242 -66.5700073242 66.8600006104 -43.4900054932 38.9600067139 -35.5200042725 -18 -19.9400024414 -27.0700073242 -12.3000030518 -36.1399993896 59.5 -37.8399963379 79.5299987793 -36.6600036621 65.5700073242 -15.4400024414 rrcurveto
            return
          </CharString>
          <CharString index="9">
            36.7899932861 1.11000061035 26.5200042725 -1.13999938965 65.6799926758 -1.60000610352 48.2700042725 -42.7899932861 4 -95.6399993896 0.839996337891 -20.1499938965 -2.21000671387 1 callsubr
            -2.33999633789 -12.1799926758 -17.8300018311 -87.6000061035 -54.6799926758 -27.4400024414 -53.7700042725 -0.559997558594 rrcurveto
            -30.5299987793 -9.50999450684 hlineto
            25.9499969482 -4.46000671387 23 -20.8999938965 18.7700042725 -42.0399932861 10.9100036621 -29.8999938965 46.0899963379 -99.0200042725 26.3200073242 -42.3699951172 rrcurveto
            -77.8899993896 49.3899993896 76.1000061035 -25.7700042725 109.38999939 hhcurveto
            97.3600006104 10.0299987793 hlineto
            -52.1199951172 0.779998779297 -28.5099945068 20.1499938965 -43.1300048828 54.8999938965 -37.6699981689 46.9700012207 -59.9799957275 95.1100006104 -3.03999328613 4.86000061035 -22.1900024414 35.0399932861 -37.5800018311 39.7200012207 -42.2400054932 13.8399963379 rrcurveto
            113.490005493 11.3000030518 50.2100067139 94.5500030518 84.1799926758 vvcurveto
            139.279998779 -116.61000061 49.3099975586 -121.240005493 vhcurveto
            return
          </CharString>
          <CharString index="10">
            rmoveto
            0.149993896484 -10 rlineto
            18.4499969482 hlineto
            33.7400054932 27.3600006104 -27.0399932861 -33.5700073242 0.630004882812 hvcurveto
            -395.380004883 vlineto
            -504.509994507 480.949996948 rlineto
            -9.86000061035 hlineto
            0 11.6399993896 -50.5800018311 -74.3399963379 vvcurveto
            -519.529998779 vlineto
            -33.5500030518 -0.649993896484 -27.3600006104 -27.0099945068 -33.7200012207 hhcurveto
            -18.4600067139 -82 callgsubr
            -10 rlineto
            303.130004883 hlineto
            -0.149993896484 10 rlineto
            -14 callsubr
            -33.6399993896 -27.3099975586 26.8899993896 33.4499969482 -0.770004272461 hvcurveto
            396.809997559 vlineto
            505.309997559 -481.13999939 rlineto
            9.08000183105 hlineto
            0 -11.5500030518 52.2299957275 75.3500061035 vvcurveto
            516.669998169 vlineto
            33.1900024414 1.05999755859 27.1900024414 26.5899963379 33.4600067139 hhcurveto
            18.4600067139 -19 callgsubr
            10 rlineto
            return
          </CharString>
          <CharString index="11">
            rlineto
            8.66999816895 vlineto
            -6.17999267578 -11.8000030518 -53.9499969482 -6.7200012207 -40.2200012207 hhcurveto
            -318.080001831 hlineto
            -42.7200012207 -0.199996948242 -59.6199951172 10.2100067139 -18.9499969482 7.99000549316 rrcurveto
            -174.399993896 -24 callgsubr
            0.149993896484 rlineto
            11.75 vlineto
            -0.119995117188 61.1399993896 39.0500030518 40.2200012207 61.6399993896 0.75 rrcurveto
            241.86000061 hlineto
            -366.63999939 -649.38999939 -0.179992675781 return
          </CharString>
          <CharString index="12">
            hhcurveto
            -95 callgsubr
            return
          </CharString>
          <CharString index="13">
            rmoveto
            10 -280.869995117 -10 15.7700042725 vlineto
            32.2799987793 0.0500030517578 19.3500061035 -16.4100036621 -0.190002441406 -29.1999969482 rrcurveto
            -152.899993896 vlineto
            -23.5700073242 -63.2299957275 -72.2599945068 -35.6000061035 -73.6799926758 -0.0399932861328 rrcurveto
            -147.270004272 0.259994506836 -80.9700012207 123.669998169 193.149993896 vvcurveto
            203.210006714 87.6499938965 123.529998779 163.559997559 vhcurveto
            106.690002441 -0.0500030517578 94.8500061035 -47.75 37.6600036621 -135.869995117 -32 callgsubr
            29.9199981689 -58.75 -107.050003052 24.25 -109.990005493 hhcurveto
            -235.899993896 -148.119995117 -139.770004272 -223.009994507 -225.13999939 151.160003662 -140.070007324 227.039993286 160.179992676 124.13999939 68.0800018311 60.7299957275 47.0599975586 hvcurveto
            165.259994507 vlineto
            29.0299987793 -0.699996948242 18.1900024414 16.3099975586 32.3300018311 hhcurveto
            return
          </CharString>
          <CharString index="14">
            rmoveto
            178.279998779 -9.44999694824 131.509994507 -298.479995728 18.2200012207 -157.729995728 rrcurveto
            -210.070007324 vlineto
            -34.7100067139 -0.789993286133 -28.9199981689 -27.8300018311 -33.8899993896 hhcurveto
            -13.1100006104 -37 callgsubr
            -12.3099975586 hlineto
            -37 -27 30 32.8600006104 -0.389999389648 hvcurveto
            209.059997559 vlineto
            12.1300048828 153.259994507 143.949996948 309.600006104 141.009994507 3.49000549316 rrcurveto
            10 vlineto
            -162.740005493 6.42999267578 -108.649993896 -185.080001831 -53.8999938965 -152.240005493 -63.5200042725 174.38999939 -142 172.929992676 -244.279998779 -16.4299926758 rrcurveto
            endchar
          </CharString>
          <CharString index="15">
            -15.9600067139 hvcurveto
            -148.800003052 -259.929992676 -142.479995728 260.059997559 rlineto
            28.3300018311 -14.4700012207 20.4199981689 33.4900054932 29.1799926758 hhcurveto
            12.6000061035 9.9700012207 -330.919998169 -9.9700012207 14 hlineto
            40.7400054932 38.9400024414 -27.1000061035 -30.3000030518 19.5899963379 hvcurveto
            190.449996948 -313.949996948 rlineto
            -246.399993896 vlineto
            -34.5599975586 -0.960006713867 -28.2700042725 -27.7400054932 -34.8099975586 -71 callsubr
            245.220001221 vlineto
            196.88999939 313.5 rlineto
            30.7299957275 20.7299957275 37.9900054932 27.6799926758 41.8300018311 hhcurveto
            14 10.0200042725 hlineto
            endchar
          </CharString>
          <CharString index="16">
            rmoveto
            -11.2299957275 hlineto
            -147.449996948 153.259994507 6.74000549316 8 146.850006104 -65.0800018311 136.759994507 64.9900054932 6.74000549316 -8 rlineto
            return
          </CharString>
          <CharString index="17">
            rmoveto
            -31.1399993896 -196.630004883 -78.0099945068 -66.9900054932 -153.869995117 -0.169998168945 rrcurveto
            -148.910003662 3.99000549316 -93.75 123.190002441 197.960006714 vvcurveto
            196.470001221 96.9199981689 122.179992676 158.630004883 vhcurveto
            109.960006714 -0.0700073242188 85.8600006104 -52.2899932861 36.4499969482 -131.309997559 -32 callgsubr
            29.4199981689 -56.6999969482 -85.4600067139 24.75 -106.5 hhcurveto
            -254 -154.539993286 -139.320007324 -223.679992676 -228.289993286 160.13999939 -135.710006714 245.559997559 -1 hvcurveto
            151.009994507 85.1999969482 59.7599945068 73.9900054932 44.8099975586 hvcurveto
            -9.66999816895 172.130004883 rlineto
            endchar
          </CharString>
          <CharString index="18">
            rmoveto
            11.1499938965 hlineto
            153.199996948 -153.259994507 -6.69000244141 -8 -152.600006104 65.0800018311 -142.580001831 -64.9900054932 -6.69000244141 8 rlineto
            return
          </CharString>
          <CharString index="19">
            -67 callsubr
            584.410003662 hlineto
            34.8300018311 0.679992675781 28.3999938965 28.0500030518 35 hhcurveto
            -10 callsubr
            35 -41 callsubr
            -28.0500030518 -34.8300018311 0.660003662109 hvcurveto
            -554.279998779 -62 callsubr
            517.770004272 -59 callsubr
            return
          </CharString>
          <CharString index="20">
            134.350006104 vlineto
            61.3399963379 -1.55999755859 38.8300018311 -39.5599975586 -0.119995117188 -60.9700012207 rrcurveto
            -11.75 -24 callgsubr
            -0.149993896484 rlineto
            174.300003052 vlineto
            -18.4499969482 -7.7799987793 return
          </CharString>
          <CharString index="21">
            -48.7100067139 -35.8300018311 -36.0599975586 -49.1100006104 -0.929992675781 rrcurveto
            return
          </CharString>
          <CharString index="22">
            rmoveto
            24 callgsubr
            0.509994506836 -57.0200042725 9.88999938965 -18.4499969482 7.7799987793 rrcurveto
            -174.300003052 -24 callgsubr
            0.149993896484 rlineto
            11.75 vlineto
            -0.119995117188 60.9700012207 38.8300018311 39.5599975586 61.3399963379 1.55999755859 rrcurveto
            134.470001221 -587.63999939 hlineto
            -34.0800018311 -1.49000549316 -28.0500030518 14 callsubr
            15 callgsubr
            -95 callsubr
            303.919998169 -1 callsubr
            -60 callgsubr
            7 callgsubr
            -36 callgsubr
            34.4600067139 -1.07000732422 hvcurveto
            -78 callsubr
            return
          </CharString>
          <CharString index="23">
            534.050003052 709 rmoveto
            -32.4400024414 -15.5899963379 -49.1799926758 -35.6499938965 -55.7400054932 4.13000488281 -60.4600067139 4.25999450684 -19.9199981689 48.7799987793 -92.9499969482 -0.860000610352 -100.369995117 -0.449996948242 -72.8099975586 -63.9799957275 -16.8899993896 -106.419998169 rrcurveto
            -114.039993286 -18.0099945068 49.7400054932 -68.3399963379 96.6499938965 hhcurveto
            104.600006104 74.25 66.0800018311 110.229995728 14.9400024414 hvcurveto
            6.07000732422 44.8399963379 -4.72999572754 37.5599975586 -14.1199951172 28.8099975586 16.0200042725 -6.7200012207 17.2799987793 -5.63999938965 19.6999969482 -2.32000732422 38.7299957275 -4 37.5800018311 11.6999969482 34.8899993896 21.1199951172 -349.86000061 -662.490005493 rcurveline
            37.2299957275 -16 372.350006104 711.13999939 rlineto
            -309.789993286 -158.61000061 rmoveto
            -12.7799987793 -89.1699981689 -31.5 -53.8200073242 -39.5200042725 -0.490005493164 -35.9400024414 0.0500030517578 -13.2299957275 54.0399932861 14.0399932861 89.9900054932 rrcurveto
            90.3899993896 14.1699981689 30.9299926758 54.25 37.1699981689 hhcurveto
            35.7100067139 13.8099975586 -54.4799957275 -90.7700042725 -12.8500061035 hvcurveto
            309.940002441 -197.440002441 rmoveto
            -100.600006104 -73.1799926758 -64.0500030518 -106.789993286 -17.1199951172 hvcurveto
            -114.039993286 -18.2100067139 49.6600036621 -68.2100067139 96.7100067139 hhcurveto
            106.220001221 74.3300018311 65.9600067139 110.220001221 13.4600067139 hvcurveto
            110.61000061 13.4900054932 -50.8099975586 66.3099975586 -93.9400024414 hhcurveto
            return
          </CharString>
          <CharString index="24">
            rmoveto
            -32.8399963379 -13.6399993896 -46.5200042725 -26.9299926758 -53.4900054932 hhcurveto
            -54.0899963379 -45.9100036621 27.5399932861 32.2299957275 -13.3999938965 hvcurveto
            -11.6499938965 hlineto
            -11.3500061035 -73.5500030518 59.7899932861 -66.5800018311 76.7299957275 0.0500030517578 75.2799987793 -0.0500030517578 61.6100006104 65.3600006104 -11.7200012207 74.7599945068 rrcurveto
            return
          </CharString>
          <CharString index="25">
            -26 callsubr
            -12 callgsubr
            hlineto
            34.8899993896 0.0500030517578 -41 callsubr
            -28.0500030518 0.660003662109 -34.8300018311 rrcurveto
            -554.809997559 vlineto
            -34.6100006104 -0.880004882812 -28.3000030518 -27.7899932861 -34.8399963379 -95 callsubr
            304.070007324 -1 callsubr
            -12.4600067139 hlineto
            -35.1900024414 -65 callgsubr
            583.369995117 vlineto
            12.5399932861 return
          </CharString>
          <CharString index="26">
            12.6499938965 13 callsubr
            -303.759994507 -37 callsubr
            -10 rlineto
            return
          </CharString>
          <CharString index="27">
            hhcurveto
            -81 callsubr
            return
          </CharString>
          <CharString index="28">
            11 callsubr
            -9.91000366211 -66 callsubr
            33.0800018311 27.1799926758 -25.0599975586 -32.1600036621 3.44000244141 hvcurveto
            -560.13999939 vlineto
            -34.7700042725 -0.729995727539 -28.3699951172 -27.9799957275 -34.9600067139 -95 callsubr
            362.820007324 hlineto
            236.240005493 147.190002441 133.809997559 215.839996338 216.240005493 -147.190002441 134.020004272 -236.240005493 hvcurveto
            -135.839996338 -42.1799926758 22 callsubr
            142.940002441 89.5899963379 -118.029998779 -190.059997559 -189.470001221 -89.1999969482 -117.660003662 -143.339996338 hvcurveto
            -123.699996948 hlineto
            endchar
          </CharString>
          <CharString index="29">
            586.809997559 -87 callsubr
            -57.0099945068 -54 callgsubr
            return
          </CharString>
          <CharString index="30">
            12.6499938965 hlineto
            return
          </CharString>
          <CharString index="31">
            -64.8399963379 -62.0700073242 -99.8899993896 hhcurveto
            return
          </CharString>
          <CharString index="32">
            -7.82000732422 -57.5700073242 -9.96000671387 -43.1000061035 -0.410003662109 rrcurveto
            -383.509994507 -104 callsubr
            return
          </CharString>
          <CharString index="33">
            -83 callgsubr
            10 rlineto
            -89 callgsubr
            return
          </CharString>
          <CharString index="34">
            rmoveto
            -181.820007324 -45 -104.929992676 212 -64.9900054932 161.210006714 -145.309997559 358.179992676 rcurveline
            -74.5200042725 180.910003662 -117.259994507 134.710006714 -206.259994507 -107.330001831 2.25 -10.1000061035 rcurveline
            111.050003052 40.4799957275 62.3099975586 -82.4600067139 43.2799987793 -96.8000030518 -223.289993286 -508.320007324 rcurveline
            -38.3899993896 -21.3099975586 -33.8399963379 -16.1000061035 -60 callsubr
          </CharString>
          <CharString index="35">
            51 661.830001831 247.399993896 -105 callsubr
            return
          </CharString>
          <CharString index="36">
            hhcurveto
            -12.6499938965 hlineto
            -0.160003662109 -10 rlineto
            303.75 -73 callgsubr
            return
          </CharString>
          <CharString index="37">
            rmoveto
            102.080001831 -13.75 84.3800048828 117.380004883 -47.4199981689 105.63999939 -22.5399932861 50.8699951172 -64.9100036621 11.2200012207 -33.5500030518 -32.3800048828 -29.1399993896 -27.8300018311 4.53999328613 -50.7400054932 28.0099945068 -32.0500030518 40.3500061035 -46.1399993896 -18.2200012207 -52.7899932861 -46.9799957275 -17.9199981689 rrcurveto
            return
          </CharString>
          <CharString index="38">
            rmoveto
            -195.800003052 -75 -79.1900024414 10 -436.350006104 147 -36.5 12 -5.49000549316 20.5099945068 -0.0299987792969 36.3399963379 rrcurveto
            574.289993286 vlineto
            0.929992675781 35.4199981689 -18 callsubr
            34.9900054932 0.0500030517578 rrcurveto
            -10 callsubr
            34.5099945068 -0.0500030517578 -17 callgsubr
            0.779998779297 -35.4199981689 rrcurveto
            -17 callsubr
            -35.2400054932 -0.740005493164 -28.6300048828 -27.6399993896 -34.6100006104 hhcurveto
            -12.7200012207 -82 callgsubr
            -10 rlineto
            97.9199981689 76.1199951172 -22 -34 73.8999938965 hvcurveto
            230.699996948 -103 297.710006714 -204 210.740005493 257 rrcurveto
            return
          </CharString>
          <CharString index="39">
            -12.8899993896 -89.6199951172 -31.5800018311 -53.8200073242 -39.5500030518 -0.0399932861328 -35.8000030518 0.0500030517578 -13.1499938965 54.0399932861 14.0399932861 89.9900054932 rrcurveto
            90.3899993896 14.0200042725 30.8500061035 54.25 37.1699981689 hhcurveto
            36.0099945068 13.8899993896 -54.4700012207 -90.7700042725 -13.0099945068 hvcurveto
            return
          </CharString>
          <CharString index="40">
            -76 callsubr
            -131.279998779 return
          </CharString>
          <CharString index="41">
            rlineto
            -77 callsubr
            return
          </CharString>
          <CharString index="42">
            rmoveto
            30.4400024414 29.7899932861 17.3099975586 20.4100036621 37.8300018311 -4.86000061035 49.1300048828 -6.16999816895 54.2799987793 -44.5500030518 60.5800018311 -9.2799987793 68.7899932861 -10.2299957275 45.8300018311 53.4499969482 22.7799987793 22.7299957275 -37.9799957275 36.1000061035 rcurveline
            -25.6399993896 -20.4499969482 -32.9400024414 -28.5700073242 -35.9700012207 4.11000061035 -39.6499938965 4.7799987793 -62.4400024414 48.1000061035 -62.5 7.11000061035 -71.7700042725 8.38000488281 -46.6999969482 -59.7599945068 -10.8600006104 -15.2799987793 rrcurveto
            return
          </CharString>
          <CharString index="43">
            -22.8399963379 -65.6799926758 vvcurveto
            -86.4700012207 -79.6100006104 -44.1799926758 -96.0099945068 2.25999450684 vhcurveto
            -1.17999267578 -5.66000366211 rlineto
            128.089996338 -51.7599945068 158.649993896 45.2200012207 134.699996948 vvcurveto
            64.4400024414 -49.1499938965 29.5299987793 -44.0099945068 7.75999450684 vhcurveto
            38.5599975586 3.97999572754 38.3500061035 28.7700042725 47.1999969482 vvcurveto
            59.8999938965 -54.5500030518 34.6199951172 -84.9299926758 0.410003662109 vhcurveto
            -57.7100067139 0.289993286133 -47.3800048828 -14.7700042725 -26.3699951172 -23.2599945068 rrcurveto
            return
          </CharString>
          <CharString index="44">
            -1 callsubr
            -12.6600036621 hlineto
            -34.7200012207 -0.00999450683594 -36 callgsubr
            -1.07000732422 34.4600067139 rrcurveto
            return
          </CharString>
          <CharString index="45">
            vlineto
            -34.8300018311 -0.649993896484 -100 callsubr
            return
          </CharString>
          <CharString index="46">
            -88 callgsubr
            endchar
          </CharString>
          <CharString index="47">
            -27.9700012207 hhcurveto
            -9 -10 214.419998169 9.91000366211 -8.78999328613 hlineto
            -25.8200073242 -28.8500061035 22.7599945068 40.0200042725 16.4199981689 hvcurveto
            52.2200012207 126.710006714 rlineto
            236.789993286 hlineto
            31.9799957275 -85.2899932861 112.86000061 -296.100006104 217.199996948 -89 174.63999939 88 rlinecurve
            -755.940002441 424.539993286 rmoveto
            107.429992676 258.229995728 9.4700012207 -25.8300018311 8.64999389648 -24.9400024414 8.38999938965 -22.0099945068 -44 callgsubr
          </CharString>
          <CharString index="48">
            hlineto
            46.1499938965 -46 callgsubr
            return
          </CharString>
          <CharString index="49">
            vlineto
            -108 -12.5 -79 -101.669998169 -43 vhcurveto
            1.96000671387 -10 rlineto
            184.910003662 -38 77.3699951172 126 152 vvcurveto
            257.380004883 314.550003052 -255.559997559 vlineto
            -34.3500061035 -1.61999511719 -28.1799926758 -27.4900054932 -34.6499938965 -11 callsubr
            -36.0099945068 0.00999450683594 -27.5500030518 29.2299957275 -0.5 33.6399993896 rrcurveto
            return
          </CharString>
          <CharString index="50">
            -16 callgsubr
            -593.919998169 vlineto
            0.00999450683594 -92.2799987793 -32.0599975586 -96 -84.8999938965 -36 rrcurveto
            -9 vlineto
            138.770004272 -13 128.38999939 96 147.460006714 vvcurveto
            596.949996948 vlineto
            34.7400054932 0.770004272461 28.3500061035 27.9400024414 34.9299926758 -14 callgsubr
            endchar
          </CharString>
          <CharString index="51">
            rmoveto
            -58 callgsubr
            35 -41 callsubr
            -28.0500030518 -34.8300018311 0.660003662109 hvcurveto
            -544.270004272 vlineto
            0.00999450683594 -146.919998169 -66.7899932861 -112 -130.990005493 25 -3 -10 rcurveline
            189.529998779 -102 161.460006714 121 222.100006104 vvcurveto
            547.330001831 vlineto
            34.7299957275 0.770004272461 28.3500061035 27.9299926758 34.9199981689 -14 callgsubr
            endchar
          </CharString>
          <CharString index="52">
            406.600006104 524.339996338 rmoveto
            72.4199981689 -9.66999816895 59.6300048828 83.0700073242 -33.5099945068 75.4900054932 -16.1000061035 36.3899993896 -46.3699951172 7.67999267578 -23.4199981689 -23.5 -20.3500061035 -20.1399993896 4.02000427246 -35.25 19.6600036621 -22.5099945068 28.2400054932 -31.9499969482 3 callsubr
            -38.6999969482 -34.6799926758 -12.8500061035 rrcurveto
            return
          </CharString>
          <CharString index="53">
            0.139999389648 return
          </CharString>
          <CharString index="54">
            rmoveto
            -10.0200042725 12.6000061035 vlineto
            27.2299957275 23.8099975586 -33.5500030518 return
          </CharString>
          <CharString index="55">
            rmoveto
            5.89999389648 hlineto
            -1.75 69.3300018311 18.9199981689 28.4700012207 45.6600036621 3.66999816895 32.7700042725 2.33999633789 31.8899993896 -15.1499938965 3.2200012207 -41.9700012207 3.80999755859 -53.4100036621 -44.6399993896 -40.7799987793 -55.4600067139 1.50999450684 -1.08000183105 0 callsubr
            rcurveline
            55.0500030518 -0.580001831055 return
          </CharString>
          <CharString index="56">
            hlineto
            -26.1900024414 -20.7700042725 2.19000244141 2.94999694824 -21.2100067139 hvcurveto
            4.9700012207 -35.9499969482 -37.2599945068 3.89999389648 -39.4499969482 hhcurveto
            -245.039993286 -151.630004883 -139.160003662 -223.619995117 -226.050003052 154.660003662 -139.160003662 234.720001221 51.2700042725 45.1699981689 9 3 38.6699981689 hvcurveto
            2 27.5099945068 return
          </CharString>
          <CharString index="57">
            rmoveto
            72.4199981689 -66 callgsubr
            return
          </CharString>
          <CharString index="58">
            rmoveto
            97.8600006104 -13 80.5800018311 112 -45.1399993896 101.350006104 -21.6100006104 48.7700042725 -62.2299957275 10.75 -32.1699981689 -31.0399932861 -27.9400024414 -26.6799926758 4.35000610352 -48.6499938965 26.8600006104 -30.7200012207 38.6799926758 -43.7700042725 -17.4700012207 -51 -45.0399932861 -17 rrcurveto
            endchar
          </CharString>
          <CharString index="59">
            -39.9400024414 return
          </CharString>
          <CharString index="60">
            -36 callsubr
            0.130004882812 -86 callsubr
            return
          </CharString>
          <CharString index="61">
            vlineto
            0.00999450683594 -132.710006714 -31.6900024414 -33 -55.9199981689 -40 5.30999755859 -8 rcurveline
            115.800003052 -16 105.369995117 69 132 vvcurveto
            650.830001831 vlineto
            29.75 0.470001220703 24.9700012207 23.3200073242 30.4700012207 hhcurveto
            17.4600067139 -19 callgsubr
            11.1399993896 rlineto
            endchar
          </CharString>
          <CharString index="62">
            vlineto
            1.49000549316 35.4600067139 28.5200042725 26.2400054932 34.0099945068 0.0500030517578 rrcurveto
            -10 callgsubr
            34.6799926758 0.0500030517578 28.2599945068 -27.6999969482 1 -34.5299987793 rrcurveto
            return
          </CharString>
          <CharString index="63">
            -0.139999389648 return
          </CharString>
          <CharString index="64">
            hlineto
            59.9799957275 -2.5 37.8300018311 -39.3300018311 -13 callgsubr
            -60.1900024414 rrcurveto
            -11.75 vlineto
            10.8899993896 -0.149993896484 rlineto
            174.839996338 vlineto
            -18.6000061035 -7.82000732422 -57.5700073242 -9.96000671387 -43.1000061035 -0.410003662109 rrcurveto
            return
          </CharString>
          <CharString index="65">
            -9.94000244141 return
          </CharString>
          <CharString index="66">
            28.3999938965 return
          </CharString>
          <CharString index="67">
            -38 callsubr
            -31 -76 callsubr
            return
          </CharString>
          <CharString index="68">
            -49 callgsubr
            -6 6 rcurveline
            -39 callgsubr
            return
          </CharString>
          <CharString index="69">
            -99.2400054932 return
          </CharString>
          <CharString index="70">
            hlineto
            -74 callgsubr
            return
          </CharString>
          <CharString index="71">
            hlineto
            48.4299926758 -1.5 35.2599945068 -35.8699951172 -0.130004882812 -48.3000030518 rrcurveto
            -8.66000366211 vlineto
            9.77000427246 -0.119995117188 rlineto
            231.11000061 vlineto
            -9.77000427246 -0.130004882812 rlineto
            -8.66000366211 vlineto
            return
          </CharString>
          <CharString index="72">
            rmoveto
            95.8899993896 35.3399963379 23.9900054932 127.119995117 -2.57000732422 51.5399932861 -107.160003662 -14 rcurveline
            8.2799987793 -72.6699981689 -3.7799987793 -34.4199981689 -28.4499969482 -87.6699981689 rrcurveto
            endchar
          </CharString>
          <CharString index="73">
            28.3999938965 28.0500030518 35 -80 callsubr
            12.6499938965 hlineto
            34.5800018311 28.1300048828 -27.3800048828 -34.25 1.30999755859 hvcurveto
            return
          </CharString>
          <CharString index="74">
            12.0099945068 -35.9199981689 -34.6699981689 -31.1999969482 -29.7899932861 4.86000061035 -54.3300018311 29.9900054932 -34.3099975586 43.1999969482 -48.8300018311 -19.5 -57 -50.2899932861 -19 rrcurveto
            return
          </CharString>
          <CharString index="75">
            vhcurveto
            -70 callgsubr
            return
          </CharString>
          <CharString index="76">
            -196.350006104 29.9900054932 -54.0500030518 -57.2100067139 30.0899963379 -136.410003662 32.8000030518 -20.0700073242 -68.0200042725 20.0700073242 -67.6999969482 136.410003662 32.5599975586 return
          </CharString>
          <CharString index="77">
            101.789993286 10.8099975586 91.9600067139 101.669998169 36.4600067139 -1.96000671387 9.61000061035 rcurveline
            -158.199996948 21.5 -102.289993286 -109.320007324 -0.25 -152 rrcurveto
            return
          </CharString>
          <CharString index="78">
            -9 callsubr
            7 -8 callgsubr
            return
          </CharString>
          <CharString index="79">
            39.9400024414 32.3800048828 return
          </CharString>
          <CharString index="80">
            rmoveto
            -72 callgsubr
            return
          </CharString>
          <CharString index="81">
            rmoveto
            -21 callgsubr
            return
          </CharString>
          <CharString index="82">
            -51.6799926758 -72.4900054932 -65.3899993896 -66.4199981689 -86.1799926758 rrcurveto
            return
          </CharString>
          <CharString index="83">
            9.63000488281 hlineto
            return
          </CharString>
          <CharString index="84">
            -7.92999267578 -23.0700073242 hhcurveto
            -27.2400054932 243.009994507 -5.86000061035 hlineto
            -288.460006714 -293.869995117 rlineto
            -6.25999450684 189.470001221 return
          </CharString>
          <CharString index="85">
            rmoveto
            -20 callsubr
            return
          </CharString>
          <CharString index="86">
            57.1399993896 return
          </CharString>
          <CharString index="87">
            -39 callgsubr
            -2.33999633789 36 return
          </CharString>
          <CharString index="88">
            vlineto
            322.009994507 -153.13999939 -322.009994507 -153.580001831 rlineto
            -61.9600067139 vlineto
            401.720001221 188.570007324 rlineto
            53.5 vlineto
            return
          </CharString>
          <CharString index="89">
            28.1600036621 27.4100036621 return
          </CharString>
          <CharString index="90">
            -554.279998779 vlineto
            return
          </CharString>
          <CharString index="91">
            vlineto
            29.2799987793 1.38999938965 24.1399993896 23.3200073242 29.6300048828 hhcurveto
            10.8999938965 hlineto
            -54 callsubr
            10 rlineto
            return
          </CharString>
          <CharString index="92">
            11.0700073242 rlineto
            -17.4600067139 hlineto
            -31.8999938965 -25.8899993896 25.5700073242 31.75 -0.600006103516 hvcurveto
            return
          </CharString>
          <CharString index="93">
            -18.4600067139 hlineto
            return
          </CharString>
          <CharString index="94">
            195.11000061 rmoveto
            -29.0800018311 -93.6000061035 -67.4100036621 -58.2200012207 -89.1100006104 -0.550003051758 rrcurveto
            return
          </CharString>
          <CharString index="95">
            rmoveto
            109.289993286 -15 89.9900054932 125 -50.4100036621 113.449996948 -24.1300048828 54.4600067139 return
          </CharString>
          <CharString index="96">
            -95 callsubr
            303.800003052 -1 callsubr
            -60 callgsubr
            return
          </CharString>
          <CharString index="97">
            12.6499938965 13 callsubr
            -303.789993286 -2 callgsubr
            return
          </CharString>
          <CharString index="98">
            -50 callsubr
            37 -46.3699951172 return
          </CharString>
          <CharString index="99">
            -29 callgsubr
            rrcurveto
            return
          </CharString>
          <CharString index="100">
            hlineto
            -38.2400054932 -216.880004883 rlineto
            50.2100067139 hlineto
            38.2400054932 216.880004883 rlineto
            return
          </CharString>
          <CharString index="101">
            -13.6300048828 hlineto
            -41.9900054932 -38.4100036621 27.4400024414 30.8600006104 -21 hvcurveto
            return
          </CharString>
          <CharString index="102">
            35.8200073242 203.119995117 rlineto
            -50.2100067139 hlineto
            -35.8200073242 -203.119995117 rlineto
            return
          </CharString>
          <CharString index="103">
            vlineto
            28.8000030518 1.36999511719 23.3300018311 23.7700042725 28.9400024414 hhcurveto
            return
          </CharString>
          <CharString index="104" raw="1">
            620aff00 1c0ccdae 7d1d0b 
          </CharString>
          <CharString index="105">
            -0.580001831055 -24.4600067139 return
          </CharString>
          <CharString index="106">
            -82 callgsubr
            10 rlineto
            return
          </CharString>
          <CharString index="107">
            -5.89999389648 return
          </CharString>
          <CharString index="108">
            -16.0899963379 return
          </CharString>
          <CharString index="109">
            -322.009994507 153.580001831 322.009994507 153.13999939 rlineto
            return
          </CharString>
          <CharString index="110">
            -11.9700012207 return
          </CharString>
          <CharString index="111">
            39.3800048828 51.2799987793 51.2799987793 39.3800048828 return
          </CharString>
          <CharString index="112">
            57.5099945068 30.2599945068 -30.3000030518 -54.4600067139 return
          </CharString>
          <CharString index="113">
            -11.9799957275 return
          </CharString>
          <CharString index="114">
            71.4700012207 return
          </CharString>
          <CharString index="115">
            -71.4700012207 return
          </CharString>
          <CharString index="116">
            -121.830001831 25 callsubr
            return
          </CharString>
          <CharString index="117">
            -175.470001221 0.100006103516 -175.470001221 return
          </CharString>
          <CharString index="118">
            rmoveto
            -74 callgsubr
            return
          </CharString>
          <CharString index="119">
            -0.100006103516 return
          </CharString>
          <CharString index="120">
            -37 callsubr
            10 rlineto
            return
          </CharString>
          <CharString index="121">
            -27.1799926758 return
          </CharString>
          <CharString index="122">
            121.830001831 return
          </CharString>
          <CharString index="123">
            -18.5800018311 return
          </CharString>
          <CharString index="124">
            -40.1199951172 return
          </CharString>
          <CharString index="125">
            hlineto
            32.3699951172 183.570007324 rlineto
            return
          </CharString>
          <CharString index="126">
            hlineto
            46.1399993896 -46 callgsubr
            return
          </CharString>
          <CharString index="127">
            -10.2100067139 -43.3600006104 hhcurveto
            return
          </CharString>
          <CharString index="128">
            -260.039993286 hlineto
            -26.8000030518 return
          </CharString>
          <CharString index="129">
            rmoveto
            -1 callgsubr
            return
          </CharString>
          <CharString index="130">
            -32.1999969482 return
          </CharString>
          <CharString index="131">
            0.179992675781 return
          </CharString>
          <CharString index="132">
            8 callgsubr
            8 callgsubr
            return
          </CharString>
          <CharString index="133">
            -30.6699981689 54.6300048828 return
          </CharString>
        <CharString name=".notdef">
          -523 endchar
        </CharString>
        <CharString name="A">
          -68 963.619995117 -173 rmoveto
          -181.820007324 -45 -104.929992676 212 -64.9900054932 161.210006714 -145.309997559 358.179992676 rcurveline
          -74.5200042725 180.910003662 -117.259994507 134.710006714 -206.259994507 -107.330001831 2.25 -10.1000061035 rcurveline
          111.039993286 40.4799957275 62.3099975586 -82.4600067139 43.2799987793 -96.8000030518 -223.289993286 -508.320007324 rcurveline
          -38.3899993896 -21.3099975586 -33.8399963379 -16.1000061035 -27.9700012207 hhcurveto
          -9 -10 214.419998169 9.91000366211 -8.78999328613 hlineto
          -25.8200073242 -28.8500061035 22.7599945068 40.0200042725 16.4199981689 hvcurveto
          52.2200012207 126.710006714 rlineto
          236.789993286 hlineto
          31.9799957275 -85.2899932861 112.86000061 -296.100006104 217.199996948 -89 174.649993896 88 rlinecurve
          -755.940002441 424.539993286 rmoveto
          107.429992676 258.229995728 9.4700012207 -25.8300018311 8.64999389648 -24.9400024414 8.38999938965 -22.0200042725 -44 callgsubr
        </CharString>
        <CharString name="AE">
          140 902.449996948 -13 callsubr
          -203.759994507 275.660003662 164.029998779 hlineto
          47.2700042725 -42 callgsubr
          -48.1100006104 16 callgsubr
          rrcurveto
          -162.470001221 296.770004272 69.0399932861 hlineto
          59.3999938965 -1.33000183105 37.2400054932 -37.8099975586 -0.119995117188 -58.8999938965 rrcurveto
          -10.5399932861 vlineto
          10.0599975586 -44 callsubr
          rlineto
          169.600006104 vlineto
          -7.99000549316 -18.9499969482 -59.6499938965 20 callsubr
          1.13000488281 12 callsubr
          rlineto
          -234.100006104 -11.1300048828 4.36000061035 hlineto
          20.4600067139 11.8500061035 -18.8500061035 -18.8500061035 -8.61000061035 hvcurveto
          -379.830001831 -572.460006714 -92 -137.589996338 -79 -24 -95 2 rlinecurve
          -1 -10 107 -38 139 19 98.8600006104 164.5 rlinecurve
          157.740005493 263.899993896 rlineto
          146.070007324 21 callsubr
          -1.13000488281 -7 callgsubr
          563.399993896 18 callgsubr
          -669.660003662 165.429992676 rmoveto
          121.350006104 203.020004272 rlineto
          -203.020004272 vlineto
          endchar
        </CharString>
        <CharString name="Aacute">
          -68 333.330001831 778.240005493 -106 callgsubr
          637.289993286 -958.240005493 -101 callgsubr
          -22.0200042725 -44 callgsubr
        </CharString>
        <CharString name="Abreve">
          -68 457.279998779 920.179992676 -83 callsubr
          494.690002441 -1093.17999268 -73 callsubr
        </CharString>
        <CharString name="Acircumflex">
          -68 337.240005493 931.320007324 -89 callsubr
          770.600006104 -951.160003662 -101 callgsubr
          -22.0099945068 rlinecurve
          69.5200042725 -185.440002441 rlineto
          endchar
        </CharString>
        <CharString name="Adieresis">
          -68 224.809997559 774.940002441 -106 callsubr
          505.380004883 -947.940002441 -101 callgsubr
          -22.0099945068 rlinecurve
          69.5200042725 -185.440002441 rlineto
          endchar
        </CharString>
        <CharString name="Agrave">
          -68 362.770004272 787.009994507 -99 callsubr
          607.850006104 -953.009994507 -101 callgsubr
          -22.0099945068 rlinecurve
          69.5200042725 -185.440002441 rlineto
          endchar
        </CharString>
        <CharString name="Amacron">
          -68 209.36000061 811.429992676 -63 callgsubr
          754.259994507 -1049.78999329 -101 callgsubr
          -22.0099945068 rlinecurve
          69.5200042725 -185.440002441 rlineto
          endchar
        </CharString>
        <CharString name="Aogonek">
          -74 957.869995117 -156 rmoveto
          -181.800003052 -31 -94.1900024414 184 -68.2299957275 159.309997559 -147.339996338 344.229995728 rcurveline
          -87.3999938965 201.729995728 -123.179992676 96.5200042725 -205.38999939 -94.8099975586 2.38999938965 -10.0599975586 rcurveline
          110.929992676 31.7200012207 69.8699951172 -77.3300018311 47.8000030518 -89.3300018311 -217.220001221 -494.479995728 rcurveline
          -38.3899993896 -21.3099975586 -33.8399963379 1 callsubr
          -27.9700012207 hhcurveto
          -9 -10 214.419998169 9.91000366211 -8.78999328613 hlineto
          -25.8200073242 -28.8500061035 22.7599945068 40.0200042725 16.4199981689 hvcurveto
          52.2200012207 126.710006714 rlineto
          237.300003052 hlineto
          33.5099945068 -85.1199951172 16.0500030518 -40.5299987793 17.7299957275 -36.0800018311 19.0800018311 -31.8899993896 rlinecurve
          -51.5800018311 3.69999694824 -55.9299926758 -22.4799957275 -11.8899993896 -59 -27.0200042725 -127 182.509994507 -42 27.6699981689 109 -5.05000305176 7 rcurveline
          -55.3699951172 -37 -55.3099975586 36 3.2799987793 58 2.38999938965 30 14.1999969482 24 38.4799957275 9 119.699996948 -191 170.339996338 -33 147.800003052 63 rrcurveto
          -750.330001831 407.539993286 rmoveto
          104.039993286 250.100006104 10.0200042725 -23.5399932861 8.80999755859 -22.6999969482 7.96000671387 -20.0800018311 rlinecurve
          72.3500061035 -183.770004272 rlineto
          endchar
        </CharString>
        <CharString name="Aring">
          -68 343.669998169 946.960006714 -84 callgsubr
          620.619995117 -1095.1499939 -73 callsubr
        </CharString>
        <CharString name="Atilde">
          -68 522.88999939 905.199996948 -98 callgsubr
          452.169998169 -1078.19999695 -101 callgsubr
          -22.0099945068 rlinecurve
          69.5200042725 -185.440002441 rlineto
          endchar
        </CharString>
        <CharString name="B">
          -82 52.3399963379 700 11 callsubr
          -9.89999389648 rlineto
          12.6999969482 hlineto
          33.4199981689 29.25 -25.8200073242 -36.1000061035 1.32000732422 hvcurveto
          -549.369995117 vlineto
          -67.0800018311 42.7299957275 -50.8500061035 76.3600006104 -5.11999511719 127.309997559 -10.1199951172 -1.38000488281 rcurveline
          -20 -259.399993896 172.130004883 -71.3600006104 166.63999939 -7 201.789993286 -9 161.960006714 79.6100006104 16 callgsubr
          150.039993286 -1.2200012207 109.679992676 -84.8200073242 71.0700073242 -109.259994507 5.42999267578 47.1499938965 18 36.8600006104 53.8600006104 -0.610000610352 64.8200073242 rrcurveto
          113.539993286 -1.2200012207 -117.38999939 56.9600067139 -140.419998169 hhcurveto
          -26.4799957275 -43.0700073242 rmoveto
          88.25 -2.16999816895 34.9199981689 -42.8300018311 2.33000183105 -88.0800018311 0.610000610352 -55.8600006104 -23.7100067139 -79.9299926758 -68.6999969482 0.270004272461 0.229995727539 -9.36999511719 rcurveline
          83 0.100006103516 105.289993286 -35.2799987793 3.03999328613 -127.289993286 3.03999328613 -112.070007324 -75.25 -72.7100067139 -126.029998779 24 callsubr
          rrcurveto
          -8.91000366211 -9.02000427246 0.289993286133 0.600006103516 -9.07000732422 hvcurveto
          endchar
        </CharString>
        <CharString name="C">
          53 798.820007324 391.240005493 -87 callgsubr
          -210.63999939 162.570007324 -151.320007324 278.009994507 218.649993896 151.160003662 141.070007324 264.210006714 -26.3399963379 hvcurveto
          endchar
        </CharString>
        <CharString name="Cacute">
          53 437.800003052 762.169998169 -106 callgsubr
          368.020004272 -377.919998169 -87 callgsubr
          -210.63999939 162.570007324 -151.320007324 278.009994507 218.649993896 151.160003662 141.070007324 264.210006714 -26.3399963379 hvcurveto
          endchar
        </CharString>
        <CharString name="Ccaron">
          53 454.240005493 764.039993286 -91 callsubr
          206.169998169 -525.960006714 -87 callgsubr
          -210.63999939 162.570007324 -151.320007324 278.009994507 218.649993896 151.160003662 141.070007324 264.210006714 -26.3399963379 hvcurveto
          endchar
        </CharString>
        <CharString name="Ccedilla">
          53 798.820007324 391.240005493 -87 callgsubr
          -200.570007324 147.399993896 -146.789993286 254.11000061 -13.6000061035 hvcurveto
          -45.0599975586 -58 -81 callgsubr
          37.4900054932 43 rcurveline
          214.460006714 3 147.279998779 141.210006714 -26.0200042725 261.070007324 rrcurveto
          endchar
        </CharString>
        <CharString name="Cdotaccent">
          53 447.600006104 764.229995728 -91 callgsubr
          351.220001221 -372.990005493 -87 callgsubr
          -210.63999939 162.570007324 -151.320007324 278.009994507 218.649993896 151.160003662 141.070007324 264.210006714 -26.3399963379 hvcurveto
          endchar
        </CharString>
        <CharString name="D">
          89 -90 507.289993286 -85 callgsubr
        </CharString>
        <CharString name="Dcaron">
          89 448.789993286 764.050003052 -91 callsubr
          -677.210006714 -409.910003662 -85 callgsubr
        </CharString>
        <CharString name="Dcroat">
          89 308.380004883 795.36000061 -63 callgsubr
          -398.380004883 -353.419998169 -85 callgsubr
        </CharString>
        <CharString name="Delta">
          -121 321 714 rmoveto
          -316 -704.419998169 rlineto
          -9.58000183105 642 10 vlineto
          -316 704 rlineto
          190.529998779 -672.279998779 rmoveto
          -454.779998779 hlineto
          230.089996338 521.350006104 rlineto
          endchar
        </CharString>
        <CharString name="E">
          -103 659.630004883 204.039993286 rmoveto
          -107 callgsubr
          581.699996948 19 callsubr
          endchar
        </CharString>
        <CharString name="Eacute">
          -103 256.619995117 762.169998169 -106 callgsubr
          410.009994507 -565.130004883 rmoveto
          -107 callgsubr
          581.699996948 -38 callgsubr
        </CharString>
        <CharString name="Ecaron">
          -103 273.059997559 764.039993286 -91 callsubr
          248.160003662 -713.160003662 rmoveto
          -107 callgsubr
          581.699996948 -38 callgsubr
        </CharString>
        <CharString name="Ecircumflex">
          -103 260.520004272 915.25 -89 callsubr
          543.330001831 -558.050003052 rmoveto
          -107 callgsubr
          581.699996948 -38 callgsubr
        </CharString>
        <CharString name="Edieresis">
          -103 148.089996338 758.869995117 -106 callsubr
          278.100006104 -554.830001831 rmoveto
          -107 callgsubr
          581.699996948 -38 callgsubr
        </CharString>
        <CharString name="Edotaccent">
          -103 266.419998169 764.229995728 -91 callgsubr
          393.210006714 -560.190002441 rmoveto
          -107 callgsubr
          581.699996948 -38 callgsubr
        </CharString>
        <CharString name="Egrave">
          -103 286.050003052 770.940002441 rmoveto
          -33.7799987793 58.3200073242 -66.5700073242 66.8600006104 -43.4900054932 38.9600067139 -35.5099945068 -18 -19.9400024414 -27.0700073242 -12.3000030518 -36.1399993896 59.5 -37.8399963379 79.5299987793 -36.6600036621 65.5700073242 -15.4400024414 rrcurveto
          380.580001831 -559.899993896 rmoveto
          -107 callgsubr
          581.699996948 -38 callgsubr
        </CharString>
        <CharString name="Emacron">
          -103 132.649993896 795.36000061 -63 callgsubr
          526.990005493 -656.679992676 rmoveto
          -107 callgsubr
          581.699996948 -38 callgsubr
        </CharString>
        <CharString name="Eng">
          89 538.619995117 -23 callgsubr
          -402.429992676 vlineto
          -478.300003052 457.600006104 -88.8000030518 94.1399993896 -141.509994507 111.210006714 -150 -87.6699981689 rlinecurve
          5 -9.83000183105 135 47.3099975586 137.160003662 -149.11000061 70.3399963379 -79.6499938965 rlinecurve
          -549.130004883 vlineto
          -29.6900024414 -0.699996948242 -24.9499969482 -23.25 -30.4199981689 hhcurveto
          -17.4600067139 hlineto
          -0.149993896484 -11.0700073242 rlineto
          288.36000061 hlineto
          -0.149993896484 -15 callsubr
          407.570007324 vlineto
          372.490005493 -357.630004883 rlineto
          -104.61000061 -46 callsubr
        </CharString>
        <CharString name="Eogonek">
          -103 668.929992676 -120 -22 callsubr
          15.8800048828 29 54.8300018311 13 rrcurveto
          2.11999511719 -59 callsubr
          -10 hlineto
          -107 callgsubr
          528.919998169 hlineto
          -43.9299926758 -9 -39.3099975586 -29 -4.78999328613 -51 -49 callgsubr
          rrcurveto
          endchar
        </CharString>
        <CharString name="Eth">
          81 -98 507.289993286 rmoveto
          33 72.4499969482 50 62.8200073242 155.509994507 11.6399993896 rrcurveto
          -283.119995117 -76.8600006104 4 callgsubr
          76.8600006104 -259.289993286 vlineto
          -33.3200073242 -2.28999328613 -27.7100067139 -26.3300018311 -33.9100036621 -95 callsubr
          362.679992676 hlineto
          235.979995728 -0.0200042724609 147.63999939 133.880004883 -0.199996948242 216.039993286 0.199996948242 216.070007324 -147.660003662 132.080001831 -235.960006714 1.78999328613 -89.1300048828 0.779998779297 -77.0599975586 0.660003662109 -66.0800018311 -0.580001831055 -162.770004272 -1.46000671387 -107.429992676 -51.6699981689 -32 -136.309997559 rrcurveto
          398.630004883 -182.350006104 rmoveto
          131.589996338 1 callgsubr
          -131.589996338 285.440002441 -1 callgsubr
          142.899993896 1.07000732422 89.8300018311 -118.169998169 -0.190002441406 -189.449996948 0.190002441406 -190.179992676 -90.2200012207 -117.710006714 -142.509994507 0.270004272461 rrcurveto
          -123.699996948 hlineto
          endchar
        </CharString>
        <CharString name="Euro">
          -65 669.839996338 190.410003662 rmoveto
          -109.009994507 -27.1499938965 -59.6600036621 -52.2799987793 -109.179992676 hhcurveto
          -127.220001221 -80.6699981689 93.8699951172 148.479995728 -20.7400054932 hvcurveto
          303.059997559 hlineto
          14.2200012207 1 callgsubr
          rlineto
          -321.470001221 hlineto
          -0.740005493164 12.1699981689 -0.380004882812 12.4700012207 -0.00999450683594 12 callgsubr
          rrcurveto
          32.6100006104 346.210006714 vlineto
          14.8300018311 1 callgsubr
          rlineto
          -356.289993286 hlineto
          150.119995117 19.7599945068 80.3800048828 96 120.570007324 hhcurveto
          71.1199951172 99.2799987793 -29.1399993896 -119.699996948 -12.0399932861 hvcurveto
          10 hlineto
          44.6999969482 131.649993896 rlineto
          42.0599975586 -33.6300048828 -103.949996948 17.25 -85.8000030518 hhcurveto
          -192.529998779 -142.259994507 -120.279998779 -167.970001221 -33.0399932861 hvcurveto
          -100.199996948 hlineto
          -15 4 callgsubr
          rlineto
          109.320007324 hlineto
          -0.929992675781 -11.0399932861 -0.479995727539 -11.2100067139 -0.00999450683594 -11.3600006104 0.0500030517578 -12.3200073242 0.589996337891 -12.1399993896 1.11999511719 -11.9299926758 rrcurveto
          -94.6600036621 hlineto
          -15 4 callgsubr
          rlineto
          115.970001221 hlineto
          -166.910003662 34.5500030518 142.300003052 -117.559997559 188.399993896 hhcurveto
          79.9499969482 103 18.1499938965 43.9199981689 42.5 hvcurveto
          141.350006104 vlineto
          endchar
        </CharString>
        <CharString name="F">
          -116 642.119995117 460.679992676 rmoveto
          -8.66000366211 vlineto
          -54 callsubr
          -86 callsubr
          -288.649993896 -34 callgsubr
          170.960006714 -64 callgsubr
          169.600006104 vlineto
          16 callsubr
          -75 callsubr
          303.800003052 -73 callgsubr
          251.279998779 289.850006104 vlineto
          48.4299926758 -1.5 35.2599945068 -35.8699951172 -0.130004882812 -48.3000030518 rrcurveto
          -8.66000366211 vlineto
          9.77000427246 -0.119995117188 rlineto
          231.11000061 vlineto
          endchar
        </CharString>
        <CharString name="G">
          88 1115.46000671 -154 -97 callgsubr
          endchar
        </CharString>
        <CharString name="Gbreve">
          88 549.410003662 904.11000061 -83 callsubr
          554.399993896 -1058.11000061 -97 callgsubr
          endchar
        </CharString>
        <CharString name="Gcommaaccent">
          88 1115.46000671 -154 -97 callgsubr
          -712.839996338 -83 rmoveto
          72.4199981689 -77 callgsubr
          6 callsubr
          -45 callgsubr
        </CharString>
        <CharString name="Gdotaccent">
          88 435.259994507 764.229995728 -91 callgsubr
          680.199996948 -918.229995728 -97 callgsubr
          endchar
        </CharString>
        <CharString name="H">
          88 737.470001221 610 rmoveto
          1 -30 callsubr
          -240.479995728 -315.009994507 258.809997559 -45 callsubr
          -557.850006104 -58 callsubr
          endchar
        </CharString>
        <CharString name="Hbar">
          89 737.470001221 492.039993286 rmoveto
          66.7299957275 1 callgsubr
          -66.0200042725 75.8200073242 hlineto
          0.289993286133 -30 callsubr
          -75.8200073242 -315.009994507 94.1499938965 -45 callsubr
          -93.6699981689 -73.9299926758 4 callgsubr
          73.9299926758 -422.039993286 -58 callsubr
          -464.220001221 296.660003662 rmoveto
          122.520004272 314.820007324 -122.520004272 vlineto
          endchar
        </CharString>
        <CharString name="I">
          -317 338.960006714 616.149993896 -104 callgsubr
          endchar
        </CharString>
        <CharString name="IJ">
          73 338.960006714 616.149993896 -104 callgsubr
          161.940002441 627.199996948 -56 callsubr
        </CharString>
        <CharString name="Iacute">
          -317 252.88999939 762.169998169 -106 callgsubr
          93.0700073242 -153.020004272 -104 callgsubr
          endchar
        </CharString>
        <CharString name="Icircumflex">
          -317 256.800003052 915.25 -89 callsubr
          226.38999939 -145.940002441 -104 callgsubr
          endchar
        </CharString>
        <CharString name="Idieresis">
          -317 144.36000061 758.869995117 -106 callsubr
          -38.8399963379 -142.720001221 -104 callgsubr
          endchar
        </CharString>
        <CharString name="Idotaccent">
          -317 262.690002441 764.229995728 -91 callgsubr
          76.2700042725 -148.089996338 -104 callgsubr
          endchar
        </CharString>
        <CharString name="Igrave">
          -317 282.330001831 770.940002441 -99 callsubr
          63.6399993896 -147.800003052 -104 callgsubr
          endchar
        </CharString>
        <CharString name="Imacron">
          -317 128.919998169 795.36000061 -63 callgsubr
          210.050003052 -244.570007324 -104 callgsubr
          endchar
        </CharString>
        <CharString name="Iogonek">
          -317 415.669998169 -28 callgsubr
          543.279998779 vlineto
          1.0299987793 54.5599975586 18.4600067139 30 59.1699981689 9.36000061035 -1.83999633789 10 rcurveline
          -94.7400054932 -18.0599975586 -158.75 -1.63000488281 -65 -4.36999511719 -103.289993286 -6.96000671387 -36 -44.7599945068 -2 -49.3500061035 -3 -65.0599975586 64.5200042725 -40.6600036621 58.6300048828 26.1100006104 rrcurveto
          5.80999755859 vlineto
          -52 -2.44999694824 -27.1100006104 31.9100036621 3 40.6900024414 3.44999694824 42.7799987793 33.1699981689 18.0800018311 57.4700012207 2.57000732422 94.8300018311 3.91999816895 rcurveline
          -585.779998779 vlineto
          -34.8300018311 -0.660003662109 -100 callsubr
          141.770004272 hlineto
          -45.9799957275 -8 -42.25 -29 -4.97999572754 -53 -39 callsubr
          -2.33999633789 36 15.8999938965 29 54.9100036621 13 -3.24000549316 1 rcurveline
          119.690002441 hlineto
          endchar
        </CharString>
        <CharString name="J">
          -383 44.9100036621 700.059997559 -56 callsubr
        </CharString>
        <CharString name="K">
          -76 callgsubr
          endchar
        </CharString>
        <CharString name="Kcommaaccent">
          -76 callgsubr
          -657.660003662 -38 -29 callsubr
          6 callsubr
          -45 callgsubr
        </CharString>
        <CharString name="L">
          -346 1022.05999756 -98 -78 callgsubr
          202.13999939 280 rrcurveto
          endchar
        </CharString>
        <CharString name="Lacute">
          -346 183.759994507 762.169998169 -106 callgsubr
          845.289993286 -867.169998169 -78 callgsubr
          202.149993896 280 rrcurveto
          endchar
        </CharString>
        <CharString name="Lcaron">
          -285 -55 callsubr
          617.88999939 -630.399993896 -69 callsubr
          endchar
        </CharString>
        <CharString name="Lcommaaccent">
          -346 1022.05999756 -98 -78 callgsubr
          202.149993896 280 rrcurveto
          -818.339996338 -189 -50 callsubr
          36 -46.3699951172 8 -8 callgsubr
          3 callsubr
          -45 callgsubr
        </CharString>
        <CharString name="Ldot">
          -225 1022.05999756 -98 -69 callsubr
          -612.88999939 463.169998169 -41 callgsubr
        </CharString>
        <CharString name="Lslash">
          -310 1029.5 -98 rmoveto
          -195.800003052 -75 -79.1900024414 10 -436.350006104 147 -36.5 12 -5.49000549316 20.5099945068 -0.0299987792969 36.3399963379 rrcurveto
          305.789993286 vlineto
          134.210006714 77.6399993896 -21.6999969482 38.1100006104 -112.509994507 -65.0800018311 rlineto
          217.839996338 vlineto
          0.929992675781 35.4199981689 -18 callsubr
          34.9900054932 0.0500030517578 rrcurveto
          12.6499938965 13 callsubr
          -303.800003052 -2 callgsubr
          34.5099945068 -0.0500030517578 -17 callgsubr
          0.779998779297 -35.4199981689 rrcurveto
          -304.619995117 vlineto
          -84.3099975586 -48.7799987793 26 callgsubr
          62.6199951172 36.2200012207 rlineto
          -199 vlineto
          -35.2400054932 -0.75 -28.6300048828 -27.6399993896 -34.6100006104 hhcurveto
          -12.7200012207 -82 callgsubr
          -10 rlineto
          97.9199981689 76.1199951172 -22 -34 73.8999938965 hvcurveto
          230.699996948 -103 297.710006714 -204 210.729995728 257 rrcurveto
          endchar
        </CharString>
        <CharString name="M">
          195 798.740005493 713.699996948 rmoveto
          -9.13999938965 hlineto
          -289.86000061 -498.899993896 -199.619995117 375.130004883 -74.8200073242 128.86000061 -138.679992676 124.839996338 -182.619995117 -77.25 rlinecurve
          2 -10 109.559997559 10.1699981689 91.8800048828 -131.479995728 50.5800018311 -90.3500061035 rlinecurve
          -67.9299926758 -476.279998779 rlineto
          -37 -7.30999755859 -30.4199981689 -21.4499969482 -34.5899963379 hhcurveto
          -15.9700012207 -10 209.100006104 9.44000244141 -15.5800018311 hlineto
          -20.3500061035 -0.149993896484 -21.3999938965 20.3200073242 2.75999450684 22.5299987793 49.0800018311 400.369995117 rcurveline
          248.289993286 -472.520004272 rlineto
          9.42999267578 hlineto
          1.36000061035 48.6000061035 37.2100067139 61.9400024414 0 vvcurveto
          187.949996948 326.770004272 49.5099945068 -291.36000061 51.1000061035 -261.960006714 184.320007324 -101 186.830001831 56 rlinecurve
          10 vlineto
          -153.88999939 -8 -73.5700073242 132 -30.5500030518 173.080001831 rrcurveto
          endchar
        </CharString>
        <CharString name="N">
          92 1102.57000732 -132 -100 callgsubr
          endchar
        </CharString>
        <CharString name="Nacute">
          92 400.919998169 762.169998169 -106 callgsubr
          708.649993896 -901.169998169 -100 callgsubr
          endchar
        </CharString>
        <CharString name="Ncaron">
          92 417.36000061 764.050003052 -91 callsubr
          546.789993286 -1049.21000671 -100 callgsubr
          endchar
        </CharString>
        <CharString name="Ncommaaccent">
          92 1102.57000732 -132 -100 callgsubr
          -675.979995728 -105 rmoveto
          72.4199981689 -77 callgsubr
          3 callsubr
          -45 callgsubr
        </CharString>
        <CharString name="Ntilde">
          92 590.470001221 889.130004883 -98 callgsubr
          523.529998779 -1021.13000488 -100 callgsubr
          endchar
        </CharString>
        <CharString name="O">
          157 342.75 447.440002441 -103 callgsubr
        </CharString>
        <CharString name="OE">
          278 1040.33999634 19 callgsubr
          -64.8500061035 -62.0700073242 -99.8899993896 hhcurveto
          -156.429992676 281.410003662 141.679992676 -47 callsubr
          -140.440002441 -34 callgsubr
          131.320007324 -43 callsubr
          -210.75 -51 callsubr
          14.5299987793 0 11.6000061035 hhcurveto
          405.529998779 19 callsubr
          -510.899993896 -50 callgsubr
        </CharString>
        <CharString name="Oacute">
          157 456.479995728 770.669998169 -106 callgsubr
          -106.740005493 -330.229995728 -103 callgsubr
        </CharString>
        <CharString name="Ocircumflex">
          157 460.38999939 923.75 -89 callsubr
          26.5800018311 -323.149993896 -103 callgsubr
        </CharString>
        <CharString name="Odieresis">
          157 347.960006714 767.369995117 -106 callsubr
          -238.649993896 -319.929992676 -103 callgsubr
        </CharString>
        <CharString name="Ograve">
          157 485.919998169 779.440002441 -99 callsubr
          -136.169998169 -325 -103 callgsubr
        </CharString>
        <CharString name="Ohungarumlaut">
          157 368.820007324 774.220001221 -92 callgsubr
          -193.020004272 -331.820007324 -103 callgsubr
        </CharString>
        <CharString name="Omacron">
          157 332.509994507 803.86000061 -63 callgsubr
          10.2400054932 -421.779998779 -103 callgsubr
        </CharString>
        <CharString name="Omega">
          78 807.660003662 212.660003662 rmoveto
          -63.3800048828 -35.1799926758 -22.5099945068 -21.3999938965 -59.4299926758 hhcurveto
          -166.380004883 hlineto
          166.240005493 20.9499969482 121.61000061 126.86000061 136.240005493 vvcurveto
          171.13999939 -165.63999939 130.929992676 -218.88999939 -222.179992676 -168.300003052 -128.289993286 -173.779998779 2.2200012207 vhcurveto
          1.19000244141 -134.789993286 108.300003052 -123.649993896 175.429992676 -25.6300048828 rrcurveto
          -163.919998169 hlineto
          -59.4299926758 0.0200042724609 -22.5099945068 21.3999938965 -35.1799926758 63.3800048828 rrcurveto
          -10 hlineto
          47.7100067139 -212.660003662 rlineto
          291.800003052 hlineto
          12.1399993896 131.789993286 -104.929992676 42.7400054932 -85.6100006104 91.4400024414 0.0700073242188 143.679992676 rlinecurve
          148.5 101.059997559 113.710006714 132.100006104 131.61000061 99.2400054932 -112.729995728 -147.179992676 -1.35000610352 vhcurveto
          -1.74000549316 -147.190002441 -89.6600036621 -89.8899993896 -102.199996948 -43.0800018311 12.1399993896 -131.789993286 rcurveline
          294.399993896 hlineto
          47.7100067139 212.660003662 rlineto
          endchar
        </CharString>
        <CharString name="Oslash">
          141 773.160003662 9 callgsubr
          -41.9600067139 -49.4400024414 -64.7100067139 32.3999938965 -72.5099945068 13.4900054932 -66.9199981689 -7.2200012207 rlinecurve
          -171.36000061 -17.6100006104 -43.4600067139 -148.11000061 46.4299926758 -101.630004883 11.2100067139 0.789993286133 rcurveline
          -25.8200073242 101.630004883 52.1100006104 114.88999939 129.570007324 7.88999938965 62.3800048828 4.00999450684 51.3800048828 -22.5099945068 38.8200073242 -40.3300018311 -397.529998779 -468.339996338 rcurveline
          -38.0299987793 59.6499938965 -21.5500030518 80.6699981689 97.2799987793 vvcurveto
          120.38999939 32.25 124.539993286 70.5500030518 59.3800048828 vhcurveto
          -6 9.61000061035 rlineto
          -158.229995728 -43.3800048828 -103 -130.179992676 -166.88999939 vvcurveto
          -125.949996948 57.6100006104 -102.240005493 96.8800048828 -64.7799987793 vhcurveto
          -46.9199981689 -55.2799987793 36.5500030518 -30.5 52.0899963379 61.4400024414 rlineto
          -33.8500061035 66.8099975586 81.0800018311 -18.5899963379 90.9199981689 hhcurveto
          256.289993286 179.63999939 147.13999939 224.210006714 134.270004272 -65.9400024414 99.8699951172 -89.2100067139 59.7700042725 hvcurveto
          -64.5899963379 -76.1799926758 rmoveto
          36.1000061035 -56.6100006104 19.1999969482 -76.6100006104 -83.7200012207 vvcurveto
          -200.5 -112.460006714 -129.5 -159.210006714 -72.7100067139 -62.2100067139 27.5399932861 50.4100036621 -46.3500061035 vhcurveto
          endchar
        </CharString>
        <CharString name="Otilde">
          157 646.039993286 897.630004883 -98 callgsubr
          -291.86000061 -450.190002441 -103 callgsubr
        </CharString>
        <CharString name="P">
          -68 45.6300048828 660.570007324 rmoveto
          0.360000610352 2.96000671387 6.05000305176 1 6.82000732422 hhcurveto
          41.0700073242 1.16000366211 18.7899932861 -23.9499969482 0.449996948242 -33.5599975586 rrcurveto
          -532.720001221 vlineto
          -35.6300048828 -0.820007324219 -29.0299987793 -27.2400054932 -34.2200012207 hhcurveto
          -12.7200012207 -82 callgsubr
          -10 rlineto
          303.899993896 -1 callsubr
          -12.7400054932 hlineto
          -34.1600036621 -0.00999450683594 -29.0299987793 27.2400054932 -0.779998779297 35.6300048828 rrcurveto
          586.899993896 vlineto
          67.0399932861 10.1000061035 98.6799926758 12.8999938965 67.8699951172 -54.0800018311 3.66000366211 -114.429992676 rlinecurve
          3.16000366211 -98.8699951172 -46.4499969482 -57.9499969482 -49.8899993896 -13.3899993896 -37.25 -10.2200012207 -45.75 10.3200073242 -14.8300018311 36.0800018311 -9.50999450684 -4.71000671387 rcurveline
          10.5500030518 -53.9799957275 43.0700073242 -27 51 -7.53999328613 116.429992676 -23.9600067139 144.660003662 81.6799926758 -5.19999694824 165.289993286 -5.50999450684 168.429992676 -150.990005493 56.3899993896 -172.13999939 -21.8200073242 -69.0399932861 -8.42999267578 -106.039993286 -25.25 -121.13999939 -8.85000610352 rrcurveto
          endchar
        </CharString>
        <CharString name="Q">
          152 1564.28999329 -84 rmoveto
          -118.449996948 -107 -269.38999939 43 -230.449996948 50 -121.070007324 25 -152.38999939 36 -123.490005493 19 170.229995728 25.2599945068 170.970001221 130.699996948 0.919998168945 213.149993896 1.11000061035 212.009994507 -176.300003052 152.119995117 -252.570007324 3.77000427246 rrcurveto
          -267.729995728 3.85000610352 -173.020004272 -160.050003052 -203.490005493 vvcurveto
          -162.789993286 116.13999939 -119.289993286 162.61000061 -27.25 vhcurveto
          110.38999939 -18 116.679992676 29.1799926758 1.10000610352 143.970001221 -10.2299957275 0.570007324219 rcurveline
          -17.6199951172 -102.25 -87.6399993896 -26.1100006104 -66.4299926758 10.1100006104 rrcurveto
          -107.63999939 15.1100006104 -56.5700073242 110.820007324 137.61000061 vvcurveto
          212.649993896 125.179992676 120.660003662 156.789993286 -7.44999694824 vhcurveto
          172.539993286 -8.2799987793 99.8500061035 -167.199996948 -7.42999267578 -182.270004272 -10.0299987793 -227.509994507 -156.809997559 -96.5899963379 -150.509994507 1 rrcurveto
          -2.0299987793 -10 hlineto
          106.630004883 -34 232.380004883 -111 126.649993896 -48 315.910003662 -120 315.36000061 51 61.9799957275 188 rrcurveto
          endchar
        </CharString>
        <CharString name="R">
          -42 45.3999938965 700.100006104 -101 callsubr
          endchar
        </CharString>
        <CharString name="Racute">
          -42 354.169998169 762.169998169 -106 callgsubr
          -301.759994507 -69.0700073242 -101 callsubr
          endchar
        </CharString>
        <CharString name="Rcaron">
          -42 370.600006104 764.039993286 -91 callsubr
          -463.619995117 -217.11000061 -101 callsubr
          endchar
        </CharString>
        <CharString name="Rcommaaccent">
          -42 45.3999938965 700.100006104 -101 callsubr
          2.71000671387 -942.100006104 rmoveto
          72.4199981689 -77 callgsubr
          6 callsubr
          -45 callgsubr
        </CharString>
        <CharString name="S">
          -150 281.240005493 482.729995728 -96 callgsubr
          rlineto
          -165.380004883 -130.63999939 95.3399963379 -225.38999939 248.699996948 hhcurveto
          291.800003052 113.710006714 309.429992676 151.440002441 -235.949996948 hvcurveto
          endchar
        </CharString>
        <CharString name="Sacute">
          -150 306.820007324 762.169998169 -106 callgsubr
          16 callsubr
          -286.429992676 -96 callgsubr
          rlineto
          -165.380004883 -130.63999939 95.3399963379 -225.38999939 248.699996948 hhcurveto
          291.800003052 113.710006714 309.429992676 151.440002441 -235.949996948 hvcurveto
          endchar
        </CharString>
        <CharString name="Scaron">
          -150 323.259994507 764.039993286 -91 callsubr
          -180.429992676 -434.470001221 -96 callgsubr
          rlineto
          -165.380004883 -130.63999939 95.3399963379 -225.38999939 248.699996948 hhcurveto
          291.800003052 113.710006714 309.429992676 151.440002441 -235.949996948 hvcurveto
          endchar
        </CharString>
        <CharString name="Scedilla">
          -150 281.240005493 482.729995728 -96 callgsubr
          -127.63999939 -161.309997559 87.7799987793 -218.460006714 235.169998169 -11 rlinecurve
          -47.0899963379 -61 -81 callgsubr
          41.2400054932 48 rcurveline
          268.979995728 21 97.6699981689 292.820007324 -227.550003052 146.050003052 rrcurveto
          endchar
        </CharString>
        <CharString name="Scommaaccent">
          -150 281.240005493 482.729995728 -96 callgsubr
          rlineto
          -165.380004883 -130.63999939 95.3399963379 -225.38999939 248.699996948 hhcurveto
          291.800003052 113.710006714 309.429992676 151.440002441 -235.949996948 hvcurveto
          -206.229995728 -702.869995117 rmoveto
          72.3999938965 -10 59.7799987793 83 -33.3800048828 75 -16.0399932861 37 -46.3500061035 8 -23.4600067139 -24 -20.3800048828 -20 3.96000671387 -35 19.6199951172 -23 28.1900024414 -32 -12.0399932861 -39 -34.6999969482 -12 rrcurveto
          endchar
        </CharString>
        <CharString name="T">
          -75 94.7799987793 701 -80 callgsubr
          -57.0200042725 -54 callgsubr
          endchar
        </CharString>
        <CharString name="Tbar">
          -75 94.7799987793 701 rmoveto
          -151.779998779 -73 -133.259994507 -101.229995728 104 hvcurveto
          10 5 rlineto
          103.759994507 -62 64 83.6000061035 108.779998779 hhcurveto
          195.36000061 -268.580001831 -154.38999939 -39.6300048828 154.38999939 -279.36000061 hlineto
          -1.52000427246 -34.1300048828 -27.8399963379 -27.1900024414 -34.6399993896 -0.00999450683594 rrcurveto
          -95 callgsubr
          303.919998169 -63 callsubr
          278.61000061 154.740005493 39.6300048828 -154.740005493 268.580001831 -87 callsubr
          -57.0200042725 -54 callgsubr
          endchar
        </CharString>
        <CharString name="Tcaron">
          -75 371.61000061 738.899993896 -91 callsubr
          -415.240005493 -191.059997559 -80 callgsubr
          -57.0099945068 -9.88999938965 -43.0099945068 -0.509994506836 rrcurveto
          endchar
        </CharString>
        <CharString name="Tcedilla">
          -75 94.7799987793 701 rmoveto
          -150.779998779 -74 -133.259994507 -101.229995728 104 hvcurveto
          10 5 rlineto
          103.759994507 -62 64 83.6000061035 108.779998779 hhcurveto
          195.36000061 -587.559997559 hlineto
          -1.52000427246 -34.1300048828 -27.8399963379 -27.1900024414 -34.6399993896 -0.00999450683594 rrcurveto
          -95 callgsubr
          122.419998169 hlineto
          -47.8300018311 -62 -81 callgsubr
          41.4199981689 48 rcurveline
          133.509994507 -63 callsubr
          -78 callsubr
          endchar
        </CharString>
        <CharString name="Thorn">
          -75 callgsubr
        </CharString>
        <CharString name="U">
          -72 callsubr
          endchar
        </CharString>
        <CharString name="Uacute">
          51 458.86000061 762.169998169 -106 callgsubr
          209.960006714 -521.770004272 -105 callsubr
          endchar
        </CharString>
        <CharString name="Ucircumflex">
          51 462.770004272 915.25 -89 callsubr
          343.279998779 -514.690002441 -105 callsubr
          endchar
        </CharString>
        <CharString name="Udieresis">
          -72 callsubr
          -311.490005493 149.039993286 -106 callsubr
          endchar
        </CharString>
        <CharString name="Ugrave">
          51 488.300003052 770.940002441 -99 callsubr
          180.529998779 -516.539993286 -105 callsubr
          endchar
        </CharString>
        <CharString name="Uhungarumlaut">
          51 371.199996948 765.720001221 -92 callgsubr
          123.679992676 -523.36000061 -105 callsubr
          endchar
        </CharString>
        <CharString name="Umacron">
          -72 callsubr
          -326.940002441 185.529998779 -63 callgsubr
          endchar
        </CharString>
        <CharString name="Uogonek">
          51 661.830001831 247.399993896 rmoveto
          -0.259994506836 -137.61000061 -86.0200042725 -80.4499969482 -117.710006714 0.300003051758 -120.220001221 -0.300003051758 -80.7200012207 88.5500030518 0.0500030517578 142.410003662 rrcurveto
          382.009994507 vlineto
          1.10000610352 25.9900054932 21.6499938965 21.7200012207 29.9700012207 0.00999450683594 rrcurveto
          16.3000030518 10 -288.11000061 -10 16.1199951172 hlineto
          29.0700073242 0.00999450683594 23.4400024414 -20.7599945068 0.539993286133 -28.7599945068 rrcurveto
          -388.830001831 vlineto
          -1.91000366211 -157.490005493 119.070007324 -104.179992676 194.11000061 -4 -40.0299987793 -11 -34.1999969482 -28 -4.44999694824 -48 -39 callsubr
          -2.33000183105 36 15.7100067139 29 54.1600036621 13 162.38999939 15.6600036621 91.2599945068 96.1999969482 1.64999389648 153.559997559 rrcurveto
          356.940002441 vlineto
          0.0399932861328 170.61000061 73.6999969482 101.080001831 130.229995728 9.80999755859 rrcurveto
          10 vlineto
          -167.380004883 14.1100006104 -107.5 -130.11000061 -0.0299987792969 -176.020004272 rrcurveto
          endchar
        </CharString>
        <CharString name="Uring">
          51 469.199996948 930.88999939 rmoveto
          -62.2700042725 -46.8699951172 -35.4600067139 -48.2100067139 -48.2100067139 46.5800018311 -35.4600067139 61.8999938965 61.8899993896 46.5800018311 36.0299987793 48.9700012207 48.75 -46.2899932861 33.5800018311 -61.5200042725 hvcurveto
          192.630004883 -683.490005493 -105 callsubr
          -193.300003052 296.240005493 rmoveto
          28.8399963379 21.8699951172 -23.5800018311 -35.2799987793 -34.8800048828 -21.8699951172 -23.3000030518 -28.8399963379 -28.4600067139 -21.5800018311 23.3000030518 34.8999938965 35.2599945068 21.5899963379 23.5800018311 28.4499969482 hvcurveto
          endchar
        </CharString>
        <CharString name="V">
          -54 412.619995117 213.960006714 rmoveto
          -169.38999939 413.509994507 -52 callgsubr
          267.86000061 586 rcurveline
          36.2799987793 79.3600006104 71.6100006104 150.080001831 164.369995117 9.9700012207 rrcurveto
          10 vlineto
          -209.830001831 20.0599975586 -97.6100006104 -176.630004883 -39.5899963379 -92.8300018311 rrcurveto
          endchar
        </CharString>
        <CharString name="W">
          187 736.460006714 275.820007324 rmoveto
          -199.089996338 439.5 -9.30999755859 0.320007324219 -181.5 -435.009994507 -122.970001221 346.869995117 rlineto
          40.0200042725 -13.0800018311 25.9299926758 22.5599975586 25.8200073242 hhcurveto
          8.78999328613 9.91000366211 -305.050003052 -10 8 hlineto
          29.5800018311 38 -16.6399993896 -41.0099945068 18.3300018311 hvcurveto
          203.199996948 -552.440002441 -35.6199951172 -84.9100036621 -84.8600006104 -152 -127.470001221 -6 rlinecurve
          -0.789993286133 -10 150.089996338 -37 110.619995117 153 38.4700012207 98.4100036621 rlinecurve
          177.970001221 422.789993286 217.880004883 -482.199996948 rlineto
          9.44000244141 hlineto
          -2.7200012207 48.7700042725 20.3300018311 62.3200073242 0 vvcurveto
          187.979995728 586.289993286 35.6399993896 111.119995117 76.0399932861 134.029998779 164.369995117 9.9700012207 rlinecurve
          10 vlineto
          -209.830001831 20.0599975586 -103.270004272 -159.38999939 -35.8899993896 -125.789993286 rrcurveto
          endchar
        </CharString>
        <CharString name="Wacute">
          -94 callgsubr
          -328.589996338 82.7899932861 -106 callgsubr
          endchar
        </CharString>
        <CharString name="Wcircumflex">
          -94 callgsubr
          -324.690002441 235.869995117 -89 callsubr
          endchar
        </CharString>
        <CharString name="Wdieresis">
          -94 callgsubr
          -437.119995117 79.4900054932 -106 callsubr
          endchar
        </CharString>
        <CharString name="Wgrave">
          -94 callgsubr
          -299.160003662 91.5599975586 -99 callsubr
          endchar
        </CharString>
        <CharString name="X">
          -44 654.300003052 686.919998169 rmoveto
          47.5899963379 67.7899932861 62.1100006104 95.4400024414 92.4400024414 1.83999633789 rrcurveto
          10 vlineto
          -122.460006714 12.8099975586 -92.7899932861 -81 -66.6600036621 -97.6699981689 -173.880004883 -256.38999939 rcurveline
          -122.199996948 188.809997559 3 callgsubr
          27.0800018311 -27 callgsubr
          182.690002441 -283.509994507 -234.210006714 -323.399993896 -58.8600006104 -81.3000030518 -54 -73 -110 -10 rlinecurve
          -10 vlineto
          110 -18 97.3500061035 47 94.3399963379 133.13999939 194.039993286 275.550003052 rcurveline
          139.380004883 -216.309997559 -20 callgsubr
          12 callsubr
          10 rlineto
          -6 callsubr
          -200.449996948 309.720001221 rlineto
          endchar
        </CharString>
        <CharString name="Y">
          -106 -67 748.270004272 -93 callsubr
        </CharString>
        <CharString name="Yacute">
          -106 341.25 762.169998169 -106 callgsubr
          -401.25 -20.8999938965 -93 callsubr
        </CharString>
        <CharString name="Ycircumflex">
          -106 345.160003662 915.25 -89 callsubr
          -267.929992676 -13.8200073242 -93 callsubr
        </CharString>
        <CharString name="Ydieresis">
          -106 232.729995728 758.869995117 -106 callsubr
          -533.160003662 -10.6000061035 -93 callsubr
        </CharString>
        <CharString name="Ygrave">
          -106 370.690002441 770.940002441 -99 callsubr
          -430.690002441 -15.6699981689 -93 callsubr
        </CharString>
        <CharString name="Z">
          -124 1049.27999878 -105 rmoveto
          -182.779998779 -72 -248.240005493 79 -373.820007324 98.7200012207 -29.9700012207 7.74000549316 rcurveline
          390.020004272 696.869995117 -96 callsubr
          -9.28999328613 rlineto
          7.2799987793 hlineto
          248.910003662 -4 486.990005493 -429 268.089996338 321 rrcurveto
          endchar
        </CharString>
        <CharString name="Zacute">
          -124 320.330001831 762.169998169 -106 callgsubr
          735.949996948 -874.169998169 rmoveto
          -182.779998779 -72 -248.240005493 79 -373.820007324 98.7200012207 -29.9700012207 7.74000549316 rcurveline
          390.020004272 696.869995117 -96 callsubr
          -9.28999328613 rlineto
          7.2799987793 hlineto
          248.910003662 -4 486.990005493 -429 268.089996338 321 rrcurveto
          endchar
        </CharString>
        <CharString name="Zcaron">
          -124 336.770004272 764.039993286 -91 callsubr
          574.100006104 -1022.19999695 rmoveto
          -182.779998779 -72 -248.240005493 79 -373.820007324 98.7200012207 -29.9700012207 7.74000549316 rcurveline
          390.020004272 696.869995117 -96 callsubr
          -9.28999328613 rlineto
          7.2799987793 hlineto
          248.910003662 -4 486.990005493 -429 268.089996338 321 rrcurveto
          endchar
        </CharString>
        <CharString name="Zdotaccent">
          -124 330.130004883 764.229995728 -91 callgsubr
          719.149993896 -869.229995728 rmoveto
          -182.779998779 -72 -248.240005493 79 -373.820007324 98.7200012207 -29.9700012207 7.74000549316 rcurveline
          390.020004272 696.869995117 -96 callsubr
          -9.28999328613 rlineto
          7.2799987793 hlineto
          248.910003662 -4 486.990005493 -429 268.089996338 321 rrcurveto
          endchar
        </CharString>
        <CharString name="a">
          -57 354.559997559 720.070007324 -105 callgsubr
        </CharString>
        <CharString name="aacute">
          -57 342.13999939 762.169998169 -106 callgsubr
          19.4199981689 -49.1000061035 -105 callgsubr
        </CharString>
        <CharString name="abreve">
          -57 466.089996338 904.11000061 -83 callsubr
          -123.179992676 -184.039993286 -105 callgsubr
        </CharString>
        <CharString name="acircumflex">
          -57 346.039993286 915.25 -89 callsubr
          152.729995728 -42.0200042725 -105 callgsubr
        </CharString>
        <CharString name="acute">
          -237 209.490005493 744.149993896 -106 callgsubr
          endchar
        </CharString>
        <CharString name="adieresis">
          -57 233.61000061 758.869995117 -106 callsubr
          -112.490005493 -38.8000030518 -105 callgsubr
        </CharString>
        <CharString name="ae">
          196 934.949996948 -13 callsubr
          -133.759994507 275.660003662 129.919998169 hlineto
          47.2599945068 -42 callgsubr
          -48.1199951172 16 callgsubr
          rrcurveto
          -128.36000061 296.729995728 164.820007324 -64 callgsubr
          169.600006104 vlineto
          16 callsubr
          -7.82000732422 -57.5700073242 -9.96000671387 -43.1000061035 -0.410003662109 rrcurveto
          -335.330001831 -10 4.61000061035 hlineto
          22.6799926758 12.9400024414 -20.1999969482 -23.2599945068 -13.9299926758 hvcurveto
          -384.740005493 -575.979995728 rlineto
          -38.3899993896 -26.4400024414 -31.0299987793 -22.1699981689 -30.9700012207 hhcurveto
          -8 -10 222.509994507 9.94000244141 -9.05000305176 hlineto
          -27.4900054932 -0.710006713867 -27.8099975586 25.7799987793 21.5599975586 35.5599975586 150.520004272 247.820007324 rcurveline
          159.320007324 21 callsubr
          -0.509994506836 -7 callgsubr
          493.399993896 18 callgsubr
          -613.100006104 165.429992676 rmoveto
          133.710006714 220.020004272 rlineto
          -220.020004272 vlineto
          endchar
        </CharString>
        <CharString name="agrave">
          -57 371.580001831 770.940002441 -99 callsubr
          -10.0200042725 -43.8699951172 -105 callgsubr
        </CharString>
        <CharString name="amacron">
          -57 218.169998169 795.36000061 -63 callgsubr
          136.38999939 -140.649993896 -105 callgsubr
        </CharString>
        <CharString name="ampersand">
          105 1187.27000427 -96 rmoveto
          -191.729995728 -22 -133.160003662 104 -129.449996948 110.11000061 -30.7899932861 25.3899993896 rcurveline
          168.919998169 177.169998169 14.2700042725 312.830001831 -305.199996948 175.899993896 -6.13000488281 -6 rcurveline
          292.169998169 -194.240005493 -49.3000030518 -280.13999939 -151.309997559 -155.009994507 -65.1999969482 54.4799957275 -91.3500061035 76.8699951172 24 callgsubr
          36.6499938965 -108.11000061 92.8200073242 -63.3399963379 63.3899993896 -1.11000061035 78.5899963379 -1.17999267578 68.3800048828 45.3000030518 48.6799926758 68.9700012207 24 callsubr
          88.7799987793 -0.179992675781 36.3300018311 -82.2899932861 2.07000732422 -89.9799957275 rrcurveto
          9.4700012207 hlineto
          33.9499969482 143.559997559 -34.0599975586 46.5299987793 -82.4799957275 23.9299926758 -82.5099945068 0.369995117188 rlinecurve
          -126.380004883 0.410003662109 -114.259994507 -56.7899932861 1.49000549316 -124.440002441 0.550003051758 -47.6199951172 17.2400054932 -45.2899932861 28.4600067139 -43.6999969482 -66.5299987793 -22.7700042725 -79.4799957275 -56.0099945068 1.11000061035 -103.960006714 2.16999816895 -179.86000061 245.699996948 -51.9600067139 126.679992676 8 61.6799926758 3 57.3000030518 15.5899963379 50.9700012207 25.6699981689 40.7400054932 -32.6699981689 37.0800018311 -29.5899963379 24.5800018311 -19 143.949996948 -112 195.289993286 -40 163.009994507 93 rrcurveto
          -756.789993286 144.210006714 rmoveto
          -116.050003052 -5.91000366211 -111.970001221 71.4799957275 -6.5299987793 133.539993286 -2.44999694824 50.0899963379 12.4900054932 34.2599945068 15.2200012207 24.3800048828 35.6999969482 -41.7700042725 44.4400024414 -40.5 48 -39.9299926758 18.1999969482 -15.5899963379 89.4600067139 -72.8899993896 85.9400024414 -69.1999969482 -36.3300018311 -16.5099945068 -38.0700073242 -9.83999633789 -38.0299987793 -1.61000061035 rrcurveto
          endchar
        </CharString>
        <CharString name="aogonek">
          -47 359.800003052 714 rmoveto
          -9.00999450684 hlineto
          -2.42999267578 -29.1100006104 -39.6199951172 -86.6900024414 -7.13999938965 -15.2100067139 -233.149993896 -510.009994507 rcurveline
          -44.5500030518 -20.8200073242 -36.6900024414 -18.3399963379 -29.9499969482 hhcurveto
          -9 -10 214.410003662 9.91000366211 -8.78999328613 hlineto
          -25.8200073242 -28.8500061035 22.6399993896 40.0200042725 16.4199981689 hvcurveto
          53.3000030518 123.61000061 rlineto
          240.080001831 hlineto
          52.4700012207 -127.070007324 14.3899993896 -38.5800018311 -3.83999633789 -19.4700012207 -23.3899993896 -14.1199951172 rlinecurve
          -29.7700042725 -19 -27.4100036621 -20 -4.69999694824 -42 -13.4400024414 -128 190.720001221 -23 16.3699951172 115 -6 6 rcurveline
          -48.6900024414 -45 -65.2200012207 28 -3.03999328613 59 16 callgsubr
          31 16.5200042725 31 48.8200073242 10 61.1100006104 13.1999969482 100.929992676 -12.5599975586 48.6900024414 -0.610000610352 rrcurveto
          9.86999511719 vlineto
          -8.5299987793 0.979995727539 -30.3099975586 3.63999938965 -35.1100006104 13.4299926758 -20.6999969482 43.0800018311 rlinecurve
          -449.940002441 167.339996338 rmoveto
          104.509994507 242.149993896 99.9900054932 -242.149993896 rlineto
          endchar
        </CharString>
        <CharString name="approxequal">
          -292 67.3600006104 337.550003052 -65 callsubr
          39.5 -205.830001831 -65 callsubr
          endchar
        </CharString>
        <CharString name="aring">
          -57 352.479995728 930.88999939 -84 callgsubr
          2.75 -186 -105 callgsubr
        </CharString>
        <CharString name="asciicircum">
          -221 245.130004883 376.710006714 rmoveto
          64.8899993896 hlineto
          208.160003662 -200.899993896 rlineto
          -78.6300048828 hlineto
          -162 153.539993286 -163.820007324 -153.539993286 rlineto
          -78.7100067139 hlineto
          endchar
        </CharString>
        <CharString name="asciitilde">
          -280 399.149993896 358.720001221 rmoveto
          24.7200012207 -60.9199981689 -37.4600067139 -34.2899932861 -40.5399932861 1.25 -49.0899963379 1.52000427246 -83.5399932861 98.8099975586 -73.0500030518 -1.38000488281 -65.3500061035 -1.24000549316 -60.5099945068 -49.8200073242 20.7200012207 -100.029998779 rrcurveto
          57.3899993896 hlineto
          -14.4499969482 69.4199981689 27.0299987793 26.1799926758 35.0099945068 -1.64999389648 rrcurveto
          -2.66000366211 56.6600036621 76.8600006104 -96.2899932861 72.1399993896 hhcurveto
          69.4400024414 69.9600067139 47.2700042725 103.820007324 -27.3300018311 hvcurveto
          endchar
        </CharString>
        <CharString name="asterisk">
          -385 201.529998779 605.279998779 rmoveto
          62.3600006104 -9.2200012207 88.7100067139 15.5700073242 rlineto
          47.2599945068 vlineto
          -27.8999938965 38.6100006104 -80.6799926758 -40.3000030518 -44.8800048828 -43.8300018311 27.8800048828 56.2799987793 12.6000061035 89.1799926758 -45.1399993896 14 -45.1399993896 -14 13.3999938965 -89.1799926758 27.8099975586 -56.2100067139 -44.9700012207 43.8899993896 -80.9199981689 39.5399932861 -27.2599945068 -38.6100006104 rlineto
          -47.2599945068 vlineto
          88.3200073242 -14.8200073242 62.1399993896 9.08999633789 -55.6999969482 -29.1600036621 -62.6199951172 -64.7400054932 28.2899932861 -37.8600006104 44.75 -15.2100067139 41.5800018311 80.0299987793 10.5700073242 62 10.5500030518 -62.0800018311 42.2200012207 -79.5599975586 44.75 15.2100067139 28.2899932861 37.8600006104 -63.2599945068 64.2799987793 rlineto
          endchar
        </CharString>
        <CharString name="at">
          216 523.740005493 207.350006104 rmoveto
          8 -74.1100006104 rlineto
          -27.5 2.9700012207 -28.6799926758 -15.6199951172 -15.9100036621 hhcurveto
          -6.96000671387 hlineto
          -1.30000305176 -7.38999938965 rlineto
          207.039993286 hlineto
          1.32000732422 7.46000671387 rlineto
          -5.11000061035 hlineto
          -19.7100067139 -15.0299987793 13.7799987793 33.2400054932 -5.19999694824 hvcurveto
          -67.3099975586 403.699996948 rlineto
          -6.7200012207 hlineto
          -8.38000488281 -19.5200042725 -46.3500061035 -57.3399963379 0 vvcurveto
          -127.039993286 -173.050003052 -51.1199951172 -66.3500061035 -64.9700012207 -114.830001831 -73.7700042725 2.2200012207 rlinecurve
          -82.0899963379 2.27000427246 3.80999755859 140.880004883 62.5099945068 134.940002441 95.9799957275 207.479995728 178.759994507 80.2700042725 163.210006714 -29.7700042725 145.679992676 14 callsubr
          78.6199951172 -125.630004883 -15.0399932861 -178.979995728 -25.2799987793 -307.529998779 -264.630004883 -198.770004272 -342.509994507 137 4 -10 rcurveline
          445.720001221 -184 284.789993286 260.339996338 17.5500030518 298.720001221 11.6199951172 190.75 -113.210006714 154.679992676 -223.669998169 30.3300018311 -250.330001831 33.5099945068 -226.5 -123.789993286 -84.3999938965 -202.559997559 -75.0899963379 -180.759994507 83.9199981689 -145.86000061 126.580001831 4.57000732422 64.9799957275 2.14999389648 46.1900024414 43.0200042725 66.6100006104 89.2400054932 rrcurveto
          127.13999939 178.990005493 rmoveto
          16.0700073242 -148.86000061 rlineto
          -121.149993896 hlineto
          endchar
        </CharString>
        <CharString name="atilde">
          -57 531.690002441 889.130004883 -98 callgsubr
          -165.710006714 -169.050003052 -105 callgsubr
        </CharString>
        <CharString name="b">
          -100 42 13 callgsubr
          12.6999969482 hlineto
          34.6900024414 0.0800018310547 28.2299957275 -27.6199951172 1.07000732422 15 callgsubr
          rrcurveto
          -555.789993286 vlineto
          -34.5299987793 -1 -28.2599945068 -27.6999969482 -34.7799987793 -95 callsubr
          316.5 hlineto
          169.25 112.539993286 66.5 128.679992676 -0.300003051758 hvcurveto
          0.300003051758 106.38999939 -76.5399932861 70.1100006104 -101.199996948 9.16999816895 62.7299957275 7.64999389648 60.0700073242 48.5700073242 0.169998168945 91.6600036621 rrcurveto
          122.479995728 -0.169998168945 -108.570007324 48.7899932861 -145.270004272 hhcurveto
          -62.5500030518 -654.419998169 rmoveto
          611.339996338 28.5800018311 vlineto
          76.8200073242 0.149993896484 51 -40.4600067139 0.169998168945 -100.429992676 -0.169998168945 -100.960006714 -59.6799926758 -36.2100067139 -63.0200042725 0.220001220703 0.229995727539 -9.41000366211 rcurveline
          89.0700073242 0.190002441406 76.1799926758 -45.6399993896 -0.300003051758 -116.929992676 0.300003051758 -113.429992676 -63.8600006104 -48.8899993896 -88.9900054932 0.470001220703 rrcurveto
          endchar
        </CharString>
        <CharString name="backslash">
          -347 8.78999328613 696.5 rmoveto
          360.940002441 -710.5 47.6600036621 24.5500030518 -360.509994507 708.919998169 rlineto
          endchar
        </CharString>
        <CharString name="bar">
          -516 100 -180 rmoveto
          -21 callsubr
          880 -29 callgsubr
          hlineto
          endchar
        </CharString>
        <CharString name="braceleft">
          -334 7.89999389648 445.699996948 rmoveto
          12.4400024414 -64.8800048828 49.4600067139 -31.2799987793 46.3200073242 21.6100006104 61.5 28.6100006104 -18.8600006104 92.7100067139 -1.78999328613 71.5399932861 -5.57000732422 242.429992676 192.13999939 38.1799926758 113.63999939 -76.4600067139 -4.9700012207 -7.46000671387 rcurveline
          -149.630004883 38.9199981689 6.71000671387 -110.070007324 -3.5 -118.539993286 -6.32000732422 -137.179992676 -43.5399932861 -68.3899993896 -98.75 -23.4299926758 -54 -13.6799926758 -84.8899993896 -0.5 -18.1699981689 114.869995117 rrcurveto
          457.050003052 -576.690002441 rmoveto
          -117.169998169 -78 -188.61000061 43 5.57000732422 238.720001221 1.78999328613 71.1399993896 18.8600006104 93.1100006104 -61.5 28.6100006104 -45.9299926758 21.6100006104 -49.8600006104 -30.8899993896 -12.6199951172 -65.1900024414 -7.63999938965 3 rcurveline
          18.2200012207 114.399993896 84.1100006104 0.289993286133 54.7799987793 -14.0700073242 101.88999939 -25 39.6100006104 -71.1399993896 6.7200012207 -132.86000061 3.5 -122.720001221 -2 -105 145.300003052 38 rrcurveto
          endchar
        </CharString>
        <CharString name="braceright">
          -334 -17 768.149993896 rmoveto
          114.029998779 76.4600067139 192.13999939 -38.1799926758 -5.57000732422 -242.429992676 -1.7799987793 -71.5399932861 -18.8600006104 -92.7100067139 61.5 -28.6100006104 46.3200073242 -21.6100006104 49.4600067139 31.2799987793 23 callgsubr
          64.8800048828 7.86000061035 -3.00999450684 rcurveline
          -18.1000061035 -114.869995117 -84.8899993896 0.5 -54 13.6799926758 -98.75 23.4299926758 -43.5399932861 68.3899993896 -6.32000732422 137.179992676 -3.5 118.539993286 6.71000671387 110.070007324 -149.990005493 -38.9199981689 rrcurveto
          444.910003662 -572.589996338 rmoveto
          -12.6699981689 65.1900024414 -49.8600006104 30.8899993896 -45.9299926758 -21.6100006104 -61.5 -28.6100006104 18.8600006104 -93.1100006104 1.7799987793 -71.1399993896 5.57000732422 -238.720001221 -188.61000061 -43 -117.570007324 78 5 7 rcurveline
          145.669998169 -38 -2 105 3.5 122.720001221 6.71000671387 132.86000061 39.6100006104 71.1399993896 101.88999939 25 54.7899932861 14.0700073242 84.1100006104 -0.289993286133 18.1000061035 -114.399993896 rrcurveto
          endchar
        </CharString>
        <CharString name="bracketleft">
          -356 120 -90 rmoveto
          257.490005493 10 hlineto
          -107.490005493 38 rlineto
          715.789993286 vlineto
          104.179992676 38.2100067139 rlineto
          10 -254.179992676 vlineto
          endchar
        </CharString>
        <CharString name="bracketright">
          -423 43.3099975586 722 rmoveto
          -10 vlineto
          104.179992676 -38.2100067139 rlineto
          -715.789993286 vlineto
          -107.490005493 -38 rlineto
          -10 257.490005493 812 vlineto
          endchar
        </CharString>
        <CharString name="breve">
          -236 333.720001221 865.880004883 -83 callsubr
          endchar
        </CharString>
        <CharString name="brokenbar">
          -516 100 350 rmoveto
          -21 callsubr
          350 -29 callgsubr
          hlineto
          -880 vmoveto
          -21 callsubr
          350 -29 callgsubr
          hlineto
          endchar
        </CharString>
        <CharString name="bullet">
          -406 201.660003662 200.300003052 rmoveto
          73.5800018311 24.4900054932 7.33000183105 6.83999633789 24.1399993896 72.2400054932 4.7200012207 14.25 0.190002441406 10.2400054932 -4.19000244141 12.6799926758 -24.7200012207 74.2700042725 -6.74000549316 6.72999572754 -74.3099975586 24.7299957275 -12.5299987793 4.19999694824 -9.83999633789 0 -12.5700073242 -4.2200012207 -74.2700042725 -24.7200012207 -6.72999572754 -6.74000549316 -24.7299957275 -74.3099975586 -4.16999816895 -12.6399993896 0.00999450683594 -9.63000488281 4.17999267578 -12.6799926758 24.7200012207 -74.2700042725 6.74000549316 -6.72999572754 74.3099975586 -24.7299957275 rrcurveto
          12.5299987793 -4.19999694824 9.82000732422 0 12.5299987793 4.19999694824 rrcurveto
          -8.83000183105 62.0700073242 rmoveto
          -6.2200012207 -2.08000183105 -4.88000488281 0 -6.2200012207 2.08999633789 -36.8800048828 23 callgsubr
          -3.35000610352 3.33999633789 -12.2700042725 36.8600006104 -2.08000183105 6.28999328613 0 4.7799987793 2.07000732422 6.27000427246 23 callgsubr
          36.8800048828 3.33999633789 3.35000610352 36.8600006104 23 callgsubr
          6.24000549316 2.08999633789 4.88000488281 0 6.2200012207 -2.08000183105 36.8800048828 -12.2700042725 3.35000610352 -3.33999633789 23 callgsubr
          -36.8600006104 2.08000183105 -6.28999328613 -0.0899963378906 -5.08000183105 -2.33999633789 -7.07000732422 rrcurveto
          6 callsubr
          -35.8500061035 -3.63999938965 -3.38999938965 -36.5200042725 -12.1499938965 rrcurveto
          endchar
        </CharString>
        <CharString name="c">
          7 713.539993286 291.850006104 -90 callsubr
        </CharString>
        <CharString name="cacute">
          7 420.990005493 762.169998169 -106 callgsubr
          299.550003052 -477.320007324 -90 callsubr
        </CharString>
        <CharString name="caron">
          291.050003052 693.470001221 -91 callsubr
          endchar
        </CharString>
        <CharString name="ccaron">
          7 437.429992676 764.039993286 -91 callsubr
          137.699996948 -625.350006104 -90 callsubr
        </CharString>
        <CharString name="ccedilla">
          7 721.86000061 291.88999939 rmoveto
          -8.32000732422 hlineto
          -31.1399993896 -196.630004883 -78.0099945068 -66.9900054932 -153.869995117 -0.169998168945 rrcurveto
          -148.910003662 3.99000549316 -93.75 123.190002441 197.960006714 vvcurveto
          196.470001221 96.9199981689 122.179992676 158.630004883 vhcurveto
          109.960006714 -0.0700073242188 85.8600006104 -52.2899932861 36.4499969482 -131.309997559 -32 callgsubr
          29.4199981689 -56.6999969482 -85.4600067139 24.75 -106.5 hhcurveto
          -254 -154.539993286 -139.320007324 -223.679992676 -213.479995728 140.050003052 -132.529998779 218.990005493 -16.9900054932 hvcurveto
          -46.8200073242 -61 -81 callgsubr
          38.6699981689 45 rcurveline
          151.429992676 85.1999969482 59.7599945068 73.9900054932 44.8099975586 hvcurveto
          endchar
        </CharString>
        <CharString name="cdotaccent">
          7 430.789993286 764.229995728 -91 callgsubr
          282.75 -472.380004883 -90 callsubr
        </CharString>
        <CharString name="cedilla">
          228.800003052 -62 rmoveto
          -81 callgsubr
          42.0899963379 48.7799987793 rcurveline
          -48.0599975586 hlineto
          endchar
        </CharString>
        <CharString name="cent">
          -186 545.350006104 304.309997559 rmoveto
          -6.5299987793 hlineto
          -20.9600067139 -138.039993286 -51.1799926758 -49.5099945068 -115.910003662 -2.00999450684 37.9900054932 462.080001831 rcurveline
          63.3800048828 -8.66999816895 50.5200042725 -35.75 24.7100067139 -91.8500061035 rrcurveto
          6.53999328613 137.240005493 hlineto
          -33.4299926758 17.2100067139 -50.6699981689 14.5500030518 -57.9199981689 5.33000183105 6.9700012207 84.7899932861 rcurveline
          -40.8500061035 1.05000305176 -6.7200012207 -83.7100067139 rlineto
          -201.550003052 -120.990005493 -98.6499938965 -171.240005493 -158.169998169 107.729995728 -98.2400054932 171.520004272 -12.7100067139 hvcurveto
          -6.75999450684 -84.1000061035 39.3399963379 -3 7.05000305176 85.7100067139 108.490005493 0.919998168945 67.5 42.2400054932 32.3399963379 54.1600036621 rlinecurve
          -244.740005493 -55.7599945068 rmoveto
          -91.4900054932 17.8999938965 -48.5700073242 82.2200012207 0.259994506836 130.940002441 -0.279998779297 143.050003052 57.3899993896 84.4299926758 119.699996948 2.19000244141 rrcurveto
          endchar
        </CharString>
        <CharString name="circumflex">
          270.86000061 848.649993896 -89 callsubr
          endchar
        </CharString>
        <CharString name="colon">
          -551 111.25 372.509994507 rmoveto
          -86 callgsubr
          -382.509994507 vmoveto
          -86 callgsubr
          endchar
        </CharString>
        <CharString name="comma">
          -543 45.7400054932 -113 -49 callsubr
        </CharString>
        <CharString name="commaaccentcomb">
          -773 34.9499969482 -183 -43 callgsubr
        </CharString>
        <CharString name="copyright">
          75 424 714 rmoveto
          -201.029998779 -162.970001221 -162.970001221 -201.029998779 -201.029998779 162.970001221 -162.970001221 201.029998779 201.029998779 162.970001221 162.970001221 201.029998779 201.029998779 -162.970001221 162.970001221 -201.029998779 hvcurveto
          -46.0500030518 vmoveto
          175.470001221 0.100006103516 142.589996338 -142.589996338 12 callsubr
          10 callsubr
          -142.589996338 -142.589996338 10 callsubr
          12 callsubr
          -142.589996338 142.589996338 0.100006103516 175.470001221 12 callsubr
          175.470001221 142.589996338 142.589996338 175.470001221 12 callsubr
          rrcurveto
          188.429992676 -346.100006104 rmoveto
          -12.7700042725 -107.539993286 -67 -51.4299926758 -93.5599975586 -0.119995117188 -83.9100036621 0.779998779297 -55.3300018311 73.9600067139 0.110000610352 112.479995728 -13 callgsubr
          113.559997559 54.6000061035 74.1699981689 82.6600036621 0.0700073242188 81.8600006104 0.0700073242188 55.8200073242 -44.8000030518 27.1199951172 -75.3999938965 rrcurveto
          5.91000366211 hlineto
          -2.19999694824 112.520004272 -46.0399932861 27.3999938965 -68.5200042725 15.5299987793 -57.4199981689 0.0899963378906 rlinecurve
          -139.449996948 -102.910003662 -95.25 -127.550003052 hvcurveto
          -0.00999450683594 -126.589996338 102.300003052 -95.8600006104 138.809997559 -0.970001220703 rrcurveto
          85.5 69.0299987793 34.8200073242 56.8099975586 43.1000061035 hvcurveto
          -11.6799926758 103.399993896 rlineto
          endchar
        </CharString>
        <CharString name="currency">
          -232 491.699996948 153.649993896 rmoveto
          -60.2700042725 60.2700042725 68.1799926758 79.8500061035 -0.380004882812 118.320007324 -68.9400024414 79.4199981689 rlinecurve
          61.4100036621 61.4100036621 -21.2100067139 21.2100067139 -61.3899993896 -61.3899993896 -79.4299926758 69.2400054932 -118.539993286 0.479995727539 -79.9600067139 -68.2799987793 rlinecurve
          -59.9499969482 59.9499969482 -21.2100067139 -21.2100067139 59.7599945068 -59.7599945068 -70.8699951172 -79.9799957275 -0.380004882812 -120.509994507 70.1000061035 -80.4199981689 rlinecurve
          -58.6100006104 -58.6000061035 21.2100067139 -21.2100067139 58.6300048828 58.6300048828 80.4199981689 -69.8099975586 120.289993286 0.479995727539 79.8699951172 70.7700042725 rlinecurve
          60.0700073242 -60.0800018311 rlineto
          -330.580001831 90.2100067139 rmoveto
          8 callsubr
          7 callsubr
          0 115.869995117 7 callsubr
          7 callsubr
          7 callsubr
          7 callsubr
          115.869995117 0 7 callsubr
          8 callsubr
          7 callsubr
          8 callsubr
          0 -115.869995117 8 callsubr
          8 callsubr
          8 callsubr
          8 callsubr
          -115.869995117 0 8 callsubr
          7 callsubr
          rrcurveto
          endchar
        </CharString>
        <CharString name="d">
          55 1 callgsubr
          699.970001221 -79 callsubr
        </CharString>
        <CharString name="dagger">
          -281 465.86000061 438.410003662 rmoveto
          -33 callgsubr
          32.8600006104 -31 callsubr
          5 callsubr
          -30.8699951172 -223.990005493 60.8699951172 -335.080001831 rlineto
          10 hlineto
          60.9199981689 335.080001831 -30.5599975586 223.990005493 26 callsubr
          57 10 callgsubr
          rlineto
          endchar
        </CharString>
        <CharString name="daggerdbl">
          -280 446.419998169 162.679992676 rmoveto
          -136.410003662 -32.5599975586 -57.5099945068 -30.2599945068 30.3000030518 54.4600067139 32.2400054932 112.380004883 -33.1199951172 112.380004883 26 callsubr
          57.0099945068 10 callgsubr
          20.0700073242 67.6999969482 -33 callgsubr
          32.8699951172 -31 callsubr
          rlineto
          5 callsubr
          -32.2400054932 -112.380004883 33.1199951172 -112.380004883 30.6699981689 -54.6300048828 -57 30.3600006104 -137.539993286 32.6199951172 -20.0700073242 -67.6999969482 20.0700073242 -68.0200042725 137.539993286 32.7299957275 56.6999969482 30.1699981689 -30.3600006104 -54.0599975586 -32.4900054932 -196.800003052 66.7200012207 -20 68.9900054932 20 -32.8600006104 196.800003052 -29.9900054932 54.0500030518 57.2100067139 -30.0899963379 136.410003662 -32.8000030518 20.0700073242 68.0200042725 rlineto
          endchar
        </CharString>
        <CharString name="dcaron">
          55 419.589996338 764.050003052 -91 callsubr
          -515.869995117 -217.229995728 -79 callsubr
        </CharString>
        <CharString name="dcroat">
          55 279.169998169 795.36000061 -63 callgsubr
          -237.039993286 -160.740005493 -79 callsubr
        </CharString>
        <CharString name="degree">
          -529 122.460006714 664.350006104 rmoveto
          -54.4199981689 -44.1199951172 -44.1199951172 -54.4199981689 -54.4199981689 44.1199951172 -44.1199951172 54.4199981689 54.4199981689 44.1199951172 44.1199951172 54.4199981689 54.4199981689 -44.1199951172 44.1199951172 -54.4199981689 hvcurveto
          -50.9499969482 vmoveto
          26.6499938965 20.9400024414 5 callgsubr
          5 callgsubr
          20.9400024414 26.6499938965 26.6499938965 20.9400024414 20.9400024414 26.6499938965 hvcurveto
          endchar
        </CharString>
        <CharString name="dieresis">
          163.779998779 679.080001831 -106 callsubr
          endchar
        </CharString>
        <CharString name="divide">
          -292 240.5 422.690002441 -40 callgsubr
          -200.5 -141.509994507 rmoveto
          -35 callgsubr
          200.5 -231.690002441 -40 callgsubr
          endchar
        </CharString>
        <CharString name="dollar">
          -216 314.990005493 436.550003052 rmoveto
          17.9400024414 233.289993286 70.2299957275 -9.17999267578 42.7599945068 -42.5599975586 0.220001220703 -61.3600006104 rlinecurve
          -24 callsubr
          13.1000061035 146.990005493 rlineto
          -62.4900054932 hlineto
          -21.6699981689 2.77000427246 -24.6999969482 2.4700012207 -23.9299926758 1.82000732422 5.85000610352 76.1399993896 rcurveline
          -41.4499969482 1.05000305176 -5.71000671387 -74.6900024414 rlineto
          -29.3999938965 hlineto
          -116.61000061 0.699996948242 -80.8000030518 -68.7299957275 -8.5 -106.070007324 -7.28999328613 -73.5 31.1399993896 -65.4700012207 71.7599945068 -40.7599945068 107.220001221 -71.1399993896 rcurveline
          -19.7700042725 -258.660003662 -104.710006714 11.2100067139 -62.2599945068 79.1900024414 6.94999694824 96.3999938965 rlinecurve
          -8.78999328613 hlineto
          -26.1600036621 -43.6199951172 -14.1000061035 -84.3399963379 16.5599975586 -41.8000030518 32.7200012207 -33.5700073242 70.9400024414 -23.1399993896 85.5599975586 -4 -6.5299987793 -85 rcurveline
          40.8999938965 -3 6.78999328613 88 146.970001221 6 91.0899963379 75.7700042725 5.83000183105 125.550003052 rlinecurve
          4.25 75.4199981689 -33.6300048828 55.3300018311 -60.2899932861 34.7799987793 rrcurveto
          -190.679992676 123.86000061 rmoveto
          -41.9400024414 24.5200042725 -30.2799987793 27.9799957275 2.42999267578 40.8600006104 2.30000305176 50.5500030518 46.0700073242 40.5700073242 69.0500030518 4.16000366211 -15.9900054932 -209.190002441 rcurveline
          26.0099945068 -199.899993896 rmoveto
          27.7299957275 -18.3999938965 57.2700042725 -31.5399932861 22.7100067139 -32.7700042725 -0.0599975585938 -39.3999938965 rlinecurve
          0.0599975585938 -58.1399993896 -45.8899993896 -47.8200073242 -79.7700042725 -5.36999511719 rrcurveto
          endchar
        </CharString>
        <CharString name="dotaccent">
          296.619995117 679.279998779 -91 callgsubr
          endchar
        </CharString>
        <CharString name="dotlessi">
          -387 345.410003662 -28 callgsubr
          554.949996948 -102 callsubr
          303.789993286 hlineto
          endchar
        </CharString>
        <CharString name="e">
          -142 595.699996948 204.039993286 rmoveto
          -107 callsubr
          517.770004272 -38 callgsubr
        </CharString>
        <CharString name="eacute">
          -142 312.169998169 762.169998169 -106 callgsubr
          290.529998779 -565.130004883 rmoveto
          -107 callsubr
          517.770004272 -38 callgsubr
        </CharString>
        <CharString name="ecaron">
          -142 328.61000061 764.039993286 -91 callsubr
          128.679992676 -713.160003662 rmoveto
          -107 callsubr
          517.770004272 -38 callgsubr
        </CharString>
        <CharString name="ecircumflex">
          -142 316.070007324 915.25 -89 callsubr
          423.850006104 -558.050003052 rmoveto
          -107 callsubr
          517.770004272 -38 callgsubr
        </CharString>
        <CharString name="edieresis">
          -142 203.63999939 758.869995117 -106 callsubr
          158.619995117 -554.830001831 rmoveto
          -107 callsubr
          517.770004272 -38 callgsubr
        </CharString>
        <CharString name="edotaccent">
          -142 321.970001221 764.229995728 -91 callgsubr
          273.729995728 -560.190002441 rmoveto
          -107 callsubr
          517.770004272 -38 callgsubr
        </CharString>
        <CharString name="egrave">
          -142 341.600006104 770.940002441 -99 callsubr
          261.100006104 -559.899993896 rmoveto
          -107 callsubr
          517.770004272 -38 callgsubr
        </CharString>
        <CharString name="eight">
          -170 389.289993286 396.729995728 rmoveto
          72.9100036621 20.4400024414 58.0200042725 50.9499969482 12 callsubr
          76.4199981689 0.130004882812 103.970001221 -100.880004883 66.2799987793 -120.300003052 -0.789993286133 -128.539993286 -0.789993286133 -91.4400024414 -74.2599945068 -0.0200042724609 -117.75 0.00999450683594 -85.5 47.9700012207 -56.5599975586 56.3200073242 -40.7599945068 -65.6900024414 -24.6300048828 -77.6499938965 -47 -1.17999267578 -98.8899993896 rrcurveto
          -131.669998169 -1.96000671387 124.580001831 -50.1999969482 128.070007324 hhcurveto
          165.649993896 108.949996948 74.8399963379 129.529998779 hvcurveto
          -0.00999450683594 113.699996948 -84.2100067139 46.0099945068 -90.6399993896 46.6499938965 rrcurveto
          -50.3300018311 26.3099975586 rmoveto
          -95.2599945068 51.7299957275 -35.3500061035 36.6199951172 -0.0200042724609 59.9199981689 0.0200042724609 56.5599975586 32.4799957275 45.0200042725 56.8099975586 -1.63999938965 58.5500030518 16 callgsubr
          32.4100036621 -46.75 1.38000488281 -64.8000030518 1.19000244141 -43.1399993896 -11.7400054932 -58.6199951172 -33.4900054932 -36.8500061035 rrcurveto
          -51.3300018311 -391.130004883 rmoveto
          -77.3300018311 4.11000061035 -46.8999938965 55.7700042725 0.389999389648 93.9600067139 0.25 58.7599945068 18.8999938965 43.4499969482 29.5099945068 30.6000061035 17.1199951172 -10.2400054932 17.1300048828 -9.10000610352 16.1199951172 -8.30000305176 98.8999938965 -50.8399963379 54.0899963379 -33.1900024414 0.00999450683594 -66.5599975586 -0.00999450683594 -61.4400024414 -50.75 -50.7799987793 -77.4199981689 3.80999755859 rrcurveto
          endchar
        </CharString>
        <CharString name="ellipsis">
          -101 111.25 -10 rmoveto
          -86 callgsubr
          227.320007324 hmoveto
          -86 callgsubr
          223.38999939 hmoveto
          -86 callgsubr
          endchar
        </CharString>
        <CharString name="emacron">
          -142 188.190002441 795.36000061 -63 callgsubr
          407.509994507 -656.669998169 rmoveto
          -107 callsubr
          517.770004272 -38 callgsubr
        </CharString>
        <CharString name="emdash">
          27 264.929992676 vmoveto
          800 52.1399993896 -800 hlineto
          endchar
        </CharString>
        <CharString name="endash">
          -273 264.929992676 vmoveto
          500 52.1399993896 -500 hlineto
          endchar
        </CharString>
        <CharString name="eng">
          97 532.800003052 -23 callgsubr
          -402.979995728 vlineto
          -510.580001831 486.419998169 rlineto
          -9.86000061035 hlineto
          0 11.6399993896 -50.5800018311 -74.3399963379 vvcurveto
          -521.830001831 vlineto
          -31.6900024414 -0.669998168945 -25.8600006104 -25.5 -31.8600006104 hhcurveto
          -17.4600067139 hlineto
          -0.149993896484 -11.0700073242 rlineto
          288.36000061 20 callgsubr
          -15 callsubr
          404.399993896 vlineto
          372.490005493 -355.25 rlineto
          -103.809997559 -46 callsubr
        </CharString>
        <CharString name="eogonek">
          -142 606.36000061 -120 -22 callsubr
          15.8800048828 29 54.8200073242 13 46.9299926758 -47 callgsubr
          rcurveline
          -10 hlineto
          -107 callsubr
          466.339996338 hlineto
          -43.9199981689 -9 -39.3000030518 -29 -4.78999328613 -51 -49 callgsubr
          rrcurveto
          endchar
        </CharString>
        <CharString name="equal">
          -292 40 357.820007324 rmoveto
          -35 callgsubr
          -232.13999939 vmoveto
          -35 callgsubr
          endchar
        </CharString>
        <CharString name="eth">
          59 44.0599975586 699.970001221 11 callsubr
          -9.91000366211 -66 callsubr
          33.0800018311 27.1799926758 -25.0599975586 -32.1600036621 3.44000244141 hvcurveto
          -261.779998779 -78.7899932861 4 callgsubr
          78.7899932861 -256.220001221 vlineto
          -34.7700042725 -0.729995727539 -28.3699951172 -27.9799957275 -34.9600067139 -95 callsubr
          362.820007324 hlineto
          236.240005493 145.229995728 133.809997559 215.839996338 216.240005493 -145.229995728 134.020004272 -236.240005493 hvcurveto
          -135.839996338 -371.029998779 rmoveto
          129.660003662 1 callgsubr
          -129.660003662 286.699996948 -1 callgsubr
          143.289993286 92.2799987793 -118.029998779 -190.059997559 -189.470001221 -92.2799987793 -117.660003662 -143.289993286 hvcurveto
          -123.699996948 hlineto
          endchar
        </CharString>
        <CharString name="exclam">
          -504 193.059997559 378.669998169 rmoveto
          18.3500061035 322.929992676 rlineto
          -153.929992676 hlineto
          18.3200073242 -322.929992676 35.0599975586 -172.240005493 rlineto
          46.4299926758 hlineto
          -23.9400024414 -216.429992676 rmoveto
          -86 callgsubr
          endchar
        </CharString>
        <CharString name="exclamdown">
          -504 136.11000061 711.669998169 rmoveto
          -48 callsubr
          -32.3800048828 -32.3800048828 -31 callgsubr
          32.3800048828 -32.3800048828 39.9400024414 -28 callsubr
          32.3800048828 39.9400024414 39.9400024414 -32.3800048828 32.3800048828 -48 callsubr
          hvcurveto
          -59.7100067139 -388.740005493 rmoveto
          -18.3500061035 -322.929992676 rlineto
          153.929992676 hlineto
          -18.3200073242 322.929992676 -35.0599975586 171.130004883 rlineto
          -46.4299926758 hlineto
          endchar
        </CharString>
        <CharString name="f">
          -178 -90 callgsubr
          endchar
        </CharString>
        <CharString name="fi">
          208 -90 callgsubr
          395.720001221 -538.589996338 -27 callsubr
          554.949996948 -102 callsubr
          303.789993286 hlineto
          endchar
        </CharString>
        <CharString name="five">
          -218 481.820007324 635.070007324 rmoveto
          -10 hlineto
          -29.8999938965 -15.3399963379 -22.3600006104 -20.1000061035 -41.6999969482 hhcurveto
          -258.210006714 -21.0700073242 -81.4799957275 -339.910003662 9 -5.21000671387 155.910003662 59.5800018311 122.300003052 -53.0800018311 -7.80000305176 -121.800003052 rlinecurve
          -10.3999938965 -162.580001831 -209.279998779 -65 -84.75 3 -2 -10 rcurveline
          145 -65 313.070007324 68 10.7899932861 245.470001221 7.5299987793 171.600006104 -145.809997559 99.2200012207 -221.479995728 -53.7599945068 29.6499938965 112.529998779 rcurveline
          278.479995728 21.0700073242 rlineto
          endchar
        </CharString>
        <CharString name="fl">
          438 -90 callgsubr
          646.020004272 -344.550003052 rmoveto
          -38 callsubr
          -31.0099945068 -88 callsubr
          endchar
        </CharString>
        <CharString name="florin">
          -229 57.2100067139 599.960006714 rmoveto
          -8.74000549316 11.5500030518 vlineto
          28.3600006104 23.3099975586 -23.1399993896 -29.6499938965 0.740005493164 hvcurveto
          -508.070007324 vlineto
          -0.210006713867 -91.3600006104 -27.7700042725 -71 -73.0399932861 -36 rrcurveto
          -10 vlineto
          121.899993896 128.130004883 62 164.570007324 hvcurveto
          228.800003052 104.100006104 vlineto
          45.9600067139 -1.44999694824 30.1499938965 -33.2200012207 -44.3500061035 vvcurveto
          -6.41999816895 vlineto
          8.66999816895 -0.690002441406 rlineto
          212.289993286 vlineto
          -8.66999816895 -0.690002441406 rlineto
          -6.41999816895 vlineto
          -44.7799987793 -30.7299957275 -33.4299926758 -46.6999969482 -0.850006103516 vhcurveto
          -102.779998779 242.419998169 130.679992676 hlineto
          58.8800048828 -0.860000610352 34.1699981689 -36.7899932861 -57.6300048828 vvcurveto
          -9.32000732422 8.66999816895 160.160003662 vlineto
          -15.2799987793 -6.2799987793 -48.8899993896 -8.86000061035 -36.3200073242 -0.179992675781 rrcurveto
          endchar
        </CharString>
        <CharString name="four">
          -154 560.479995728 112.330001831 rmoveto
          27.0700073242 117.5 rlineto
          -10 hlineto
          -20.8099975586 -12 -11.8800048828 -11.3300018311 -36.8399963379 hhcurveto
          -43.5099945068 416.309997559 -9.36000061035 hlineto
          -457.350006104 -491.669998169 rlineto
          -10 316.720001221 -150.330001831 vlineto
          -30 -1.11999511719 -24.6100006104 -22 -29.4499969482 hhcurveto
          -10.8999938965 20 callgsubr
          -10 rlineto
          282.460006714 20 callgsubr
          10 rlineto
          -10.8999938965 hlineto
          -29.7100067139 -25.1300048828 24 29 -0.360000610352 hvcurveto
          149.330001831 vlineto
          -334.699996948 85.3600006104 rmoveto
          184.699996948 197.270004272 rlineto
          -197.270004272 vlineto
          endchar
        </CharString>
        <CharString name="fraction">
          -196 498.350006104 -48 callgsubr
          endchar
        </CharString>
        <CharString name="g">
          63 819.279998779 325.38999939 -94 callsubr
          endchar
        </CharString>
        <CharString name="gbreve">
          63 535.720001221 904.11000061 -83 callsubr
          271.910003662 -578.720001221 -94 callsubr
          endchar
        </CharString>
        <CharString name="gcommaaccent">
          63 819.279998779 325.38999939 -94 callsubr
          -418.979995728 -576.410003662 rmoveto
          72.4299926758 -77 callgsubr
          6 callsubr
          -45 callgsubr
        </CharString>
        <CharString name="gdotaccent">
          63 421.580001831 764.229995728 -91 callgsubr
          397.699996948 -438.850006104 -94 callsubr
          endchar
        </CharString>
        <CharString name="germandbls">
          383 829.089996338 482.710006714 rmoveto
          -42.5599975586 25.1100006104 -29.5500030518 28.4799957275 2.42999267578 39.3800048828 rrcurveto
          53.6900024414 2.42999267578 49.7299957275 42.4900054932 78.7299957275 hhcurveto
          84.5899963379 56.2400054932 -45.6799926758 -69.4299926758 -74 callgsubr
          0 callgsubr
          13.0899963379 146.990005493 rlineto
          -62.8000030518 hlineto
          5.78999328613 -45.6699981689 -58.3399963379 4.4700012207 -32.1799926758 hhcurveto
          -126.13999939 -75.8699951172 -71.5299987793 -103.539993286 -8.5 hvcurveto
          -7.28999328613 -72.8899993896 31.5099945068 -66.3300018311 71.4900054932 -40.2400054932 174.25 -115.619995117 rcurveline
          56.1900024414 -30.5299987793 23.8099975586 -32.1799926758 -0.0599975585938 -40.5599975586 0.0599975585938 -62.6499938965 -51.2899932861 -48.1900024414 -86.9600067139 -1.58999633789 -119.970001221 -1.94000244141 -76.6300048828 86.0099945068 8.02000427246 104.259994507 rrcurveto
          -8.78999328613 hlineto
          -26.1600036621 -43.6199951172 -14.1000061035 -84.3399963379 16.5599975586 -41.8000030518 rrcurveto
          -37.6000061035 36.4799957275 84.0399932861 -23.1100006104 89.6799926758 hhcurveto
          159.929992676 98.1999969482 76.7599945068 130.270004272 6.07000732422 hvcurveto
          4.25 74.7599945068 -33.1699981689 55.7700042725 -60.8699951172 35.2799987793 rrcurveto
          -768.669998169 123.86000061 -102 callgsubr
          endchar
        </CharString>
        <CharString name="grave">
          -237 272.410003662 751.149993896 -99 callsubr
          endchar
        </CharString>
        <CharString name="greater">
          -292 40 525.070007324 rmoveto
          -61.9600067139 -19 callsubr
          endchar
        </CharString>
        <CharString name="greaterequal">
          -220 40 587.429992676 rmoveto
          -61.9700012207 -19 callsubr
          -401.720001221 -361.679992676 rmoveto
          -35 callgsubr
          endchar
        </CharString>
        <CharString name="guillemotleft">
          -272 -57 callgsubr
          197.929992676 -5 rmoveto
          -33.3099975586 -68.25 -31.1699981689 -52.1799926758 -35.1000061035 -72.5299987793 35.4299926758 -73.8899993896 31.5099945068 -53.5399932861 33.6499938965 -69.6100006104 -9 -6.21000671387 rcurveline
          -66.4199981689 86.1799926758 -72.4900054932 65.3899993896 -72.3099975586 51.6799926758 72.3099975586 49.9199981689 72.1000061035 54.4100036621 66.8200073242 93.6300048828 rrcurveto
          endchar
        </CharString>
        <CharString name="guillemotright">
          -272 242.070007324 94.7100067139 rmoveto
          33.6499938965 69.6100006104 31.5 -55 callgsubr
          72.3200073242 -49.9199981689 -72.3200073242 -25 callsubr
          -198.929992676 6.21000671387 rmoveto
          33.6499938965 69.6100006104 31.5099945068 -55 callgsubr
          72.3099975586 -49.9199981689 -72.3099975586 -25 callsubr
          endchar
        </CharString>
        <CharString name="guilsinglleft">
          -462 -57 callgsubr
          endchar
        </CharString>
        <CharString name="guilsinglright">
          -462 52.1399993896 94.7100067139 rmoveto
          33.6499938965 69.6100006104 31.5099945068 -55 callgsubr
          72.3099975586 -49.9199981689 -72.3099975586 -25 callsubr
          endchar
        </CharString>
        <CharString name="h">
          88 819.710006714 -28 callgsubr
          554.330001831 vlineto
          34.8300018311 0.639999389648 -34 callsubr
          -258.929992676 -324.220001221 258.300003052 -102 callsubr
          303.789993286 -73 callgsubr
          254.520004272 324.220001221 -255.279998779 vlineto
          -34.4799957275 -1.05000305176 -28.2400054932 -27.6399993896 -34.7400054932 -95 callsubr
          303.789993286 hlineto
          endchar
        </CharString>
        <CharString name="hbar">
          88 819.710006714 -28 callgsubr
          419.169998169 66.5200042725 1 callgsubr
          -66.5500030518 93.0099945068 vlineto
          34.8300018311 0.669998168945 -34 callsubr
          -94.2799987793 -324.220001221 93.6399993896 vlineto
          34.5399932861 0.979995727539 28.2700042725 27.7200012207 34.7899932861 -80 callsubr
          12.6499938965 hlineto
          34.8600006104 28.3099975586 -27.8300018311 -34.6399993896 0.869995117188 hvcurveto
          -93.4299926758 -64.0899963379 4 callgsubr
          64.0899963379 -419.169998169 vlineto
          -34.8300018311 -0.660003662109 -100 callsubr
          303.789993286 -73 callgsubr
          254.520004272 324.220001221 -255.279998779 vlineto
          -34.4799957275 -1.05000305176 -28.2400054932 -27.6399993896 -34.7400054932 -95 callsubr
          303.789993286 hlineto
          -551.160003662 369.520004272 rmoveto
          122.520004272 324.220001221 -122.520004272 vlineto
          endchar
        </CharString>
        <CharString name="hungarumlaut">
          168.559997559 746.11000061 -92 callgsubr
          endchar
        </CharString>
        <CharString name="hyphen">
          -26 callgsubr
        </CharString>
        <CharString name="i">
          -387 345.410003662 -28 callgsubr
          554.949996948 -102 callsubr
          303.789993286 hlineto
          endchar
        </CharString>
        <CharString name="iacute">
          -387 182.740005493 762.169998169 -106 callgsubr
          169.669998169 -759.169998169 -27 callsubr
          554.949996948 -102 callsubr
          303.789993286 hlineto
          endchar
        </CharString>
        <CharString name="icircumflex">
          -387 186.649993896 915.25 -89 callsubr
          302.990005493 -752.089996338 -27 callsubr
          554.949996948 -102 callsubr
          303.789993286 hlineto
          endchar
        </CharString>
        <CharString name="idieresis">
          -387 74.2100067139 758.869995117 -106 callsubr
          37.7599945068 -748.869995117 -27 callsubr
          554.949996948 -102 callsubr
          303.789993286 hlineto
          endchar
        </CharString>
        <CharString name="igrave">
          -387 212.179992676 770.940002441 -99 callsubr
          140.240005493 -753.940002441 -27 callsubr
          554.949996948 -102 callsubr
          303.789993286 hlineto
          endchar
        </CharString>
        <CharString name="ij">
          -3 345.410003662 -28 callgsubr
          554.949996948 -102 callsubr
          303.789993286 hlineto
          85.3300018311 -57 callsubr
        </CharString>
        <CharString name="imacron">
          -387 58.7700042725 795.36000061 -63 callgsubr
          286.63999939 -850.720001221 -27 callsubr
          554.949996948 -102 callsubr
          303.789993286 hlineto
          endchar
        </CharString>
        <CharString name="infinity">
          -156 316.270004272 251.770004272 rmoveto
          -48.0299987793 32.3500061035 57.5500030518 -45.2799987793 65.1300048828 hhcurveto
          72.9400024414 55.9799957275 60.1000061035 78.1199951172 11 callgsubr
          78.5 -0.960006713867 -55.9100036621 60.3399963379 -71.1000061035 hhcurveto
          -58.6499938965 -58.0200042725 -43.9100036621 -47.8899993896 -37.6799926758 hvcurveto
          48.8200073242 -38.9499969482 -57.6699981689 42.9799957275 -58.4400024414 hhcurveto
          -71.1000061035 -55.9100036621 -60.3399963379 -78.5 -0.960006713867 hvcurveto
          -78.1199951172 -0.949996948242 55.9799957275 -60.1000061035 72.9400024414 hhcurveto
          63.3899993896 57.8300018311 43.1300048828 50.1799926758 33.1499938965 hvcurveto
          -154.369995117 -38.1699981689 rmoveto
          -37.4600067139 -33.3600006104 37.5399932861 45.4700012207 45.9499969482 33.3699951172 37.8200073242 37.4499969482 47.3699951172 41.6900024414 -42.2799987793 -40.7100067139 31.0599975586 hvcurveto
          -41.4299926758 -27.9499969482 -44.7100067139 -42.3600006104 -47.4700012207 hhcurveto
          309.410003662 hmoveto
          -47.6100006104 -42.5500030518 39.1600036621 44.6199951172 -29.9700012207 hvcurveto
          37.9799957275 29.0599975586 43.8099975586 45.0200042725 47.2599945068 hhcurveto
          37.4499969482 33.3699951172 -37.8200073242 -45.9499969482 -45.4700012207 -33.3600006104 -37.5399932861 -37.4600067139 hvcurveto
          endchar
        </CharString>
        <CharString name="integral">
          -211 181.690002441 -63 rmoveto
          -3.17999267578 -60 -10.0800018311 -17 -18.1900024414 -1 -27.8600006104 -1 1.69000244141 33 -18.7700042725 23 -18.6999969482 24 -37.5800018311 8 -26.8399963379 -28 -24.1600036621 -25 10.6199951172 -35 19.9799957275 -19 34.6100006104 -32 67.4600067139 -2 36.2799987793 4 90.8099975586 9 70.2400054932 65 10.1000061035 143.350006104 3.58999633789 46.6000061035 15.1600036621 290.300003052 16.8399963379 300.710006714 rrcurveto
          3.17999267578 64.1399993896 13.1000061035 13.0700073242 17 0.649993896484 27.2200012207 1.21000671387 -2.75 -32.4600067139 19.8699951172 -22.6799926758 18.0899963379 -21.2899932861 37.5200042725 -11.1399993896 27.5200042725 26.3200073242 24.7299957275 23.5399932861 -5.11999511719 36 -26.0500030518 21.6799926758 -39.4600067139 33.0700073242 -77.1699981689 -1.7200012207 -22.9199981689 -2.38999938965 -87.1600036621 -9 -76.9199981689 -72 -7.66999816895 -136.350006104 rrcurveto
          endchar
        </CharString>
        <CharString name="iogonek">
          -387 345.570007324 hmoveto
          -74 callsubr
          -0.649993896484 hvcurveto
          554.949996948 -102 callsubr
          141.690002441 hlineto
          -45.8699951172 -8 -42.0899963379 -29 -4.9700012207 -53 -49 callgsubr
          -6 6 rcurveline
          -49.6900024414 -45 -61.8300018311 27 -4.42999267578 60 -2.05999755859 31 13.8300018311 34 53.3999938965 14 rrcurveto
          endchar
        </CharString>
        <CharString name="j">
          -389 44.9100036621 -57 callsubr
        </CharString>
        <CharString name="k">
          -79 callgsubr
          endchar
        </CharString>
        <CharString name="kcommaaccent">
          -79 callgsubr
          -283.820007324 -280.020004272 -29 callsubr
          3 callsubr
          -45 callgsubr
        </CharString>
        <CharString name="l">
          -157 595.710006714 204.039993286 -61 callsubr
        </CharString>
        <CharString name="lacute">
          -157 184.039993286 762.169998169 -106 callgsubr
          418.660003662 -565.130004883 -61 callsubr
        </CharString>
        <CharString name="lcaron">
          -157 -55 callsubr
          191.539993286 -328.36000061 -61 callsubr
        </CharString>
        <CharString name="lcommaaccent">
          -157 595.710006714 204.039993286 -88 callgsubr
          -320.820007324 -451.039993286 rmoveto
          72.4199981689 -77 callgsubr
          6 callsubr
          -45 callgsubr
        </CharString>
        <CharString name="ldot">
          -157 595.710006714 204.039993286 -88 callgsubr
          -189.720001221 153.119995117 -41 callgsubr
        </CharString>
        <CharString name="less">
          -280 441.720001221 525.070007324 rmoveto
          -5 callgsubr
          61.9600067139 vlineto
          2 callsubr
          endchar
        </CharString>
        <CharString name="lessequal">
          -280 441.720001221 218.75 rmoveto
          2 callsubr
          61.9700012207 vlineto
          -5 callgsubr
          -401.720001221 -62.4700012207 rmoveto
          -29 callgsubr
          401.720001221 -21 callsubr
          vlineto
          endchar
        </CharString>
        <CharString name="logicalnot">
          40 403.300003052 rmoveto
          -29 callgsubr
          464.580001831 -151.589996338 -21 callsubr
          208.729995728 vlineto
          endchar
        </CharString>
        <CharString name="lozenge">
          -256 474.899993896 349.789993286 rmoveto
          -221.820007324 -363.789993286 -209.149993896 363.789993286 209.149993896 364.210006714 rlineto
          -151.88999939 -364.199996948 rmoveto
          152.419998169 -270.779998779 164.029998779 270.779998779 -164.029998779 270.800003052 rlineto
          endchar
        </CharString>
        <CharString name="lslash">
          -157 595.710006714 204.039993286 rmoveto
          -53 callgsubr
          325.520004272 hlineto
          117.61000061 68.0299987793 -21.6999969482 38.1100006104 -95.9100036621 -55.4799957275 rlineto
          208.229995728 vlineto
          34.8300018311 0.679992675781 28.3999938965 28.0500030518 35 hhcurveto
          -10 callsubr
          35 -41 callsubr
          -28.0500030518 -34.8300018311 0.660003662109 hvcurveto
          -295.020004272 vlineto
          -100.910003662 -58.3800048828 26 callgsubr
          79.2200012207 45.8300018311 rlineto
          -208.600006104 vlineto
          -34.8300018311 -0.660003662109 -100 callsubr
          517.770004272 -38 callgsubr
        </CharString>
        <CharString name="m">
          -71 callgsubr
        </CharString>
        <CharString name="macron">
          158 702.940002441 -63 callgsubr
          endchar
        </CharString>
        <CharString name="minus">
          -292 40 281.179992676 rmoveto
          -35 callgsubr
          endchar
        </CharString>
        <CharString name="mu">
          -71 callgsubr
        </CharString>
        <CharString name="multiply">
          -362 368.399993896 431.580001831 rmoveto
          -40.4100036621 40.4100036621 9 callsubr
          15 callsubr
          -40.4100036621 -40.4100036621 15 callsubr
          9 callsubr
          40.4100036621 -40.4100036621 15 callsubr
          15 callsubr
          15 callsubr
          8 callgsubr
          40.4100036621 40.4100036621 8 callgsubr
          15 callsubr
          rlineto
          endchar
        </CharString>
        <CharString name="n">
          92 532.550003052 700.020004272 -97 callsubr
          endchar
        </CharString>
        <CharString name="nacute">
          92 406.990005493 762.169998169 -106 callgsubr
          132.559997559 -69.1499938965 -97 callsubr
          endchar
        </CharString>
        <CharString name="ncaron">
          92 423.429992676 764.050003052 -91 callsubr
          -29.2899932861 -217.190002441 -97 callsubr
          endchar
        </CharString>
        <CharString name="ncommaaccent">
          92 532.550003052 700.020004272 -97 callsubr
          -409.089996338 -947.020004272 rmoveto
          72.4199981689 -77 callgsubr
          3 callsubr
          -45 callgsubr
        </CharString>
        <CharString name="nine">
          -144 372.149993896 250.779998779 rmoveto
          -20.5500030518 -20.1699981689 -33.9199981689 -13.6799926758 -34.0700073242 7 -51.6100006104 6.38999938965 -31.0599975586 47.0399932861 -0.729995727539 107.320007324 -0.740005493164 94.5399932861 25.3300018311 83.9600067139 82.2700042725 -0.0200042724609 85.1300048828 0.0200042724609 21.7200012207 -90.4600067139 24 callsubr
          -164.539993286 -0.179992675781 -212.25 -37.6499938965 -151.929992676 -246.940002441 -75 3.64999389648 -7 rcurveline
          302.050003052 -17 144.960006714 201.679992676 251.210006714 vvcurveto
          211.710006714 -101.330001831 104.380004883 -173.199996948 -2.58999633789 vhcurveto
          -168.949996948 -2.61999511719 -89.4199981689 -99.5200042725 -0.820007324219 -136.759994507 -2.30999755859 -242.740005493 261.770004272 -13.5099945068 73.0099945068 126.13999939 rrcurveto
          endchar
        </CharString>
        <CharString name="notequal">
          -292 441.720001221 357.820007324 rmoveto
          -21 callsubr
          -101.36000061 vlineto
          41.1499938965 85.6399993896 -52.0800018311 24.0299987793 -53.0099945068 -109.669998169 rlineto
          -236.419998169 -29 callgsubr
          208.800003052 hlineto
          -56.9700012207 -117.86000061 rlineto
          -151.830001831 -29 callgsubr
          124.210006714 hlineto
          -47.1600036621 -97.5800018311 53.3500061035 -24.0399932861 58.4299926758 121.619995117 rlineto
          212.88999939 -21 callsubr
          -185.440002441 hlineto
          56.6199951172 117.86000061 rlineto
          endchar
        </CharString>
        <CharString name="ntilde">
          92 596.539993286 889.130004883 -98 callgsubr
          -52.5599975586 -189.11000061 -97 callsubr
          endchar
        </CharString>
        <CharString name="numbersign">
          -199 534.210006714 448.660003662 rmoveto
          48.2100067139 -107.339996338 vlineto
          -5 callsubr
          -149.789993286 hlineto
          -5 callsubr
          -112.660003662 -48.2100067139 104.160003662 hlineto
          -32.3699951172 -183.570007324 rlineto
          -115.789993286 -48.2100067139 107.289993286 -7 callsubr
          149.789993286 -7 callsubr
          112.710006714 48.2100067139 -104.210006714 18 callsubr
          -82.5800018311 -183.570007324 rmoveto
          -149.789993286 18 callsubr
          149.789993286 hlineto
          endchar
        </CharString>
        <CharString name="o">
          106 440.220001221 714 -99 callgsubr
        </CharString>
        <CharString name="oacute">
          106 430.259994507 770.669998169 -106 callgsubr
          16.9600067139 -63.6699981689 -99 callgsubr
        </CharString>
        <CharString name="ocircumflex">
          106 434.169998169 923.75 -89 callsubr
          150.270004272 -56.5899963379 -99 callgsubr
        </CharString>
        <CharString name="odieresis">
          106 321.729995728 767.369995117 -106 callsubr
          -114.960006714 -53.3699951172 -99 callgsubr
        </CharString>
        <CharString name="oe">
          303 1041.05999756 21 callgsubr
          -31.0099945068 -76 callsubr
          -132.86000061 281.410003662 135.38999939 -47 callsubr
          -134.149993896 -34 callgsubr
          169.029998779 -43 callsubr
          -248.470001221 -51 callsubr
          14.5200042725 0 11.6000061035 hhcurveto
          381.960006714 19 callsubr
          -487.339996338 -50 callgsubr
        </CharString>
        <CharString name="ogonek">
          425.050003052 -107 -22 callsubr
          15.8999938965 29.6100006104 54.9100036621 12.8899993896 -10 3 rcurveline
          -57.4100036621 3.33999633789 -65.1199951172 -28.8399963379 -6.25999450684 -67 -49 callgsubr
          rrcurveto
          endchar
        </CharString>
        <CharString name="ograve">
          106 459.699996948 779.440002441 -99 callsubr
          -12.4799957275 -58.4400024414 -99 callgsubr
        </CharString>
        <CharString name="ohungarumlaut">
          106 342.600006104 774.220001221 -92 callgsubr
          -69.3200073242 -65.2599945068 -99 callgsubr
        </CharString>
        <CharString name="omacron">
          106 306.289993286 803.86000061 -63 callgsubr
          133.929992676 -155.220001221 -99 callgsubr
        </CharString>
        <CharString name="one">
          -392 41.8300018311 9.97999572754 rmoveto
          -44 callsubr
          -9.97999572754 rlineto
          301.550003052 20 callgsubr
          10 rlineto
          -20.9100036621 hlineto
          -29.9199981689 -25.2700042725 23.8000030518 29.6999969482 hvcurveto
          473.419998169 vlineto
          0.529998779297 29.5399932861 24.5700073242 23.6399993896 29.8200073242 -0.0299987792969 rrcurveto
          20.9100036621 hlineto
          -54 callsubr
          9.97999572754 rlineto
          -301.550003052 hlineto
          -54 callsubr
          -10 rlineto
          20.9100036621 hlineto
          29.9199981689 25.2700042725 -23.8000030518 -29.6999969482 hvcurveto
          -472.449996948 vlineto
          -29.9900054932 -24.7799987793 -24.1600036621 14 callgsubr
          vhcurveto
          endchar
        </CharString>
        <CharString name="onehalf">
          59 576.13999939 -48 callgsubr
          -57.6499938965 300.61000061 -51 callgsubr
          14.9100036621 2 callgsubr
          262.190002441 -42.7799987793 -68 callgsubr
        </CharString>
        <CharString name="onequarter">
          -26 589.88999939 -48 callgsubr
          112.460006714 306.490005493 rmoveto
          -17.6499938965 -14.9100036621 14.0399932861 17.5200042725 hvcurveto
          368.919998169 0 callsubr
          vlineto
          -38.4799957275 -25.3999938965 -79.2200012207 -10.1399993896 -32.1199951172 -2.19999694824 rrcurveto
          0 callsubr
          12.5700073242 vlineto
          22.6100006104 14.2100067139 -9.91000366211 -28.6699981689 hvcurveto
          -286.309997559 vlineto
          -17.6900024414 -14.7899932861 -14.25 -17.7799987793 vhcurveto
          -12.3300018311 0 callsubr
          196.279998779 5.89999389648 hlineto
          465.550003052 -207.039993286 -6 callgsubr
          -8.41000366211 -23 callsubr
          -68.6199951172 vlineto
          -18.7200012207 -0.710006713867 -15.3999938965 -13.7299957275 -18.4299926758 -4 callgsubr
          -18.6399993896 -15.7599945068 14.8699951172 18.6399993896 -0.169998168945 hvcurveto
          67.5599975586 -9 callgsubr
        </CharString>
        <CharString name="onesuperior">
          -513 38.3500061035 308.149993896 -51 callgsubr
          14.8999938965 2 callgsubr
          endchar
        </CharString>
        <CharString name="ordfeminine">
          -392 188.080001831 711.300003052 rmoveto
          -4.63000488281 hlineto
          -1.77000427246 -15.8000030518 -20.3099975586 -43.0399932861 -4.33999633789 -9.69000244141 -114.259994507 -233.550003052 rcurveline
          -19.0500030518 -11.0599975586 -16.1000061035 -7.97999572754 -14.5 hhcurveto
          -4.11000061035 -4.91999816895 113.25 4.88000488281 -4.33999633789 hlineto
          -12.75 -15.1600036621 11.1999969482 19.6900024414 9.08000183105 hvcurveto
          20.3500061035 44.3600006104 rlineto
          108.289993286 hlineto
          20.0800018311 -46.1100006104 rlineto
          -18.6000061035 6.86999511719 -14.0599975586 -10.5299987793 -12.3699951172 hhcurveto
          -4.33999633789 -4.88000488281 172.61000061 4.91999816895 -4.13000488281 hlineto
          -14.5099945068 -15.7100067139 8.35000610352 20.0099945068 -11.6900024414 hvcurveto
          -219.429992676 72.0399932861 rmoveto
          44.0700073242 95.6100006104 41.6399993896 -95.6100006104 rlineto
          endchar
        </CharString>
        <CharString name="ordmasculine">
          -369 202.289993286 711.449996948 rmoveto
          -109.190002441 -69.1699981689 -65.9299926758 -103.009994507 -102.600006104 69.1699981689 -65.8099975586 109.190002441 109.619995117 69.1699981689 65.8099975586 102.600006104 103.009994507 -69.1699981689 65.9299926758 -109.619995117 hvcurveto
          -313.61000061 vmoveto
          -53.9299926758 -29.8500061035 56.3800048828 88.2899932861 88.6999969482 29.8500061035 56.3800048828 53.9299926758 54.3600006104 29.4199981689 -56.3800048828 -88.6999969482 -88.2899932861 -29.4199981689 -56.3800048828 -54.3600006104 hvcurveto
          endchar
        </CharString>
        <CharString name="oslash">
          106 749.589996338 9 callgsubr
          -50.5800018311 -59.5899963379 rlineto
          31.7799987793 -61.3999938965 -75.1699981689 17.0399932861 -85.9900054932 hhcurveto
          -245.820007324 -157.429992676 -139.289993286 -224.720001221 -119.25 44.3399963379 -95.1900024414 78.3600006104 -63.0800018311 hvcurveto
          -55.1399993896 -64.9600067139 36.5399932861 -30.5 57.8500061035 68.2299957275 rlineto
          -38.4499969482 64.6000061035 81.7599945068 -20.7799987793 94.9400024414 hhcurveto
          245.820007324 157.429992676 139.279998779 224.710006714 127.710006714 -50.8500061035 100.119995117 -89.0299987793 62.6399993896 hvcurveto
          -466.589996338 -476.88999939 rmoveto
          -23.1399993896 50.3300018311 -12.5200042725 62.9400024414 73.1499938965 vvcurveto
          198.61000061 92.25 123.330001831 146.619995117 67.9100036621 56.2400054932 -26.4600067139 -48.1399993896 40.8200073242 vhcurveto
          27.7299957275 -40.2200012207 rmoveto
          29.8300018311 -53.3300018311 16.3300018311 -70.2299957275 -83.5599975586 vvcurveto
          -198.600006104 -92.25 -123.320007324 -146.619995117 -75.5500030518 -61.1100006104 32.7400054932 58.8999938965 -41.4900054932 vhcurveto
          endchar
        </CharString>
        <CharString name="otilde">
          106 619.809997559 897.630004883 -98 callgsubr
          -168.169998169 -183.630004883 -99 callgsubr
        </CharString>
        <CharString name="p">
          -118 45.1699981689 13 callgsubr
          12.5500030518 hlineto
          33.3200073242 0.0500030517578 27.2799987793 -25.2700042725 3.25 -32.3600006104 rrcurveto
          -559.589996338 vlineto
          -34.8300018311 -0.690002441406 -100 callsubr
          303.899993896 -1 callsubr
          -12.6999969482 hlineto
          -34.9499969482 -65 callgsubr
          584.990005493 66.7100067139 vlineto
          80.0200042725 45.8899993896 -55.6300048828 -85.2599945068 2.80000305176 hvcurveto
          0.839996337891 -19.0099945068 -2.2200012207 -23.4400024414 -4.7799987793 -17.6699981689 7 callgsubr
          -126.089996338 -121.100006104 12.7299957275 0.630004882812 -0.690002441406 0.119995117188 -9.44999694824 rcurveline
          142.660003662 -93.6300048828 184.830001831 96.2400054932 -6.2200012207 172.449996948 rrcurveto
          109.240005493 -3.42999267578 -74.1799926758 82.3600006104 -171.089996338 hhcurveto
          endchar
        </CharString>
        <CharString name="paragraph">
          -241 515.509994507 742.619995117 rmoveto
          -47.1499938965 -40.9299926758 -32.9900054932 4.7200012207 -21.9499969482 hhcurveto
          -173.320007324 hlineto
          -108.080001831 -0.520004272461 -87 -69.5500030518 -1.22999572754 -112.960006714 rrcurveto
          -114.100006104 -1.24000549316 87 -69.9299926758 110.550003052 hhcurveto
          -333.13999939 vlineto
          2.91999816895 -97 -7.38999938965 -35 -56.2400054932 -58 7 -9 rcurveline
          82.4900054932 38 15.6300048828 84 77 vvcurveto
          658.039993286 83.4600067139 -513.410003662 vlineto
          -65.8699951172 1.75999450684 -34.3000030518 -28.7599945068 -49.4600067139 vhcurveto
          9 -8 rlineto
          39.1199951172 35.4700012207 21.0200042725 47.5899963379 77.0200042725 vvcurveto
          510.970001221 vlineto
          60.0700073242 1.05000305176 35.5800018311 41.1300048828 10.5399932861 36.3999938965 rrcurveto
          endchar
        </CharString>
        <CharString name="parenleft">
          -350 387.520004272 732 rmoveto
          -195.270004272 -32.1100006104 -102.949996948 -163.529998779 0.710006713867 -202.63999939 0.720001220703 -193.820007324 102.440002441 -180.88999939 192.559997559 -59 6 9 rcurveline
          -88.8200073242 62 -60.5899963379 148.669998169 -3.36999511719 215.839996338 -3.11999511719 200.270004272 61.5299987793 142.309997559 96.1699981689 45.8999938965 rrcurveto
          endchar
        </CharString>
        <CharString name="parenright">
          -350 37.7899932861 -100 rmoveto
          192.559997559 59 102.440002441 180.88999939 0.720001220703 193.820007324 0.710006713867 202.63999939 -102.949996948 163.529998779 -195.270004272 32.1100006104 -6 -8 rcurveline
          96.1699981689 -45.8999938965 61.5299987793 -142.309997559 -3.11999511719 -200.270004272 -3.36999511719 -215.839996338 -60.5899963379 -148.669998169 -88.8300018311 -62 rrcurveto
          endchar
        </CharString>
        <CharString name="partialdiff">
          -158 76.2100067139 583.460006714 rmoveto
          70.2899932861 84.2100067139 102.990005493 -11.1100006104 55.2799987793 -27.9100036621 68 -30.2299957275 35.2599945068 -88.4199981689 5.2799987793 -113.059997559 -170.960006714 100.449996948 -145.050003052 -101.759994507 -40.5800018311 -114.740005493 -46.6999969482 -132.300003052 59.3000030518 -175.589996338 215.509994507 13 175.61000061 10 99.2200012207 126.210006714 10.5700073242 210.830001831 10.1600036621 202.779998779 -96.2700042725 160.13999939 -169.300003052 18.6600036621 -104.75 11.6499938965 -93.0500030518 -37.9900054932 -49.8200073242 -97.8099975586 rrcurveto
          346.789993286 -257.419998169 rmoveto
          -8.89999389648 -174.330001831 -52.3800048828 -123.75 -67.8899993896 -6.80999755859 -68.0800018311 -6.77000427246 -37.0399932861 101.449996948 23.6600036621 108.240005493 22.9600067139 104.990005493 59.6300048828 76.3600006104 128.039993286 -50.1399993896 rrcurveto
          endchar
        </CharString>
        <CharString name="percent">
          -33 -84 callsubr
          28.6499938965 -177.520004272 rmoveto
          -68 callsubr
          endchar
        </CharString>
        <CharString name="period">
          -551 111.25 -10 rmoveto
          -86 callgsubr
          endchar
        </CharString>
        <CharString name="periodcentered">
          -555 109.289993286 393.320007324 rmoveto
          -41.8399963379 -43.8500061035 -30.9900054932 -41.3300018311 -16.6300048828 hvcurveto
          -41.3300018311 16.6300048828 43.8500061035 -30.9900054932 41.8399963379 hhcurveto
          41.8399963379 43.8500061035 30.9900054932 41.3300018311 16.6300048828 hvcurveto
          41.3300018311 -16.6300048828 -43.8500061035 30.9900054932 -41.8399963379 hhcurveto
          -31.6499938965 vmoveto
          23.5099945068 26.75 -17.4299926758 -23.2400054932 9.35000610352 hvcurveto
          -23.2400054932 -9.35000610352 -26.75 -17.4299926758 -23.5099945068 hhcurveto
          -23.5099945068 -26.7400054932 17.4299926758 23.2400054932 -9.35000610352 hvcurveto
          23.2400054932 9.35000610352 26.7400054932 17.4299926758 23.5099945068 hhcurveto
          endchar
        </CharString>
        <CharString name="perthousand">
          334 -84 callsubr
          367.039993286 hmoveto
          -100.600006104 -73.1799926758 -64.0500030518 -106.789993286 -17.1199951172 hvcurveto
          -114.039993286 -18.2100067139 49.6600036621 -68.2100067139 96.7100067139 hhcurveto
          106.220001221 74.3300018311 65.9600067139 110.220001221 13.4600067139 hvcurveto
          110.61000061 13.4900054932 -50.8200073242 66.3099975586 -93.9400024414 hhcurveto
          28.6499938965 -177.520004272 rmoveto
          -68 callsubr
          -367.039993286 hmoveto
          -68 callsubr
          endchar
        </CharString>
        <CharString name="pi">
          -22 715.589996338 10 rmoveto
          -18 callgsubr
          23.7899932861 29.6799926758 11 callgsubr
          473.979995728 -16 callsubr
          -678.910003662 -15 callgsubr
          -471.710006714 vlineto
          -29.9900054932 -2 callsubr
          -24.1300048828 14 callgsubr
          hhcurveto
          -10.9100036621 20 callgsubr
          -10 rlineto
          281.550003052 20 callgsubr
          10 rlineto
          -18 callgsubr
          23.7899932861 29.6799926758 11 callgsubr
          441.830001831 -4 callsubr
          140.949996948 -3 callgsubr
          -439.559997559 vlineto
          -29.9900054932 -2 callsubr
          -24.1399993896 -22 callgsubr
          endchar
        </CharString>
        <CharString name="plus">
          -292 441.720001221 338.320007324 rmoveto
          -172.289993286 -25 callgsubr
          hlineto
          endchar
        </CharString>
        <CharString name="plusminus">
          -292 269.429992676 408.320007324 rmoveto
          -25 callgsubr
          -21 callsubr
          vlineto
          -401.720001221 -354.399993896 rmoveto
          -35 callgsubr
          endchar
        </CharString>
        <CharString name="product">
          44 775.589996338 -190 rmoveto
          -18 callgsubr
          24 29 11 callgsubr
          774.419998169 -16 callsubr
          -732.830001831 -15 callgsubr
          -771.809997559 vlineto
          -30 -2 callsubr
          -24 -22 callgsubr
          -0.139999389648 10 rlineto
          -18 callgsubr
          24 29 11 callgsubr
          742.279998779 -4 callsubr
          194.880004883 -3 callgsubr
          -739.660003662 vlineto
          -30 -2 callsubr
          -24 -22 callgsubr
          endchar
        </CharString>
        <CharString name="q">
          121 1351.25 -72 rmoveto
          -110.979995728 -90 -172.220001221 -5 -180.429992676 69 -130.479995728 51 -80.9400024414 31 -90.9700012207 18.7299957275 rrcurveto
          165.149993896 43.2599945068 100.070007324 124.850006104 179.149993896 vvcurveto
          224.720001221 -157.429992676 139.289993286 -245.820007324 -245.820007324 -157.429992676 -139.289993286 -224.720001221 -221.050003052 152.350006104 -137.940002441 238.979995728 -5 vhcurveto
          126.369995117 -12 116.449996948 -111 147.580001831 -75 298.020004272 -150 224.179992676 130 9.03999328613 156 rrcurveto
          -1148.58000183 425.990005493 rmoveto
          198.61000061 92.25 123.330001831 146.619995117 146.619995117 92.25 -123.330001831 -198.61000061 -198.600006104 -92.25 -123.320007324 -146.619995117 -146.619995117 -92.25 123.320007324 198.600006104 vhcurveto
          endchar
        </CharString>
        <CharString name="question">
          -312 1 callgsubr
          518.089996338 rmoveto
          10 hlineto
          102.570007324 -0.789993286133 41.6900024414 51.2100067139 68.1199951172 hhcurveto
          64.6199951172 37.4499969482 -46.0700073242 -80.4499969482 0.610000610352 hvcurveto
          1.2200012207 -125.779998779 -107.679992676 -21.7599945068 -5.46000671387 -87.6499938965 -4.25 -53.1900024414 33.5700073242 -38.0099945068 49.0399932861 -21.6499938965 7.83000183105 5.58999633789 rcurveline
          -28 47.9799957275 26.5700073242 27.7899932861 28.4299926758 30.9499969482 rrcurveto
          71.4299926758 81.3300018311 87.3099975586 45.8399963379 103.089996338 vvcurveto
          109.619995117 -80.8200073242 64.5099945068 -142.990005493 -92 -70.0399932861 -35.4700012207 -53.5800018311 14 callgsubr
          vhcurveto
          200.210006714 -634.949996948 rmoveto
          39.5099945068 25 callgsubr
          32.1300048828 17 callgsubr
          -54 callsubr
          hvcurveto
          17 callgsubr
          -44 callsubr
          23 callsubr
          25 callgsubr
          -39.5099945068 hhcurveto
          17 callsubr
          -32.8099975586 23 callsubr
          17 callsubr
          -54 callsubr
          hvcurveto
          17 callsubr
          -44 callsubr
          32.8099975586 -32.1300048828 17 callgsubr
          hhcurveto
          endchar
        </CharString>
        <CharString name="questiondown">
          -286 253.630004883 710.070007324 rmoveto
          -39.5099945068 23 callsubr
          23 callsubr
          17 callsubr
          -44 callsubr
          hvcurveto
          17 callsubr
          -54 callsubr
          25 callgsubr
          23 callsubr
          39.5099945068 hhcurveto
          17 callgsubr
          32.8099975586 25 callgsubr
          17 callgsubr
          -44 callsubr
          hvcurveto
          17 callgsubr
          -54 callsubr
          -32.8099975586 25 callgsubr
          17 callsubr
          hhcurveto
          165.919998169 -528.160003662 rmoveto
          -10 hlineto
          -102.570007324 0.789993286133 -41.6900024414 -51.2100067139 -68.1199951172 hhcurveto
          -64.6199951172 -37.4499969482 46.0700073242 80.4499969482 -0.610000610352 hvcurveto
          -1.21000671387 125.779998779 107.679992676 21.7599945068 5.46000671387 87.6499938965 4.25 53.1900024414 -33.5700073242 38.0099945068 -49.0399932861 21.6499938965 -7.83000183105 -5.58999633789 rcurveline
          28 -47.9799957275 -26.5700073242 -27.7899932861 -28.4299926758 -30.9499969482 rrcurveto
          -71.4299926758 -81.3300018311 -87.3099975586 -45.8399963379 -103.089996338 vvcurveto
          -109.619995117 80.8200073242 -64.5099945068 142.990005493 92 70.0399932861 35.4700012207 53.5700073242 30.1399993896 vhcurveto
          endchar
        </CharString>
        <CharString name="quotedbl">
          -411 51.6600036621 500 rmoveto
          95.8899993896 35.3399963379 23.9900054932 127.119995117 -2.58000183105 51.5399932861 -107.149993896 -14 rcurveline
          8.2799987793 -72.6699981689 -3.7799987793 -34.4199981689 -28.4499969482 -87.6699981689 rrcurveto
          170.309997559 -5.25 -35 callsubr
        </CharString>
        <CharString name="quotedblbase">
          -329 244.070007324 -130 -12 callsubr
          -69.5 -33 callsubr
          -194.029998779 -12 -12 callsubr
          -69.4900054932 -33 callsubr
          endchar
        </CharString>
        <CharString name="quotedblleft">
          -327 399.509994507 819.460006714 -69 callgsubr
          -204.88999939 12.0899963379 -69 callgsubr
          endchar
        </CharString>
        <CharString name="quotedblright">
          -340 240.669998169 563.509994507 -70 callsubr
          -191.240005493 -11.5099945068 -70 callsubr
          endchar
        </CharString>
        <CharString name="quoteleft">
          -528 199.119995117 819.460006714 -69 callgsubr
          endchar
        </CharString>
        <CharString name="quoteright">
          -537 46.0299987793 563.509994507 -70 callsubr
          endchar
        </CharString>
        <CharString name="quotesinglbase">
          -528 46.3899993896 -124 rmoveto
          107.179992676 -14 88.25 123 -49.4400024414 110.839996338 -23.6699981689 53.4100036621 -68.1499938965 11.7799987793 -35.2299957275 -34 -30.6000061035 -29.2200012207 4.77000427246 -53.2799987793 29.4100036621 -33.6499938965 42.3699951172 -47.8800048828 -19.1300048828 -56 -49.3300018311 -19 rrcurveto
          endchar
        </CharString>
        <CharString name="quotesingle">
          -573 45.7700042725 500 -35 callsubr
        </CharString>
        <CharString name="r">
          -27 44.8200073242 700 -82 callsubr
          -0.309997558594 -98 callsubr
          endchar
        </CharString>
        <CharString name="racute">
          -27 350.13999939 762.169998169 -106 callgsubr
          -298.320007324 -69.1699981689 -82 callsubr
          -0.300003051758 -98 callsubr
          endchar
        </CharString>
        <CharString name="radical">
          -181 23.7899932861 387.100006104 rmoveto
          69.5599975586 13.7100067139 167.809997559 -547.809997559 319.740005493 988.179992676 -45.1799926758 2 -230.050003052 -698.699996948 -94.3800048828 329.529998779 -197.369995117 -43.5599975586 rlineto
          endchar
        </CharString>
        <CharString name="rcaron">
          -27 366.580001831 764.039993286 -91 callsubr
          -460.179992676 -217.210006714 -82 callsubr
          -0.300003051758 -98 callsubr
          endchar
        </CharString>
        <CharString name="rcommaaccent">
          -27 44.8200073242 700 -82 callsubr
          -0.300003051758 -98 callsubr
          3.50999450684 -947 rmoveto
          72.4199981689 -77 callgsubr
          3 callsubr
          -45 callgsubr
        </CharString>
        <CharString name="registered">
          -528 122.86000061 700.86000061 rmoveto
          -62.3300018311 -50.5299987793 -50.5299987793 -62.3300018311 -62.3300018311 50.5299987793 -50.5299987793 62.3300018311 62.3300018311 50.5299987793 50.5299987793 62.3300018311 62.3300018311 -50.5299987793 50.5299987793 -62.3300018311 hvcurveto
          -203.529998779 vmoveto
          -51.2799987793 -39.3800048828 4 callsubr
          4 callsubr
          -39.3800048828 -51.2799987793 -51.2799987793 -39.3800048828 -39.3800048828 -51.2799987793 hvcurveto
          -17.0500030518 153.149993896 rmoveto
          -41.3000030518 -2 2.5299987793 hlineto
          5.99000549316 4.52000427246 -4.49000549316 -5.94000244141 24 callsubr
          hvcurveto
          -94.9299926758 vlineto
          -5.88000488281 -0.240005493164 -4.49000549316 -4.69000244141 -5.94000244141 hhcurveto
          -2.5299987793 -2 54.5399932861 2 -2.5299987793 hlineto
          -6.0299987793 -4.53999328613 4.83000183105 6 -13 callgsubr
          hvcurveto
          97.9100036621 vlineto
          10.8000030518 -0.199996948242 15.75 24 callsubr
          6.13999938965 -8.88000488281 0.479995727539 -12.9700012207 rlinecurve
          -54 callsubr
          -3.77000427246 -0.690002441406 -5.41999816895 -0.679992675781 -2.85000610352 -3.38999938965 -13.5700073242 -8.41999816895 -2.63000488281 -3.92999267578 -0.279998779297 rrcurveto
          -10.5599975586 -1.85000610352 hlineto
          3.69000244141 2.89999389648 -6.7200012207 -6.75999450684 3.41999816895 hvcurveto
          -20.1999969482 10.1600036621 7.05000305176 -24.7400054932 33.8399963379 hhcurveto
          16.9299926758 2 hlineto
          -11.8899993896 3.92999267578 -6.08000183105 10.8800048828 -2.80000305176 4.28999328613 -7.74000549316 11.8600006104 -12.7799987793 19.7100067139 -8.82000732422 1.97999572754 rrcurveto
          17.0200042725 1.80000305176 12.7200012207 11.1300048828 19.9900054932 vvcurveto
          20.1900024414 -19.0800018311 12.1799926758 -23.6000061035 vhcurveto
          endchar
        </CharString>
        <CharString name="ring">
          301.190002441 865.830001831 -84 callgsubr
          endchar
        </CharString>
        <CharString name="s">
          -195 251.089996338 482.710006714 -102 callgsubr
          endchar
        </CharString>
        <CharString name="sacute">
          -195 281.100006104 762.169998169 -106 callgsubr
          -23.0099945068 -286.460006714 -102 callgsubr
          endchar
        </CharString>
        <CharString name="scaron">
          -195 297.539993286 764.039993286 -91 callsubr
          -184.869995117 -434.490005493 -102 callgsubr
          endchar
        </CharString>
        <CharString name="scedilla">
          -195 251.089996338 482.710006714 rmoveto
          -42.5599975586 25.1100006104 -29.5500030518 28.4799957275 2.42999267578 39.3800048828 rrcurveto
          53.6900024414 2.42999267578 49.7299957275 42.4900054932 78.7299957275 hhcurveto
          84.5899963379 56.2400054932 -45.6799926758 -69.4299926758 0.149993896484 0 callgsubr
          13.1000061035 146.990005493 rlineto
          -62.8099975586 hlineto
          5.78999328613 -45.6699981689 -58.3399963379 4.4700012207 -32.1799926758 hhcurveto
          -126.13999939 -75.8699951172 -71.5299987793 -103.539993286 -8.5 hvcurveto
          -7.28999328613 -72.8899993896 31.5099945068 -66.3300018311 71.4900054932 -40.2400054932 174.25 -115.619995117 rcurveline
          56.1900024414 -30.5299987793 23.8099975586 -32.1799926758 -0.0599975585938 -40.5599975586 0.0599975585938 -62.6499938965 -51.2899932861 -48.1900024414 -86.9600067139 -1.58999633789 -119.970001221 -1.94000244141 -76.6300048828 86.0099945068 8.02000427246 104.259994507 rrcurveto
          -8.78999328613 hlineto
          -26.1600036621 -43.6199951172 -14.1000061035 -84.3399963379 16.5599975586 -41.8000030518 34.3800048828 -35.4400024414 76.6300048828 -22.2700042725 83.7799987793 -3 -47.0700073242 -61 rcurveline
          -81 callgsubr
          41.3800048828 48 rcurveline
          140.179992676 10 85.0899963379 75.0599975586 5.63999938965 120.970001221 4.25 74.7599945068 -33.1699981689 55.7700042725 -60.8699951172 35.2799987793 rrcurveto
          endchar
        </CharString>
        <CharString name="scommaaccent">
          -195 251.089996338 482.710006714 -102 callgsubr
          -205.080001831 -610.850006104 -50 callsubr
          36 -46.3699951172 8 -8 callgsubr
          6 callsubr
          -45 callgsubr
        </CharString>
        <CharString name="section">
          -247 310.089996338 712.86000061 rmoveto
          -219.869995117 -10.1799926758 -174.210006714 -304.830001831 242.339996338 -237.880004883 134.589996338 -131.520004272 66.3500061035 -76.4400024414 -55.9400024414 -43 -79.1699981689 -60 -87.3899993896 194.830001831 -59.4499969482 -84.8300018311 -42.0099945068 -54 76.6499938965 -69 117.699996948 8 244.149993896 11 117.779998779 301.619995117 -225.869995117 246.809997559 -99.3200073242 104.410003662 -94.3999938965 97.1600036621 61.8300018311 45.5299987793 79 58.1300048828 75.4499969482 -188.479995728 59.7899932861 80.2799987793 rrcurveto
          40.3300018311 49.4100036621 -62.1100006104 70.9299926758 -116.229995728 -7.94999694824 rrcurveto
          -167.119995117 -129.940002441 rmoveto
          -3.55999755859 -108.229995728 32.6600036621 -48.2899932861 113.270004272 -116.070007324 113.520004272 -115.410003662 46.0299987793 -101.919998169 -59.4700012207 -111.990005493 17.8399963379 91.5 -67.3699951172 85.7200012207 -98.5599975586 95.2400054932 -115.309997559 110.910003662 -38.0800018311 94.6100006104 59.0200042725 123.929992676 rrcurveto
          endchar
        </CharString>
        <CharString name="semicolon">
          -543 111.25 401.229995728 rmoveto
          -86 callgsubr
          -65.5099945068 -514.229995728 -49 callsubr
        </CharString>
        <CharString name="seven">
          -229 45 598.130004883 rmoveto
          478.289993286 hlineto
          -119.759994507 -291.88999939 -35.1499938965 -85.2299957275 -75.1799926758 -224 -25.7599945068 -97 rlinecurve
          -130.710006714 hlineto
          53.5099945068 100.61000061 108.529998779 215.419998169 42.1699981689 98.0200042725 66.1600036621 158.089996338 rcurveline
          -305.350006104 hlineto
          -39.9799957275 -20.2200012207 -20.3399963379 -39.6600036621 -14.7599945068 hvcurveto
          -10 hlineto
          endchar
        </CharString>
        <CharString name="six">
          -144 257.729995728 345.61000061 rmoveto
          20.4299926758 19.9600067139 33.9700012207 14.0800018311 34.3899993896 -7.30999755859 51.4100036621 -7.05000305176 31.4299926758 -44.9900054932 0.600006103516 -108.779998779 rrcurveto
          -92.6100006104 0.570007324219 -25.0500030518 -85.6999969482 -82.4700012207 hhcurveto
          -85.3200073242 -21.9600067139 91.9600067139 159.990005493 215.479995728 37.1799926758 148.940002441 247.729995728 77.4199981689 hvcurveto
          -3.64999389648 7.41000366211 -301.570007324 14.5200042725 -144.559997559 -196.679992676 -1.02000427246 -254.339996338 rlinecurve
          -0.899993896484 -210.399993896 103.809997559 -105.529998779 171.919998169 3 173.990005493 3 85.7200012207 109.009994507 -0.479995727539 126.699996948 -0.850006103516 246.160003662 -257.669998169 9.50999450684 -74.2599945068 -125.380004883 rrcurveto
          endchar
        </CharString>
        <CharString name="slash">
          -347 8.78999328613 10.5500030518 rmoveto
          47.6600036621 -24.5500030518 360.940002441 710.5 -48.0800018311 22.9600067139 rlineto
          endchar
        </CharString>
        <CharString name="softhyphen">
          -26 callgsubr
        </CharString>
        <CharString name="space">
          -523 endchar
        </CharString>
        <CharString name="sterling">
          -170 579.160003662 195.830001831 rmoveto
          -55.6799926758 -111.759994507 -100.63999939 -32.1399993896 -93.9600067139 8.21000671387 -72.5099945068 6.11999511719 -54.9900054932 17.4900054932 -53.0599975586 -17.9199981689 72.8600006104 30.8000030518 60.8000030518 46.8800048828 1.52000427246 179.169998169 rrcurveto
          163.100006104 hlineto
          17.7299957275 48 rlineto
          -181.720001221 hlineto
          -0.289993286133 6.32000732422 -8.27000427246 173.699996948 12.5899963379 114.619995117 112.580001831 6.53999328613 rlinecurve
          70.9799957275 3.63000488281 37.9499969482 -42.5800018311 -1.80999755859 -97.7700042725 rrcurveto
          10 hlineto
          39.4900054932 121.559997559 -28.1300048828 35.8999938965 -62.75 27.3899993896 -88.0700073242 -6 rlinecurve
          -197.179992676 -13.7700042725 -55.3500061035 -148.279998779 5.9700012207 -181.270004272 rrcurveto
          -76.9700012207 hlineto
          -15.3000030518 -48 rlineto
          92.6499938965 hlineto
          -3.16999816895 -170.460006714 -51.7700042725 -102.88999939 -34.8699951172 -45.4100036621 rrcurveto
          -9.91999816895 10 vlineto
          10.1600036621 10.7100067139 46.7100067139 17.8899993896 18.1100006104 1.38999938965 63 6.32000732422 49 -26.3200073242 89 -12 53 -7 98.2899932861 9 65.5700073242 30 45.4299926758 171.830001831 rcurveline
          endchar
        </CharString>
        <CharString name="summation">
          -137 601.080001831 109.839996338 rmoveto
          -25.2200012207 -92.6000061035 -61.4199981689 -61.2400054932 -82.0500030518 -5 rrcurveto
          -258.990005493 hlineto
          244.589996338 367.720001221 -196.990005493 339.13999939 rlineto
          241.5 hlineto
          61.5299987793 -1.42999267578 38.9600067139 -39.6000061035 -0.119995117188 -61.0800018311 rrcurveto
          -11.75 -24 callgsubr
          -0.149993896484 rlineto
          174.350006104 vlineto
          -7.99000549316 -18.9499969482 -59.6199951172 20 callsubr
          -414.559997559 -10 hlineto
          266.649993896 -449.759994507 -272.190002441 -410.240005493 rlineto
          -11 544 vlineto
          36.1900024414 290.839996338 rlineto
          endchar
        </CharString>
        <CharString name="t">
          -107 132.410003662 701 -85 callsubr
          endchar
        </CharString>
        <CharString name="tbar">
          -107 132.410003662 701 rmoveto
          24 callgsubr
          0.509994506836 -57.0200042725 9.88999938965 -18.4499969482 7.7799987793 rrcurveto
          -174.300003052 -24 callgsubr
          0.149993896484 rlineto
          11.75 vlineto
          -0.119995117188 60.9700012207 38.8300018311 39.5599975586 61.3399963379 1.55999755859 rrcurveto
          134.470001221 -256.419998169 -154.38999939 4 callgsubr
          154.38999939 -289.080001831 hlineto
          -34.0800018311 -1.49000549316 -28.0500030518 14 callsubr
          15 callgsubr
          -95 callsubr
          303.919998169 -1 callsubr
          -60 callgsubr
          7 callgsubr
          -36 callgsubr
          34.4600067139 -1.07000732422 hvcurveto
          288.25 154.740005493 1 callgsubr
          -154.740005493 256.419998169 -87 callsubr
          -57.0099945068 -54 callgsubr
          endchar
        </CharString>
        <CharString name="tcaron">
          -107 340 764.039993286 rmoveto
          138.410003662 153.160003662 -6.74000549316 8 -136.759994507 -64.9900054932 -146.850006104 65.0800018311 -6.74000549316 -8 147.449996948 -153.259994507 rlineto
          -196.369995117 -63.0399932861 -85 callsubr
          endchar
        </CharString>
        <CharString name="tcedilla">
          -107 132.410003662 701 rmoveto
          -43.0099945068 0.509994506836 -57.0200042725 9.88999938965 -18.4499969482 7.7799987793 rrcurveto
          -174.300003052 -24 callgsubr
          0.149993896484 rlineto
          11.75 vlineto
          -0.119995117188 60.9700012207 38.8300018311 39.5599975586 61.3399963379 1.55999755859 rrcurveto
          134.470001221 -587.63999939 hlineto
          -34.0800018311 -1.49000549316 -28.0599975586 14 callsubr
          15 callgsubr
          -95 callsubr
          98.4700012207 hlineto
          -47.3600006104 -61 -81 callgsubr
          40.8999938965 47 rcurveline
          157.509994507 -1 callsubr
          -60 callgsubr
          7 callgsubr
          -36 callgsubr
          34.4600067139 -1.07000732422 hvcurveto
          -78 callsubr
          endchar
        </CharString>
        <CharString name="thorn">
          -75 callgsubr
        </CharString>
        <CharString name="three">
          -210 83.8500061035 399.199996948 rmoveto
          10 hlineto
          -3.83000183105 107.160003662 37.6799926758 59.25 81.0800018311 4.35000610352 69.5299987793 3.53999328613 47.5399932861 -40.3899993896 5.42999267578 -68.1100006104 7.82000732422 -101.710006714 -87.8600006104 -71.1100006104 -91.0399932861 2.19000244141 16 callgsubr
          -10 rcurveline
          99.0099945068 -0.970001220703 93.8899993896 -47.75 -54 callsubr
          -118.619995117 -44 callsubr
          -145.020004272 -140.039993286 -98 -162.039993286 4 -2 -10 rcurveline
          213.13999939 -74 250.929992676 108 0.360000610352 204.479995728 -0.309997558594 120.36000061 -85.6699981689 54.9700012207 -76.4199981689 13.8200073242 rrcurveto
          67.3300018311 4.67999267578 69.6399993896 59.7400054932 88.9700012207 vvcurveto
          100.36000061 -87.5399932861 64.9600067139 -144.070007324 -2.36000061035 vhcurveto
          -96.6100006104 -1.57000732422 -72.3200073242 -29.7899932861 -43.4499969482 -39.6799926758 rrcurveto
          endchar
        </CharString>
        <CharString name="threequarters">
          16 648.669998169 -48 callgsubr
          -111.029998779 576.130004883 -52 callsubr
          54.2200012207 -64 callsubr
          721.86000061 -568.63999939 -6 callgsubr
          -8.39999389648 -23 callsubr
          -68.5899963379 vlineto
          -18.7299957275 -0.699996948242 -15.4100036621 -13.75 -18.4400024414 -4 callgsubr
          -18.5899963379 -15.7299957275 14.7899932861 18.5800018311 -0.25 hvcurveto
          67.6999969482 -9 callgsubr
        </CharString>
        <CharString name="threesuperior">
          -425 56.4900054932 583.669998169 -52 callsubr
          54.2299957275 -64 callsubr
          endchar
        </CharString>
        <CharString name="tilde">
          452.179992676 790.660003662 -98 callgsubr
          endchar
        </CharString>
        <CharString name="trademark">
          -287 192.539993286 651.190002441 rmoveto
          2.92999267578 54.4799957275 hlineto
          -5.28999328613 -2.08000183105 -16.2299957275 -2.92999267578 -12.0500030518 -0.0599975585938 rrcurveto
          -118.320007324 hlineto
          -12.0500030518 0.0599975585938 -16.2299957275 2.92999267578 -5.28999328613 2.08000183105 rrcurveto
          -8.35000610352 vlineto
          -10.8899993896 vlineto
          -35.25 2.71000671387 3.07000732422 vlineto
          18.8699951172 11.6900024414 11.9799957275 18.9700012207 0.380004882812 vhcurveto
          33.5200042725 -163.740005493 hlineto
          -9.91000366211 -0.360000610352 -7.75999450684 -7.91999816895 -9.69000244141 hhcurveto
          -3.41999816895 0.220001220703 rlineto
          -2.92999267578 94.1900024414 2.92999267578 vlineto
          -3.41999816895 -0.220001220703 rlineto
          -9.7200012207 -7.99000549316 7.96000671387 9.94999694824 -13 callgsubr
          hvcurveto
          163.660003662 33.5099945068 vlineto
          18.9700012207 -0.380004882812 11.6900024414 6 callsubr
          -0.220001220703 -18.8699951172 rrcurveto
          230.899993896 49.9700012207 rmoveto
          -2.69999694824 hlineto
          -83.5 -135.919998169 -92.3099975586 135.949996948 rlineto
          -2.5 hlineto
          -24.3600006104 -184.460006714 rlineto
          -10.0399932861 -2.36999511719 -8.53999328613 -5.83000183105 -9.75 hhcurveto
          -4.38999938965 0.220001220703 rlineto
          -2.92999267578 62.9900054932 2.66000366211 -4.4700012207 vlineto
          -5.7799987793 -4.96000671387 5.61999511719 5.83999633789 -0.320007324219 hvcurveto
          9.41000366211 88.6900024414 72.3399963379 -108.830001831 rlineto
          2.72999572754 hlineto
          14.1199951172 11.1499938965 17.6699981689 0 vhcurveto
          49.2799987793 79.8500061035 13.4799957275 -90.9700012207 rlineto
          -6.0299987793 -5.08999633789 -5.96000671387 -5.94999694824 vhcurveto
          -4.4700012207 -2.66000366211 93.4499969482 2.92999267578 hlineto
          -4.5 -0.220001220703 rlineto
          -9.72999572754 -8.19000244141 6.19000244141 10.6100006104 -2.55999755859 hvcurveto
          endchar
        </CharString>
        <CharString name="two">
          -157 104.429992676 416.710006714 rmoveto
          -1.14999389648 107.119995117 50.7700042725 58.3500061035 88.0200042725 4.82000732422 rrcurveto
          83.4700012207 4.55000305176 51.4499969482 -50.1399993896 -80.2400054932 vvcurveto
          -145.759994507 -199.910003662 -166.11000061 -132.589996338 -140.509994507 vhcurveto
          -8.77000427246 479.070007324 vlineto
          60.0500030518 216.800003052 rlineto
          -10.0500030518 hlineto
          -61.7200012207 -35.3500061035 -34.7200012207 -25.9400024414 -59.7299957275 hhcurveto
          -207.089996338 hlineto
          99.4400024414 62.0299987793 200.919998169 110.830001831 146.080001831 vvcurveto
          111.86000061 -109.529998779 66.5200042725 -151.059997559 -84.2100067139 -94.7599945068 -23.75 -42.1699981689 -50.7899932861 vhcurveto
          47.6799926758 -143.809997559 rlineto
          endchar
        </CharString>
        <CharString name="twosuperior">
          -372 74.0599975586 573.300003052 -68 callgsubr
        </CharString>
        <CharString name="u">
          48 580.539993286 700 -103 callsubr
        </CharString>
        <CharString name="uacute">
          48 440.679992676 762.169998169 -106 callgsubr
          146.850006104 -69.1699981689 -103 callsubr
        </CharString>
        <CharString name="ucircumflex">
          48 444.589996338 915.25 -89 callsubr
          280.169998169 -62.0899963379 -103 callsubr
        </CharString>
        <CharString name="udieresis">
          48 332.160003662 758.869995117 -106 callsubr
          14.9400024414 -58.8699951172 -103 callsubr
        </CharString>
        <CharString name="ugrave">
          48 470.119995117 770.940002441 -99 callsubr
          117.419998169 -63.9400024414 -103 callsubr
        </CharString>
        <CharString name="uhungarumlaut">
          48 353.020004272 765.720001221 -92 callgsubr
          60.5700073242 -70.7599945068 -103 callsubr
        </CharString>
        <CharString name="umacron">
          48 316.710006714 795.36000061 -63 callgsubr
          263.830001831 -160.720001221 -103 callsubr
        </CharString>
        <CharString name="underscore">
          -273 -102 42 hstem
          0 500 vstem
          -102 vmoveto
          500 42 -500 hlineto
          endchar
        </CharString>
        <CharString name="uni021A">
          -75 94.7799987793 701 -80 callgsubr
          -57.0099945068 -9.88999938965 -43.0099945068 -0.509994506836 rrcurveto
          -249.809997559 -884 -43 callgsubr
        </CharString>
        <CharString name="uni021B">
          -107 132.410003662 701 -85 callsubr
          -249.809997559 -948 rmoveto
          72.4299926758 -77 callgsubr
          3 callsubr
          -45 callgsubr
        </CharString>
        <CharString name="uogonek">
          48 580.539993286 700 rmoveto
          -11 callgsubr
          vlineto
          28.4199981689 24.3999938965 -20.1000061035 -28.0399932861 hvcurveto
          -394.479995728 vlineto
          -134.300003052 -0.279998779297 -76.1799926758 -83.4600067139 -122.13999939 hhcurveto
          -119.63999939 -74.4900054932 88.3999938965 142.259994507 hvcurveto
          381.710006714 vlineto
          27.9799957275 1.2200012207 23.1199951172 20.0399932861 28.3800048828 hhcurveto
          16.3000030518 10 -288.11000061 -11 callgsubr
          hlineto
          28.8899993896 23.4400024414 -20.7599945068 -28.7599945068 0.539993286133 hvcurveto
          -388.830001831 vlineto
          -0.0800018310547 -158.050003052 104.830001831 -100.61000061 201.149993896 -7 -40.3300018311 -11 -34.5700073242 -28 -4.4700012207 -48 -39 callsubr
          -2.2799987793 35 15.0299987793 29 51.5200042725 13 158.660003662 13.1199951172 93.8399963379 99.9900054932 0.00999450683594 153.300003052 rrcurveto
          389.380004883 vlineto
          27.5599975586 24.6900024414 19.6699981689 28.1100006104 vhcurveto
          16.3000030518 10 hlineto
          endchar
        </CharString>
        <CharString name="uring">
          48 451.020004272 930.88999939 -84 callgsubr
          130.190002441 -206.070007324 -103 callsubr
        </CharString>
        <CharString name="v">
          -46 541.720001221 700.059997559 rmoveto
          -42 callsubr
          8.78999328613 vlineto
          25.8200073242 28.8500061035 -22.6399993896 -40.0200042725 -16.4199981689 hvcurveto
          -176.199996948 -413.330001831 -169.320007324 413.330001831 -52 callgsubr
          236.770004272 523.369995117 rcurveline
          39.3500061035 21.2599945068 34.3399963379 16.3600006104 28.5700073242 hhcurveto
          8.91999816895 10.0399932861 hlineto
          endchar
        </CharString>
        <CharString name="w">
          198 789.339996338 700 -93 callgsubr
        </CharString>
        <CharString name="wacute">
          198 518.75 766.100006104 -106 callgsubr
          277.580001831 -73.1000061035 -93 callgsubr
        </CharString>
        <CharString name="wcircumflex">
          198 522.660003662 919.179992676 -89 callsubr
          410.899993896 -66.0200042725 rmoveto
          -9.91000366211 8.78999328613 vlineto
          27.8200073242 21.1799926758 -22.2400054932 -40.0200042725 -10.9900054932 hvcurveto
          -99.7799987793 -351.779998779 -198.979995728 439.270004272 -9.30999755859 0.320007324219 -181.449996948 -435.13999939 -123.020004272 347 rlineto
          40.0200042725 -13.0800018311 25.9299926758 22.5599975586 25.8200073242 hhcurveto
          8.78999328613 9.91000366211 -305.050003052 -10 8 hlineto
          29.6300048828 38.0800018311 -16.6999969482 -41.1799926758 18.3000030518 hvcurveto
          239.320007324 -650.130004883 rlineto
          9.44000244141 hlineto
          1.03999328613 52.7200012207 23.5700073242 58.3600006104 0 vvcurveto
          157.869995117 371.759994507 218.160003662 -482.839996338 rlineto
          9.44000244141 hlineto
          -2.7200012207 48.7700042725 20.3300018311 62.3200073242 0 vvcurveto
          167.990005493 538.529998779 rlineto
          41.5399932861 15.8200073242 40.9799957275 16.8399963379 29.6799926758 hhcurveto
          8.78999328613 10 hlineto
          endchar
        </CharString>
        <CharString name="wdieresis">
          198 410.229995728 762.800003052 -106 callsubr
          145.669998169 -62.8000030518 -93 callgsubr
        </CharString>
        <CharString name="wgrave">
          198 548.190002441 774.869995117 -99 callsubr
          248.149993896 -67.8699951172 -93 callgsubr
        </CharString>
        <CharString name="x">
          -44 756.070007324 10 rmoveto
          -6 callsubr
          -201.11000061 310.740005493 170.270004272 252.759994507 rlineto
          30.6399993896 21.6100006104 36.4199981689 27.5500030518 41.7299957275 hhcurveto
          14 hlineto
          -13 callgsubr
          10.0200042725 rlineto
          -245.559997559 hlineto
          0.110000610352 -10.0200042725 rlineto
          12.6000061035 hlineto
          27.2700042725 24.4799957275 -33.6699981689 -28.3899993896 -17.0399932861 hvcurveto
          -122.509994507 -192.160003662 -124.759994507 192.759994507 3 callgsubr
          27.0899963379 -27 callgsubr
          184.550003052 -286.399993896 -196.979995728 -278.330001831 rlineto
          -29.9100036621 -22.8500061035 -35.25 -26.5399932861 -40.8500061035 hhcurveto
          -14 -9.96000671387 247.020004272 hlineto
          -13 callgsubr
          9.96000671387 rlineto
          -12.6000061035 hlineto
          -27.2700042725 -26.4600067139 33.7299957275 28.3899993896 18.6499938965 hvcurveto
          146.86000061 216.559997559 140.020004272 -217.309997559 -20 callgsubr
          endchar
        </CharString>
        <CharString name="y">
          -71 495.789993286 700.020004272 -53 callsubr
          -28.3600006104 -15.9600067139 hvcurveto
          -148.800003052 -259.929992676 -142.479995728 260.059997559 rlineto
          28.3300018311 -14.4700012207 20.4199981689 33.4900054932 29.1799926758 hhcurveto
          12.6000061035 9.9700012207 -330.919998169 -9.9700012207 14 hlineto
          40.7400054932 38.9400024414 -27.1000061035 -30.3000030518 19.5899963379 hvcurveto
          190.449996948 -313.960006714 rlineto
          -246.399993896 vlineto
          -34.5599975586 -0.960006713867 -28.2700042725 -27.7400054932 -34.8099975586 -71 callsubr
          245.220001221 vlineto
          196.88999939 313.5 rlineto
          30.7299957275 20.7299957275 37.9900054932 27.6799926758 41.8300018311 hhcurveto
          14 10.0200042725 hlineto
          endchar
        </CharString>
        <CharString name="yacute">
          -71 388.699996948 762.169998169 -106 callgsubr
          114.100006104 -69.1499938965 -53 callsubr
          -28.3600006104 -92 callsubr
        </CharString>
        <CharString name="ycircumflex">
          -71 392.600006104 915.25 -89 callsubr
          247.410003662 -62.0700073242 -53 callsubr
          -28.3600006104 -92 callsubr
        </CharString>
        <CharString name="ydieresis">
          -71 280.169998169 758.869995117 -106 callsubr
          -17.8200073242 -58.8500061035 -53 callsubr
          -28.3600006104 -92 callsubr
        </CharString>
        <CharString name="yen">
          -71 495.800003052 700.020004272 -53 callsubr
          -28.3500061035 -15.9600067139 hvcurveto
          -148.800003052 -259.940002441 -142.460006714 260.039993286 rlineto
          28.3399963379 -14.5 20.4199981689 33.5099945068 29.1900024414 hhcurveto
          12.6000061035 9.9700012207 -330.929992676 -9.9700012207 14 hlineto
          40.7299957275 38.9299926758 -27.0899963379 -30.2899932861 19.6000061035 hvcurveto
          128.399993896 -211.669998169 rlineto
          -110.429992676 4 callgsubr
          135.990005493 hlineto
          36.5099945068 -60.1900024414 rlineto
          -11.6000061035 -172.5 4 callgsubr
          172.5 -192.039993286 vlineto
          -34.8300018311 -0.649993896484 -28.3999938965 -28.0500030518 -35 -71 callsubr
          192.039993286 171.320007324 1 callgsubr
          -171.320007324 11.0500030518 vlineto
          38.1399993896 60.7299957275 rlineto
          133.169998169 1 callgsubr
          -106.710006714 hlineto
          132.279998779 210.61000061 rlineto
          30.7299957275 20.7299957275 37.9900054932 27.6799926758 41.8300018311 hhcurveto
          14 10.0200042725 hlineto
          endchar
        </CharString>
        <CharString name="ygrave">
          -71 418.130004883 770.940002441 -99 callsubr
          84.6600036621 -63.9299926758 -53 callsubr
          -28.3500061035 -92 callsubr
        </CharString>
        <CharString name="z">
          -113 623.240005493 201.25 rmoveto
          -96.7799987793 -26.3399963379 -65.8200073242 -62.5599975586 -87.5700073242 hhcurveto
          -210 hlineto
          370.990005493 663.410003662 -96 callsubr
          -9.32000732422 rlineto
          552.149993896 hlineto
          36.2700042725 201.25 rlineto
          endchar
        </CharString>
        <CharString name="zacute">
          -113 320.330001831 762.169998169 -106 callgsubr
          309.910003662 -567.910003662 rmoveto
          -96.7799987793 -26.3399963379 -65.8200073242 -62.5599975586 -87.5700073242 hhcurveto
          -210 hlineto
          370.990005493 663.410003662 -96 callsubr
          -9.32000732422 rlineto
          552.149993896 hlineto
          36.2700042725 201.25 rlineto
          endchar
        </CharString>
        <CharString name="zcaron">
          -113 336.770004272 764.039993286 -91 callsubr
          148.050003052 -715.949996948 rmoveto
          -96.7799987793 -26.3399963379 -65.8200073242 -62.5599975586 -87.5700073242 hhcurveto
          -210 hlineto
          370.990005493 663.410003662 -96 callsubr
          -9.32000732422 rlineto
          552.149993896 hlineto
          36.2700042725 201.25 rlineto
          endchar
        </CharString>
        <CharString name="zdotaccent">
          -113 330.130004883 764.229995728 -91 callgsubr
          293.11000061 -562.979995728 rmoveto
          -96.7799987793 -26.3399963379 -65.8200073242 -62.5599975586 -87.5700073242 hhcurveto
          -210 hlineto
          370.990005493 663.410003662 -96 callsubr
          -9.32000732422 rlineto
          552.149993896 hlineto
          36.2700042725 201.25 rlineto
          endchar
        </CharString>
        <CharString name="zero">
          -85 344.160003662 614 rmoveto
          -185.520004272 -114.710006714 -120.149993896 -193.850006104 -193.850006104 114.710006714 -120.149993896 185.520004272 185.520004272 114.710006714 120.149993896 193.850006104 193.850006104 -114.710006714 120.149993896 -185.520004272 hvcurveto
          4 callgsubr
          vmoveto
          88.9900054932 56.4299926758 -104.160003662 -167.690002441 -167.690002441 -56.4299926758 -104.160003662 -88.9900054932 -88.9900054932 -56.4299926758 104.160003662 167.690002441 167.690002441 56.4299926758 104.160003662 88.9900054932 hvcurveto
          endchar
        </CharString>
      <CharString index="0">
        -40 callsubr
        -195.199996948 281.410003662 160.270004272 -36 callsubr
        0.139999389648 -86 callsubr
        -159.039993286 -34 callgsubr
        66.0899963379 hlineto
        59.9799957275 -2.5 37.8300018311 -39.3300018311 -0.119995117188 -60.1900024414 rrcurveto
        -11.75 vlineto
        10.1000061035 -0.149993896484 rlineto
        174.839996338 vlineto
        -18.5899963379 -7.82000732422 -57.5700073242 -9.96000671387 -43.1000061035 -0.410003662109 rrcurveto
        -281.369995117 -104 callsubr
        return
      </CharString>
      <CharString index="1">
        rmoveto
        65.5700073242 15.8399963379 79.5299987793 36.2599945068 59.5 37.8399963379 -12.3000030518 35.75 -19.9400024414 27.0700073242 -35.5200042725 18.3899993896 -43.4900054932 -38.9600067139 -66.5700073242 -67.25 -33.7799987793 -57.9299926758 rrcurveto
        return
      </CharString>
      <CharString index="2">
        rmoveto
        -9.00999450684 hlineto
        -2.42999267578 -29.1100006104 -39.6199951172 -86.6900024414 -7.13999938965 -15.2100067139 -231.240005493 -522.720001221 rcurveline
        -39.7299957275 -21.2400054932 -34.4799957275 -16.6100006104 -28.4199981689 hhcurveto
        -9 -10 214.419998169 9.91000366211 -8.78999328613 hlineto
        -25.8200073242 -28.8500061035 22.7599945068 40.0200042725 16.4199981689 hvcurveto
        51.1600036621 123.570007324 rlineto
        234.660003662 hlineto
        49.2299957275 -123.570007324 rlineto
        -40.0200042725 15.2599945068 -28.0899963379 -22.75 -25.8200073242 hhcurveto
        -8.78999328613 -9.91000366211 318.61000061 10 -8.36000061035 hlineto
        -29.4700012207 -34.2299957275 17.0700073242 40.9199981689 -21.6399993896 hvcurveto
        -443.770004272 170.399993896 rmoveto
        102.470001221 245.550003052 97.8200073242 -245.550003052 rlineto
        endchar
      </CharString>
      <CharString index="3">
        rmoveto
        1.0299987793 54.5599975586 18.4600067139 30 59.1699981689 9.36000061035 -1.83999633789 10 rcurveline
        -94.7400054932 -18.0599975586 -158.75 -1.63000488281 -65 -4.36999511719 -103.289993286 -6.96000671387 -36 -44.7599945068 -2 -49.3500061035 -3 -65.0599975586 64.5200042725 -40.6600036621 58.6300048828 26.1100006104 rrcurveto
        5.80999755859 vlineto
        -52 -2.44999694824 -27.1100006104 31.9100036621 3 40.6900024414 3.44999694824 42.7799987793 33.1699981689 18.0800018311 57.4700012207 2.57000732422 94.8300018311 3.91999816895 rcurveline
        -585.779998779 vlineto
        -34.8300018311 -0.660003662109 -100 callsubr
        303.789993286 -61 callgsubr
        -0.660003662109 hvcurveto
        return
      </CharString>
      <CharString index="4">
        rmoveto
        -25.8200073242 101.630004883 52.1100006104 114.88999939 129.570007324 7.88999938965 rrcurveto
        151 9.71000671387 86.5399932861 -145.710006714 -177.710006714 vvcurveto
        -200.5 -110.5 -129.5 -159.210006714 -160.929992676 -111.429992676 134.88999939 219.25 120.38999939 32.25 124.539993286 70.5500030518 59.3800048828 vhcurveto
        -6 9.61000061035 rlineto
        -158.229995728 -43.3800048828 -103 -130.179992676 -166.88999939 vvcurveto
        -221.570007324 180.25 -148.179992676 256.710006714 256.289993286 177.679992676 147.13999939 224.210006714 245.570007324 -220.570007324 130.5 -180.070007324 -19.4299926758 vhcurveto
        -171.36000061 -17.6100006104 -43.4600067139 -148.11000061 46.4299926758 -101.630004883 rrcurveto
        endchar
      </CharString>
</ttFont>
